<svg width="151" height="169" viewBox="0 0 151 169" fill="none" xmlns="http://www.w3.org/2000/svg">
<path d="M143.009 126.525C140.662 124.143 137.865 122.251 134.781 120.959C131.697 119.668 128.387 119.002 125.043 119C121.699 118.998 118.389 119.661 115.303 120.95C112.218 122.239 109.419 124.128 107.07 126.508C102.426 131.213 99.9154 137.395 100.002 143.914C100.098 151.184 102.639 157.462 107.349 162.08C111.887 166.523 118.145 168.98 124.973 169H125.052C131.814 169 138.04 166.587 142.583 162.204C147.355 157.601 149.939 151.294 150.053 143.967C150.155 137.438 147.652 131.244 143.009 126.525ZM147.293 144.237C147.332 147.096 146.802 149.934 145.733 152.586C144.663 155.239 143.077 157.651 141.065 159.683C136.831 163.986 131.126 166.371 125.005 166.401C118.859 166.344 113.152 163.931 108.934 159.609C106.932 157.575 105.355 155.162 104.296 152.512C103.236 149.862 102.715 147.028 102.764 144.174C102.963 131.052 112.112 121.889 125.011 121.889H125.087C138.02 121.926 147.154 131.116 147.293 144.237Z" fill="white"/>
<path d="M136.396 139.966H135.377C133.464 139.966 131.293 139.957 129.209 139.98H129.124C129.124 139.953 129.124 139.916 129.124 139.869C129.142 137.782 129.137 135.66 129.134 133.6V132.745C129.134 130.37 127.373 128.577 125.041 128.573C122.709 128.57 120.931 130.355 120.931 132.716C120.931 133.501 120.931 134.286 120.931 135.071V136.136C120.931 136.452 120.931 136.768 120.931 137.085V137.2C120.931 138.086 120.931 139.001 120.943 139.906C120.944 139.93 120.944 139.954 120.943 139.979H120.879C118.869 139.959 116.828 139.963 114.853 139.966H113.696C111.326 139.966 109.539 141.734 109.539 144.068C109.539 146.401 111.325 148.166 113.695 148.178H114.77C116.772 148.178 118.842 148.178 120.876 148.166H120.943C120.943 148.187 120.943 148.213 120.943 148.245C120.926 150.402 120.931 152.591 120.943 154.709V155.427C120.936 155.726 120.963 156.025 121.023 156.318C121.468 158.271 123.088 159.584 125.054 159.584C125.224 159.585 125.394 159.575 125.563 159.556C127.601 159.329 129.14 157.54 129.143 155.398V154.372C129.143 152.373 129.143 150.306 129.133 148.272C129.133 148.227 129.133 148.192 129.133 148.164H129.224C131.355 148.185 133.572 148.181 135.523 148.176H136.406C138.716 148.176 140.529 146.381 140.535 144.103C140.543 143.558 140.443 143.017 140.238 142.512C140.034 142.007 139.73 141.548 139.344 141.163C138.959 140.778 138.5 140.474 137.995 140.269C137.49 140.065 136.95 139.964 136.405 139.973L136.396 139.966ZM126.396 149.697C126.396 151.563 126.396 153.429 126.396 155.295C126.396 155.983 126.14 156.421 125.593 156.678C125.37 156.793 125.117 156.839 124.868 156.809C124.618 156.78 124.383 156.676 124.193 156.512C123.824 156.235 123.662 155.837 123.662 155.222C123.662 152.813 123.662 150.405 123.662 147.998V147.076C123.662 145.931 123.168 145.442 122.013 145.442H119.133C117.359 145.442 115.585 145.442 113.812 145.442C113.106 145.442 112.564 145.103 112.363 144.539C112.286 144.34 112.259 144.126 112.283 143.914C112.307 143.702 112.382 143.499 112.501 143.322C112.646 143.128 112.834 142.971 113.051 142.865C113.269 142.759 113.508 142.707 113.75 142.713C114.744 142.701 115.746 142.704 116.715 142.713H118.015H122.06C123.167 142.713 123.66 142.21 123.66 141.087C123.66 140.275 123.66 139.463 123.66 138.651V138.164C123.66 136.386 123.66 134.607 123.66 132.827C123.66 132.146 123.92 131.711 124.474 131.457C125 131.216 125.478 131.294 125.934 131.696C126.251 131.973 126.391 132.369 126.391 132.943C126.385 134.992 126.385 137.041 126.391 139.091V141.02C126.391 142.229 126.857 142.694 128.05 142.694H130.889C132.675 142.694 134.462 142.694 136.251 142.694C136.918 142.694 137.35 142.938 137.612 143.456C137.733 143.676 137.786 143.927 137.764 144.177C137.742 144.428 137.646 144.666 137.487 144.861C137.207 145.25 136.801 145.424 136.164 145.424C134.016 145.424 131.868 145.424 129.722 145.424H128.078C126.848 145.424 126.391 145.881 126.391 147.133L126.396 149.697Z" fill="white"/>
<path d="M136.974 55.0482C136.79 47.3658 134.915 40.9639 131.238 35.4796C124.455 25.3304 114.973 19.8546 103.047 19.193C100.109 19.0266 97.1104 19.0394 94.2145 19.0479C92.8947 19.0479 91.5748 19.0479 90.255 19.0479C90.0628 19.0479 89.8664 19.0479 89.6699 19.0479C88.521 19.0863 87.5343 19.1162 87.214 17.6224C87.1477 17.4297 87.0351 17.2562 86.8862 17.1171C86.7373 16.978 86.5565 16.8774 86.3597 16.8243C84.9545 16.5255 84.9929 15.5909 85.0399 14.4044V14.2379C85.0399 13.7087 85.0399 13.1667 85.0399 12.646C85.0399 11.9631 85.01 11.2589 85.0655 10.576C85.4926 5.21118 83.2673 1.6517 78.4451 0H9.251L9.19119 0.0554856L9.07586 0.174988C9.03571 0.227367 8.98655 0.27217 8.93065 0.307294C4.72775 1.85656 2.76299 4.635 2.74591 9.06088V10.3157C2.74591 11.8948 2.74591 13.5294 2.74591 15.1342C2.74591 15.9878 2.63485 16.4146 1.7806 16.6749C0.640181 17.042 0.0293955 18.0407 0.020853 19.5686C-0.00477443 24.4085 -0.00904567 29.5812 0.020853 35.3814C0.020853 36.8795 0.605986 37.8824 1.64817 38.1983C2.69035 38.5141 2.75018 39.1329 2.75018 40.1274C2.75018 49.9437 2.75018 59.9051 2.75018 69.5464V75.2698C2.75018 75.4234 2.75018 75.5813 2.75018 75.7392C2.72826 76.1779 2.74254 76.6175 2.79288 77.0538C3.36238 80.9604 3.92331 84.867 4.47573 88.7736C5.1335 93.3261 5.78846 97.8786 6.44054 102.431L6.6797 104.138C7.50832 109.926 8.38823 115.905 8.25582 121.906C8.10632 130.134 8.14474 138.5 8.17891 146.592C8.17891 149.389 8.18885 152.183 8.20879 154.974C8.20879 160.45 11.7411 163.992 17.1784 163.992H70.8295C71.6113 164.025 72.3939 163.955 73.1573 163.783C77.3089 162.673 79.5983 159.515 79.6026 154.927C79.6026 146.072 79.6026 137.216 79.6026 128.359V116.584C79.6026 116.434 79.6026 116.281 79.6026 116.127C79.5836 115.758 79.5951 115.388 79.6368 115.022C80.2433 110.734 80.8555 106.446 81.4734 102.158C82.0572 98.0863 82.6408 94.0132 83.2246 89.9388L83.515 87.9115C84.3692 81.9619 85.2577 75.8075 85.1295 69.6147C84.9758 62.4744 85.0142 55.2061 85.0527 48.1768C85.0527 45.4751 85.0826 42.7735 85.0869 40.0676C85.0827 39.909 85.0684 39.7507 85.0441 39.5939C84.9843 39.0775 84.9672 38.7403 85.2449 38.6507C86.6757 38.1129 87.4745 37.3105 87.8375 36.0472C87.9016 35.8295 88.0297 35.8125 88.4526 35.8594C88.5534 35.87 88.655 35.87 88.7558 35.8594C89.9005 35.8594 91.0452 35.8594 92.1728 35.8594C95.2865 35.8594 98.5071 35.8125 101.676 35.8936C106.111 35.9995 110.364 37.673 113.679 40.6167C116.995 43.5603 119.159 47.5835 119.786 51.971C120.41 56.2389 119.966 60.5538 119.415 64.9456C118.48 72.0422 116.182 78.8914 112.645 85.116C110.055 89.6286 106.907 93.7971 103.274 97.5229C101.245 99.6569 100.378 102.055 100.711 104.655C101.159 108.282 103.188 110.83 106.576 112.03C109.963 113.229 113.093 112.457 115.853 109.712C119.376 106.203 122.514 102.329 125.215 98.1546C133.407 85.547 137.363 71.0445 136.974 55.0482ZM106.763 103.08C106.934 102.226 107.549 101.612 108.147 101.006L108.412 100.732C113.148 95.7971 117.054 90.1286 119.979 83.9465C124.216 74.9838 126.189 65.3041 126.01 54.3098C125.875 48.7505 123.888 43.3949 120.364 39.0908C116.84 34.7866 111.981 31.7796 106.554 30.5458C104.471 30.1389 102.35 29.9601 100.228 30.0123H99.1991C98.3448 30.0123 97.4906 30.0123 96.7217 30.0123H94.1847C92.2284 30.0123 90.5413 30.0123 88.8114 30.0123C88.0426 30.0123 87.8717 29.8459 87.8504 29.0349V28.9624C87.7948 26.9821 87.7606 25.8937 88.2134 25.4371C88.6661 24.9804 89.6314 25.0103 91.6304 25.0316C93.1082 25.0572 94.6203 25.0316 96.0597 25.0316C99.7244 24.9847 103.513 24.9334 107.212 25.6334C119.389 27.9423 129.448 38.6933 130.61 50.6479C132.66 71.7829 126.39 90.1394 111.979 105.205C110.637 106.609 109.416 106.942 108.134 106.255C106.926 105.585 106.469 104.527 106.763 103.08V103.08ZM8.72992 11.2845C8.72992 10.6144 8.72992 9.91875 8.72992 9.24014C8.76836 6.75619 9.65251 5.87272 12.0999 5.87272H43.3953H75.8567C78.2144 5.87272 79.137 6.7946 79.1498 9.15905C79.1498 9.82485 79.1498 10.4906 79.1498 11.1565C79.1498 12.4368 79.1157 13.7727 79.1926 15.0787C79.2534 15.43 79.1753 15.7911 78.9747 16.0859C78.8039 16.2652 78.4707 16.3292 77.8556 16.3335C69.0141 16.2993 60.0232 16.3036 51.327 16.3079H36.0573C27.6002 16.3079 18.8527 16.3079 10.2505 16.3378C9.59268 16.3378 9.12286 16.2908 8.8794 16.0305C8.63594 15.7701 8.61458 15.4458 8.66156 14.8482C8.76834 13.6575 8.75127 12.4496 8.72992 11.2845ZM73.6955 122.294C73.7211 123.792 73.751 125.346 73.7339 126.865C73.6613 132.588 73.6656 138.628 73.7339 145.875C73.7907 146.258 73.6991 146.649 73.4776 146.967C73.294 147.151 72.9693 147.228 72.3286 147.228C49.6911 147.185 32.2431 147.189 15.7433 147.228C15.2916 147.288 14.8339 147.175 14.4619 146.912C14.2013 146.651 14.1544 146.169 14.1544 145.52C14.18 140.826 14.18 136.088 14.1544 131.492C14.1287 126.895 14.1544 122.209 14.1544 117.57C14.1544 114.048 13.6205 110.553 13.0908 107.169C12.8901 105.888 12.6637 104.608 12.51 103.306C11.7753 97.8046 10.9723 92.2093 10.1992 86.8146C9.70089 83.3206 9.20543 79.8237 8.71282 76.324C8.64008 75.6737 8.61864 75.0186 8.64874 74.365C8.64874 74.126 8.64874 73.8827 8.64874 73.6394C8.64874 70.74 8.64874 67.8421 8.64874 64.9456C8.64874 56.8023 8.64876 48.3816 8.61459 40.1018C8.61459 39.4658 8.69575 39.1116 8.8965 38.911C9.09725 38.7104 9.44321 38.6293 10.0625 38.6293H10.0967C18.7929 38.6677 27.6387 38.6635 36.1897 38.6592H51.5406C60.1172 38.6592 68.9843 38.6592 77.7062 38.6336C78.3255 38.6336 78.6757 38.7061 78.8594 38.8897C79.0792 39.2039 79.1709 39.5901 79.1157 39.9695C79.1157 44.2374 79.1157 48.6035 79.1157 52.8118C79.1157 60.2764 79.1499 67.9929 79.0004 75.5813C78.9406 78.6116 78.428 81.6931 77.9283 84.6721C77.719 85.9269 77.5011 87.2329 77.326 88.5133C76.6939 92.9946 76.0561 97.4746 75.4125 101.953C74.9313 105.308 74.4515 108.662 73.9731 112.017C73.5631 115.436 73.6271 118.944 73.6955 122.294V122.294ZM14.1885 153.659C14.2654 153.181 14.4448 153.075 14.7224 153.075C14.8368 153.077 14.951 153.087 15.0641 153.105C15.1859 153.122 15.3085 153.132 15.4315 153.134C20.2622 153.113 25.1742 153.134 29.9238 153.134H50.7845C57.8278 153.134 65.106 153.134 72.2646 153.1C72.9395 153.1 73.3025 153.177 73.4947 153.373C73.6869 153.57 73.7553 153.92 73.7296 154.517C73.6186 157.313 72.7985 158.124 70.0649 158.124H17.8618C16.3541 158.124 15.3289 157.778 14.7224 157.065C14.1159 156.353 13.928 155.221 14.1885 153.659V153.659ZM7.56388 32.667C6.88048 32.667 6.45758 32.5688 6.23975 32.3469C6.02192 32.125 5.94931 31.728 5.97921 31.0238C6.08599 28.5911 6.08599 26.0644 5.97921 23.5037C5.91649 23.1496 5.99466 22.7851 6.19705 22.4879C6.3679 22.3129 6.67546 22.2361 7.24354 22.2361H7.31184C11.3567 22.2745 15.4656 22.266 19.4422 22.2617H80.0254C80.9523 22.2617 81.4649 22.2617 81.6613 22.4623C81.8578 22.6629 81.8578 23.1878 81.8578 24.1481C81.8578 24.8523 81.8578 25.5608 81.8578 26.2821C81.8578 27.8954 81.8279 29.5599 81.8963 31.1988C81.9262 31.8177 81.8493 32.1804 81.6571 32.3853C81.4649 32.5902 81.0847 32.6712 80.4483 32.6755C71.0259 32.6328 61.4413 32.6371 52.1812 32.6414H35.3568C26.2377 32.62 16.8239 32.6115 7.56388 32.667V32.667Z" fill="white"/>
</svg>
