<svg width="292" height="269" viewBox="0 0 292 269" fill="none" xmlns="http://www.w3.org/2000/svg">
<path d="M190.504 248.832C190.505 248.029 190.304 247.239 189.92 246.535C189.535 245.83 188.979 245.233 188.304 244.8C187.628 244.366 186.855 244.11 186.054 244.053C185.253 243.997 184.451 244.144 183.722 244.479C165.48 252.771 145.581 257.099 124.264 257.629C80.1782 256.75 43.9944 240.839 14.7588 209.257C12.7605 207.101 12.5864 205.169 13.4819 202.541C25.521 167.164 48.9167 142.652 83.6689 129.004C84.7918 128.49 86.0188 128.244 87.2532 128.284C88.4876 128.324 89.6959 128.65 90.7829 129.236C112.623 140.563 134.47 140.38 156.285 129.071C157.252 128.554 158.327 128.268 159.423 128.236C160.519 128.205 161.608 128.428 162.603 128.888C170.01 131.724 177.142 135.229 183.912 139.36C184.575 139.765 185.333 139.985 186.109 139.998C186.885 140.012 187.65 139.818 188.326 139.437C189.002 139.056 189.564 138.501 189.954 137.83C190.344 137.16 190.548 136.397 190.545 135.621V132.304C190.547 131.558 190.358 130.824 189.995 130.173C189.632 129.521 189.108 128.973 188.473 128.581C182.711 125.108 176.719 122.033 170.538 119.378C173.689 115.481 176.906 112.048 179.501 108.193C194.036 86.5853 196.805 63.56 185.637 39.888C174.394 16.0584 155.166 2.57653 128.708 0.279808C79.0091 -4.03174 48.281 42.3423 55.1961 80.1512C57.7581 94.0808 64.2503 106.128 74.0093 116.36C76.049 118.491 76.4968 119.444 73.3129 120.846C65.8635 124.118 58.7188 128.044 51.9624 132.578C33.2459 145.197 18.8962 162.013 8.91329 183.023C5.00574 191.665 2.0182 200.695 0 209.962C14.088 227.63 31.8294 242.044 52.0083 252.215C72.1872 262.386 94.3266 268.074 116.909 268.889C142.803 269.818 166.658 264.884 187.635 255.498C188.486 255.121 189.21 254.505 189.719 253.725C190.228 252.946 190.501 252.035 190.504 251.104V248.832ZM66.0661 68.7919C66.0396 53.6246 72.0293 39.0659 82.7215 28.3084C93.4137 17.5509 107.936 11.4727 123.103 11.4069C155.083 11.2991 180.43 36.6294 180.455 68.7173C180.455 100.54 155.307 125.638 123.327 125.696C91.3467 125.754 66.0993 100.614 66.0661 68.7919Z" fill="black"/>
<path d="M227.958 255.946C223.536 255.946 221.341 253.752 221.375 249.363V198.221H171.245C166.85 198.221 164.656 196.112 164.661 191.895C164.667 187.677 166.861 185.568 171.245 185.568H221.375V135.944C221.375 131.561 223.569 129.366 227.958 129.361C232.347 129.355 234.539 131.55 234.533 135.944V185.568H284.663C289.046 185.568 291.241 187.677 291.246 191.895C291.252 196.112 289.058 198.221 284.663 198.221H234.525V249.363C234.525 253.752 232.336 255.946 227.958 255.946Z" fill="black"/>
</svg>
