<svg width="300" height="269" viewBox="0 0 300 269" fill="none" xmlns="http://www.w3.org/2000/svg">
<path d="M190.985 248.832C190.986 248.029 190.785 247.239 190.401 246.535C190.017 245.83 189.461 245.233 188.785 244.8C188.11 244.366 187.336 244.11 186.535 244.053C185.734 243.997 184.932 244.144 184.203 244.479C165.962 252.771 146.062 257.099 124.745 257.629C80.6596 256.75 44.4758 240.839 15.2402 209.257C13.242 207.101 13.0678 205.169 13.9633 202.541C26.0025 167.164 49.3981 142.652 84.1503 129.004C85.2733 128.49 86.5002 128.244 87.7346 128.284C88.9691 128.324 90.1773 128.65 91.2644 129.236C113.104 140.563 134.952 140.38 156.767 129.071C157.734 128.554 158.808 128.268 159.904 128.236C161.001 128.205 162.089 128.428 163.085 128.888C170.491 131.724 177.624 135.229 184.394 139.36C185.056 139.765 185.814 139.985 186.59 139.998C187.366 140.012 188.131 139.818 188.807 139.437C189.483 139.056 190.045 138.501 190.436 137.83C190.826 137.16 191.03 136.397 191.027 135.621V132.304C191.029 131.558 190.839 130.824 190.476 130.173C190.113 129.521 189.589 128.973 188.954 128.581C183.193 125.108 177.201 122.033 171.02 119.378C174.17 115.481 177.387 112.048 179.983 108.193C194.518 86.5853 197.287 63.56 186.118 39.888C174.875 16.0584 155.647 2.57653 129.189 0.279808C79.4905 -4.03174 48.7625 42.3423 55.6775 80.1512C58.2396 94.0808 64.7318 106.128 74.4908 116.36C76.5305 118.491 76.9782 119.444 73.7943 120.846C66.345 124.118 59.2002 128.044 52.4439 132.578C33.7273 145.197 19.3776 162.013 9.39474 183.023C5.48718 191.665 2.49965 200.695 0.481445 209.962C14.5694 227.63 32.3108 242.044 52.4897 252.215C72.6687 262.386 94.8081 268.074 117.391 268.889C143.285 269.818 167.139 264.884 188.117 255.498C188.968 255.121 189.692 254.505 190.201 253.725C190.71 252.946 190.982 252.035 190.985 251.104V248.832ZM66.5476 68.7919C66.5211 53.6246 72.5107 39.0659 83.2029 28.3084C93.8952 17.5509 108.417 11.4727 123.584 11.4069C155.564 11.2991 180.911 36.6294 180.936 68.7173C180.936 100.54 155.788 125.638 123.808 125.696C91.8282 125.754 66.5807 100.614 66.5476 68.7919Z" fill="black"/>
<path d="M135.354 163.101C136.43 160.245 138.02 157.858 141.145 156.979C143.888 156.197 146.426 156.62 148.683 158.411C149.258 158.889 149.807 159.4 150.326 159.939C162.232 171.886 174.128 183.85 186.013 195.829C186.949 196.777 187.374 196.769 188.31 195.829C220.439 163.515 252.588 131.223 284.757 98.9539C288.063 95.635 291.625 94.9213 295.179 96.7964C296.221 97.3459 297.132 98.1152 297.85 99.0515C298.568 99.9877 299.076 101.069 299.339 102.221C299.602 103.373 299.614 104.568 299.373 105.725C299.133 106.881 298.646 107.972 297.946 108.922C297.458 109.564 296.921 110.166 296.34 110.725C262.149 145.067 227.957 179.403 193.764 213.734C189.483 218.029 184.852 218.049 180.591 213.774C166.532 199.663 152.476 185.549 138.422 171.432C137.109 170.046 136.068 168.423 135.354 166.649V163.101Z" fill="black"/>
</svg>
