<svg width="173" height="178" viewBox="0 0 173 178" fill="none" xmlns="http://www.w3.org/2000/svg">
<path d="M50.4367 44.4739C48.9364 49.6963 43.4627 52.7269 38.2402 51.2267C33.0178 49.7264 29.9872 44.2527 31.4874 39.0303C32.9877 33.8078 38.4614 30.7772 43.6838 32.2774C48.9063 33.7777 51.9369 39.2514 50.4367 44.4739ZM35.2773 40.119C34.3769 43.2532 36.1948 46.5365 39.329 47.4368C42.4632 48.3372 45.7465 46.5193 46.6468 43.3851C47.5472 40.2509 45.7293 36.9677 42.5951 36.0673C39.4609 35.1669 36.1776 36.9848 35.2773 40.119Z" fill="#1D1D1B"/>
<path d="M66.4636 45.8088L64.727 51.8536C64.1653 53.8091 62.2326 55.0099 60.2291 54.6435L55.2739 53.7411C54.4324 54.7424 53.4811 55.6548 52.4259 56.4717L53.1515 61.472C53.452 63.4824 52.1737 65.3757 50.1998 65.8631L44.0983 67.3801C42.1234 67.8712 40.1187 66.7948 39.4331 64.8829L37.7489 60.1775C37.1397 60.0846 36.4726 59.9504 35.7904 59.7544C35.1082 59.5584 34.4678 59.317 33.906 59.0735L29.9812 62.1676C28.3854 63.4241 26.1151 63.2724 24.7019 61.808L20.3358 57.284C18.9226 55.8195 18.8484 53.55 20.1647 51.9958L23.4336 48.143C22.9728 46.8906 22.6508 45.6124 22.469 44.3171L17.7904 42.4521C15.9017 41.7003 14.901 39.6569 15.4628 37.7013L17.1993 31.6565C17.7611 29.7009 19.6937 28.5002 21.6972 28.8665L26.6524 29.769C27.495 28.7638 28.4501 27.8526 29.5004 27.0384L28.7748 22.0381C28.4879 20.0234 29.7564 18.1354 31.7265 17.647L37.828 16.13C39.803 15.6389 41.8076 16.7153 42.4933 18.6272L44.1775 23.3326C44.7867 23.4255 45.4538 23.5597 46.1359 23.7557C46.8181 23.9517 47.4585 24.1931 48.0204 24.4365L51.9452 21.3424C53.541 20.086 55.8113 20.2376 57.2245 21.7021L61.5878 26.2212C62.9972 27.6846 63.0801 29.9525 61.759 31.5094L58.4901 35.3622C58.9508 36.6146 59.2729 37.8928 59.4546 39.1881L64.136 41.058C66.0246 41.8098 67.0253 43.8532 66.4636 45.8088ZM48.4091 55.0306C48.5343 54.5947 48.81 54.2062 49.202 53.9414C50.6474 52.9658 51.878 51.7809 52.8658 50.4277C53.3119 49.8174 54.0679 49.5135 54.8124 49.6495L60.9383 50.7611L62.6748 44.7163L56.8919 42.4109C56.1887 42.1309 55.7092 41.4721 55.6551 40.7181C55.5361 39.047 55.1182 37.3885 54.4148 35.7956C54.1097 35.1008 54.2257 34.2972 54.7146 33.7238L58.7577 28.9611L54.3916 24.437L49.5211 28.281C48.9268 28.7503 48.1153 28.8331 47.4339 28.506C46.6745 28.1361 45.8924 27.7883 45.051 27.5466C44.2097 27.3049 43.3622 27.1846 42.5222 27.0951C41.77 27.0144 41.1311 26.5108 40.8727 25.7966L38.785 19.9537L32.6835 21.4707L33.5786 27.652C33.6874 28.4012 33.3592 29.1438 32.7319 29.5708C31.2876 30.5426 30.0581 31.7238 29.0682 33.0845C28.6221 33.6949 27.8661 33.9987 27.1215 33.8628L20.9854 32.7441L19.2488 38.7889L25.0318 41.0943C25.7349 41.3743 26.2144 42.033 26.2686 42.7871C26.3875 44.4582 26.8054 46.1167 27.5089 47.7096C27.815 48.4006 27.7028 49.2053 27.2091 49.7814L23.166 54.5441L27.5321 59.0682L32.4025 55.2242C32.9968 54.7549 33.8083 54.6721 34.4898 54.9992C35.2491 55.3691 36.0313 55.7169 36.8726 55.9586C37.714 56.2003 38.5615 56.3206 39.4014 56.4101C40.1536 56.4908 40.7926 56.9944 41.051 57.7086L43.1387 63.5515L49.2402 62.0345L48.3451 55.8532C48.3108 55.5726 48.3329 55.2959 48.4091 55.0306Z" fill="#1D1D1B"/>
<path d="M98.2423 22.0976C97.2421 25.5792 93.5929 27.5996 90.1113 26.5994C86.6297 25.5993 84.6093 21.9501 85.6095 18.4685C86.6096 14.9869 90.2588 12.9664 93.7404 13.9666C97.222 14.9668 99.2425 18.616 98.2423 22.0976ZM88.136 19.1943C87.5358 21.2838 88.7477 23.4726 90.8372 24.0729C92.9266 24.6731 95.1155 23.4612 95.7157 21.3717C96.316 19.2823 95.1041 17.0934 93.0146 16.4932C90.9251 15.8929 88.7363 17.1048 88.136 19.1943Z" fill="#1D1D1B"/>
<path d="M108.927 22.9871L107.769 27.017C107.395 28.3207 106.106 29.1212 104.771 28.8769L101.467 28.2753C100.906 28.9429 100.272 29.5511 99.5684 30.0957L100.052 33.4292C100.252 34.7695 99.4003 36.0317 98.0844 36.3566L94.0167 37.368C92.7001 37.6954 91.3637 36.9778 90.9066 35.7032L89.7838 32.5663C89.3776 32.5043 88.9329 32.4148 88.4781 32.2842C88.0233 32.1535 87.5964 31.9926 87.2218 31.8303L84.6053 33.893C83.5414 34.7306 82.0279 34.6295 81.0858 33.6532L78.175 30.6372C77.2329 29.6609 77.1835 28.1479 78.061 27.1118L80.2402 24.5432C79.933 23.7083 79.7183 22.8562 79.5972 21.9927L76.4781 20.7493C75.219 20.2481 74.5518 18.8858 74.9264 17.5821L76.084 13.5522C76.4586 12.2485 77.747 11.4481 79.0827 11.6923L82.3861 12.2939C82.9478 11.6238 83.5846 11.0163 84.2848 10.4735L83.801 7.13998C83.6098 5.79682 84.4555 4.5382 85.7688 4.21258L89.8365 3.20126C91.1531 2.87384 92.4896 3.59144 92.9467 4.86602L94.0695 8.00295C94.4756 8.06492 94.9203 8.15439 95.3751 8.28504C95.8299 8.41568 96.2568 8.57662 96.6314 8.73893L99.2479 6.6762C100.312 5.83856 101.825 5.93968 102.767 6.91597L105.676 9.92874C106.616 10.9043 106.671 12.4163 105.79 13.4542L103.611 16.0227C103.918 16.8576 104.133 17.7098 104.254 18.5733L107.375 19.8199C108.634 20.3211 109.301 21.6834 108.927 22.9871ZM96.8906 29.135C96.974 28.8444 97.1578 28.5854 97.4192 28.4089C98.3828 27.7585 99.2032 26.9685 99.8617 26.0664C100.159 25.6595 100.663 25.4569 101.159 25.5476L105.243 26.2886L106.401 22.2587L102.546 20.7218C102.077 20.5352 101.757 20.096 101.721 19.5933C101.642 18.4793 101.363 17.3736 100.894 16.3117C100.691 15.8484 100.768 15.3127 101.094 14.9304L103.79 11.7553L100.879 8.73927L97.6319 11.3019C97.2357 11.6148 96.6947 11.67 96.2404 11.4519C95.7342 11.2053 95.2127 10.9735 94.6518 10.8123C94.0909 10.6512 93.526 10.571 92.966 10.5113C92.4645 10.4575 92.0386 10.1218 91.8663 9.64562L90.4745 5.75037L86.4068 6.7617L87.0036 10.8826C87.0761 11.3821 86.8573 11.8771 86.4391 12.1618C85.4763 12.8097 84.6565 13.5971 83.9966 14.5043C83.6992 14.9112 83.1952 15.1137 82.6988 15.0231L78.6081 14.2773L77.4504 18.3072L81.3057 19.8441C81.7745 20.0308 82.0941 20.4699 82.1302 20.9726C82.2095 22.0867 82.4881 23.1924 82.9571 24.2543C83.1612 24.715 83.0864 25.2515 82.7572 25.6355L80.0618 28.8107L82.9725 31.8267L86.2195 29.264C86.6157 28.9512 87.1567 28.896 87.611 29.114C88.1173 29.3606 88.6387 29.5925 89.1996 29.7536C89.7605 29.9148 90.3255 29.995 90.8854 30.0547C91.3869 30.1085 91.8129 30.4442 91.9851 30.9203L93.3769 34.8156L97.4446 33.8043L96.8479 29.6834C96.825 29.4963 96.8398 29.3118 96.8906 29.135Z" fill="#1D1D1B"/>
<path d="M172.868 108.432C167.646 108.432 162.424 108.383 157.206 108.432C156.029 108.432 155.533 108.243 155.542 106.899C155.542 102.529 155.502 102.488 159.926 102.543C164.237 102.588 168.557 102.322 172.868 102.691V108.432Z" fill="black"/>
<path d="M47.4628 130.457C49.1134 137.051 50.6467 143.184 52.18 149.322C52.5047 150.625 52.8745 151.924 53.1361 153.241C53.8035 156.578 54.9986 159.45 57.6007 161.976C61.3302 165.584 59.3144 172.019 54.2184 173.151C46.8856 174.783 39.4851 176.091 32.0982 177.48C30.4838 177.782 29.2075 176.709 28.7656 174.838C26.7242 166.167 24.6873 157.492 22.6549 148.812C21.1126 142.264 19.5297 135.734 18.0234 129.172C17.9826 128.792 17.8221 128.435 17.5652 128.152C17.3082 127.869 16.9681 127.675 16.5938 127.598C5.74798 124.175 -0.755031 114.552 0.0702465 103.277C0.886505 92.0798 10.9251 82.5823 22.1678 82.4425C28.4814 82.3659 34.7951 82.4065 41.0726 82.42C42.0794 82.425 43.0773 82.2303 44.0084 81.8473C65.3003 73.3209 86.6192 64.8201 107.965 56.3448C109.566 55.7089 109.44 54.7213 109.462 53.4947C109.571 47.5148 113.832 42.9239 120.015 42.0851C125.197 41.3816 130.586 45.1156 132.137 50.4912C132.504 51.8475 132.677 53.2489 132.651 54.6537C132.651 65.5131 132.651 76.3725 132.611 87.2273C132.611 88.6118 133.039 89.162 134.324 89.5634C138.658 90.9163 142.952 92.4 147.249 93.8566C149.333 94.5601 149.901 95.3719 149.906 97.5816C149.906 102.813 149.906 108.044 149.906 113.275C149.906 115.575 149.324 116.405 147.164 117.131C142.861 118.574 138.568 120.045 134.234 121.393C132.999 121.776 132.606 122.326 132.615 123.621C132.669 134.645 132.669 145.673 132.615 156.704C132.615 162.621 129.084 167.243 123.731 168.519C122.048 168.935 120.293 168.965 118.597 168.606C116.901 168.247 115.308 167.509 113.938 166.447C112.568 165.385 111.456 164.026 110.686 162.473C109.915 160.92 109.506 159.213 109.489 157.48C109.489 155.721 108.926 154.972 107.343 154.323C88.0503 146.674 68.7728 138.985 49.5103 131.256L47.4628 130.457ZM109.363 148.902C109.395 148.32 109.426 147.933 109.426 147.549C109.426 119.589 109.438 91.6288 109.462 63.6686C109.462 62.0586 109.011 62.1172 107.762 62.6133C87.7301 70.6647 67.6874 78.6875 47.6342 86.6817C46.5789 87.1011 46.2272 87.5836 46.2317 88.7336C46.2828 99.8155 46.2828 110.897 46.2317 121.979C46.2317 123.332 46.6827 123.891 47.9183 124.383C65.0101 131.174 82.0884 138.001 99.1532 144.861C102.517 146.201 105.895 147.527 109.363 148.902ZM126.694 105.383C126.694 88.5081 126.694 71.6327 126.694 54.7574C126.694 53.8104 126.775 52.8498 126.478 51.9163C125.621 49.2104 123.136 47.6636 120.164 47.9793C118.899 48.1405 117.731 48.7376 116.859 49.6678C115.987 50.5979 115.467 51.8029 115.388 53.0753C115.244 55.3707 115.307 57.6797 115.307 59.9796C115.307 90.3 115.307 120.619 115.307 150.936C115.307 153.349 115.226 155.775 115.442 158.174C115.731 161.363 118.879 163.536 121.995 162.909C125.111 162.283 126.676 160.163 126.68 156.681C126.693 139.581 126.697 122.481 126.694 105.383ZM40.2248 105.383C40.2248 100.152 40.1932 94.9209 40.2248 89.6896C40.2248 88.5532 39.9902 88.1473 38.7636 88.1654C33.7037 88.233 28.6393 88.1654 23.5794 88.2014C12.3547 88.2781 4.59349 97.2209 6.07268 108.355C7.06481 115.819 14.3931 122.525 21.789 122.62C27.4668 122.692 33.149 122.62 38.8267 122.665C39.9542 122.665 40.2338 122.326 40.2248 121.244C40.1932 115.936 40.2248 110.651 40.2248 105.365V105.383ZM32.5582 128.676C30.0869 128.676 27.5975 128.708 25.1397 128.676C24.1431 128.676 23.9447 128.884 24.1927 129.921C27.3736 143.27 30.5153 156.624 33.618 169.985C33.8345 170.887 34.0194 171.252 35.1288 171.018C40.4998 169.899 45.907 168.93 51.2916 167.861C52.0718 167.708 53.0955 167.861 53.4337 166.842C53.7719 165.823 52.852 165.358 52.3018 164.772C50.7324 163.121 49.145 161.669 48.5542 159.18C46.2993 149.416 43.7108 139.725 41.3387 129.993C41.0816 128.947 40.6847 128.64 39.6565 128.663C37.2844 128.703 34.9078 128.658 32.5627 128.658L32.5582 128.676ZM132.674 105.411C132.674 108.446 132.705 111.476 132.674 114.511C132.674 115.557 132.94 115.751 133.928 115.413C136.886 114.38 139.867 113.411 142.861 112.468C143.763 112.189 144.061 111.72 144.047 110.773C143.993 107.237 143.993 103.697 144.047 100.152C144.047 99.1781 143.673 98.7993 142.789 98.5106C139.795 97.5771 136.809 96.612 133.86 95.5478C132.737 95.1419 132.669 95.5748 132.683 96.4858C132.696 99.4351 132.678 102.412 132.678 105.392L132.674 105.411Z" fill="black"/>
<path d="M171.362 73.1345C171.286 73.6441 170.875 73.7794 170.55 73.9688C166.374 76.4852 162.18 78.9701 158.013 81.509C157.283 81.96 156.891 81.96 156.471 81.1392C155.777 79.7863 154.257 78.4334 154.41 77.2338C154.573 75.9621 156.697 75.5246 157.964 74.7354C161.121 72.7827 164.318 70.9382 167.461 68.99C168.282 68.4805 168.697 68.5391 169.152 69.4049C169.838 70.6902 170.65 71.9169 171.362 73.1345Z" fill="black"/>
<path d="M157.355 129.055C157.594 129.181 157.847 129.299 158.086 129.438C162.217 131.923 166.334 134.435 170.492 136.866C171.394 137.407 171.48 137.826 170.898 138.67C170.063 139.856 169.581 141.777 168.503 142.178C167.425 142.58 166.027 141.015 164.787 140.289C161.594 138.417 158.474 136.455 155.245 134.606C154.288 134.056 154.104 133.587 154.771 132.672C155.438 131.756 155.93 130.755 156.525 129.804C156.719 129.479 156.832 129.037 157.355 129.055Z" fill="black"/>
<path d="M28.7611 99.5299C28.7611 98.0147 28.7927 96.4994 28.7611 94.9887C28.7386 94.204 28.9956 93.8206 29.8119 93.9199C29.8673 93.9266 29.9233 93.9266 29.9787 93.9199C34.6869 93.7214 34.6869 93.7214 34.6869 98.407C34.6869 100.369 34.6553 102.33 34.6869 104.292C34.6869 105.145 34.4163 105.438 33.5324 105.492C28.7611 105.767 28.7611 105.789 28.7611 101.045V99.5299Z" fill="black"/>
<path d="M23.1016 99.8185C23.1016 100.324 23.1376 100.833 23.1016 101.334C22.9888 102.66 23.7374 104.527 22.7859 105.185C21.5367 106.046 19.6291 105.392 18.0236 105.46C17.4283 105.483 17.2705 105.144 17.2705 104.608C17.2705 101.352 17.2705 98.0912 17.2705 94.8352C17.2705 94.0505 17.6313 93.8972 18.2987 93.9333C19.5344 93.9603 20.7746 93.9919 22.0057 93.9333C22.9392 93.8837 23.1467 94.3031 23.1241 95.1284C23.07 96.6707 23.1016 98.2446 23.1016 99.8185Z" fill="black"/>
</svg>
