<svg width="171" height="167" viewBox="0 0 171 167" fill="none" xmlns="http://www.w3.org/2000/svg">
<path d="M115.561 60.788C105.842 48.7024 93.5854 41.0977 79.1356 38.1804C53.6234 33.0328 32.0028 40.475 14.8728 60.2972C6.90343 69.5163 2.05411 80.7422 0.456846 93.6603C0.406086 94.0563 0.385775 94.4624 0.365471 94.855C0.368903 95.659 0.245568 96.4585 0 97.224V106.152L0.233499 107.824C0.402701 109.015 0.571899 110.193 0.747868 111.394C1.93961 119.429 4.66102 127.161 8.76464 134.171C14.548 144.07 22.3617 151.949 31.9825 157.598C39.6714 162.139 48.2129 165.049 57.0751 166.147C57.4744 166.194 57.8805 166.211 58.273 166.228C59.0784 166.212 59.8802 166.338 60.6419 166.6H60.7062H69.3388L71.0309 166.37C72.2931 166.197 73.5587 166.032 74.821 165.845C84.2943 164.441 93.3311 160.926 101.264 155.56C111 149.066 118.58 140.233 123.795 129.335C127.152 122.356 129.181 114.814 129.781 107.093C131.118 89.7581 126.329 74.1765 115.561 60.788ZM48.3951 67.5567C50.564 65.3881 53.1394 63.6686 55.9737 62.4967C58.8079 61.3247 61.8455 60.7234 64.9125 60.7271H65.1325C78.276 60.8489 88.5669 71.2186 88.5601 84.3093C88.5727 87.389 87.974 90.4405 86.7989 93.2871C85.6238 96.1337 83.8955 98.7189 81.7142 100.893C79.5174 103.085 76.9084 104.821 74.0374 106C71.1665 107.18 68.0905 107.779 64.987 107.763H64.9362C51.7622 107.736 41.4409 97.3696 41.4409 84.1638C41.4371 81.0727 42.0503 78.012 43.2445 75.1609C44.4386 72.3098 46.1896 69.7257 48.3951 67.5601V67.5567ZM19.58 140.084C24.4361 124.976 34.4258 114.467 49.2715 108.846C49.5911 108.709 49.939 108.651 50.2858 108.676C50.6327 108.701 50.9684 108.809 51.2647 108.991C60.3745 113.804 69.6197 113.804 78.7431 108.991C79.0173 108.814 79.3295 108.705 79.6543 108.672C79.979 108.639 80.3069 108.684 80.611 108.802C95.5008 114.373 105.538 124.891 110.431 140.07C110.537 140.324 110.563 140.604 110.505 140.873C110.448 141.142 110.31 141.387 110.11 141.576C100.563 152.193 88.5804 158.786 74.4927 161.168C71.175 161.673 67.825 161.936 64.4692 161.957C46.7741 161.554 31.7794 154.684 19.9015 141.586C19.696 141.402 19.5542 141.157 19.4965 140.887C19.4387 140.617 19.468 140.336 19.58 140.084ZM84.9358 104.321C85.5517 103.644 86.1304 103.015 86.6888 102.341C91.2572 96.8551 93.4568 90.3707 93.2707 83.0503C92.9763 72.4031 85.5483 61.9014 75.606 58.0839C68.5639 55.3764 61.0344 55.3527 54.3983 58.0094C47.7622 60.6661 42.3579 65.9119 39.2751 72.7415C34.7337 82.8168 35.952 92.601 42.8994 101.823C43.5897 102.742 44.3634 103.595 45.2107 104.372C45.3359 104.487 45.7183 104.839 45.6844 105.028C45.6506 105.218 45.1667 105.418 45.0076 105.482C39.8285 107.603 35.0414 110.577 30.8455 114.281C24.261 119.992 19.2235 127.272 16.1994 135.447L16.1621 135.549C16.0742 135.785 15.9862 136.026 15.888 136.253C15.8667 136.274 15.8429 136.294 15.817 136.31C-2.08118 111.465 1.79693 77.2224 24.876 56.6151C36.4833 46.2488 50.7943 41.1316 65.0513 41.1316C81.166 41.1316 97.1996 47.6736 109.169 60.5714C131.317 84.4548 128.275 117.303 114.164 136.242C108.685 121.69 98.6175 111.198 84.2353 105.089L84.9358 104.321Z" fill="#1D1D1B"/>
<path d="M162.553 9.01936C159.74 6.16438 156.388 3.89685 152.691 2.34851C148.994 0.800166 145.026 0.00187081 141.018 3.28426e-06C137.01 -0.00186424 133.042 0.79273 129.343 2.33763C125.645 3.88253 122.291 6.14693 119.475 8.99929C113.908 14.6396 110.899 22.0498 111.003 29.8634C111.118 38.5783 114.163 46.1036 119.809 51.638C125.248 56.9644 132.75 59.9095 140.934 59.9333H141.029C149.134 59.9333 156.597 57.041 162.042 51.7876C167.763 46.2696 170.86 38.7097 170.996 29.9272C171.119 22.1009 168.119 14.6761 162.553 9.01936ZM167.688 30.2502C167.735 33.6775 167.1 37.0799 165.818 40.2589C164.536 43.4378 162.634 46.3297 160.223 48.7658C155.149 53.9226 148.309 56.7819 140.972 56.8184C133.606 56.7491 126.765 53.8569 121.708 48.6764C119.309 46.2383 117.419 43.3466 116.149 40.1701C114.879 36.9935 114.255 33.5958 114.313 30.1754C114.552 14.4461 125.518 3.46302 140.979 3.46302H141.071C156.574 3.50682 167.522 14.5228 167.688 30.2502Z" fill="#1D1D1B"/>
<path d="M154.627 25.1317H153.406C151.112 25.1317 148.51 25.1208 146.012 25.1481H145.91C145.91 25.1153 145.91 25.0715 145.91 25.0149C145.932 22.5132 145.926 19.9695 145.923 17.5006V16.4751C145.923 13.6285 143.811 11.479 141.016 11.4753C138.22 11.4717 136.089 13.6103 136.089 16.4405C136.089 17.382 136.089 18.323 136.089 19.2633V20.5407C136.089 20.919 136.089 21.2979 136.089 21.6775V21.8161C136.089 22.8781 136.089 23.9748 136.104 25.0587C136.106 25.0879 136.106 25.1171 136.104 25.1463H136.027C133.618 25.1226 131.171 25.1281 128.805 25.1317H127.418C124.577 25.1317 122.435 27.2502 122.435 30.0476C122.435 32.8449 124.575 34.9598 127.416 34.9744H128.704C131.104 34.9744 133.586 34.9744 136.023 34.9598H136.104C136.104 34.9853 136.104 35.0163 136.104 35.0546C136.084 37.6403 136.089 40.2643 136.104 42.8025V43.6638C136.096 44.0221 136.129 44.3801 136.2 44.7312C136.733 47.0724 138.675 48.6471 141.032 48.6471C141.236 48.6473 141.439 48.6357 141.642 48.6125C144.085 48.3406 145.93 46.1965 145.934 43.6291V42.3992C145.934 40.0033 145.934 37.5253 145.921 35.0875C145.921 35.0327 145.921 34.9908 145.921 34.9579H146.03C148.585 34.9835 151.242 34.978 153.581 34.9725H154.639C157.408 34.9725 159.581 32.8212 159.588 30.0895C159.598 29.4366 159.477 28.7882 159.232 28.1829C158.987 27.5776 158.623 27.0277 158.161 26.5659C157.699 26.1041 157.15 25.7399 156.544 25.4947C155.939 25.2496 155.291 25.1286 154.638 25.139L154.627 25.1317ZM142.64 36.7954C142.64 39.0326 142.64 41.2691 142.64 43.505C142.64 44.3298 142.333 44.8553 141.678 45.1637C141.41 45.3014 141.108 45.3561 140.809 45.3206C140.509 45.2852 140.228 45.1613 140 44.9648C139.558 44.6327 139.363 44.1546 139.363 43.4174C139.363 40.5307 139.363 37.6446 139.363 34.759V33.6532C139.363 32.281 138.771 31.6953 137.386 31.6953H133.934C131.808 31.6953 129.682 31.6953 127.557 31.6953C126.71 31.6953 126.06 31.2884 125.819 30.6132C125.728 30.3745 125.695 30.1171 125.724 29.863C125.753 29.6089 125.843 29.3655 125.986 29.1534C126.158 28.9208 126.384 28.7331 126.645 28.6061C126.905 28.479 127.192 28.4164 127.482 28.4235C128.673 28.4089 129.874 28.4126 131.036 28.4235H132.595H137.443C138.77 28.4235 139.361 27.8214 139.361 26.4747C139.361 25.5015 139.361 24.5283 139.361 23.5551V22.9712C139.361 20.8399 139.361 18.7074 139.361 16.5737C139.361 15.758 139.673 15.2361 140.337 14.9314C140.967 14.6431 141.54 14.7362 142.087 15.2179C142.467 15.55 142.634 16.0244 142.634 16.7124C142.627 19.1685 142.627 21.6252 142.634 24.0825V26.3944C142.634 27.8433 143.193 28.4016 144.623 28.4016H148.027C150.166 28.4016 152.309 28.4016 154.453 28.4016C155.253 28.4016 155.771 28.6936 156.085 29.314C156.23 29.5777 156.294 29.8789 156.267 30.179C156.24 30.479 156.125 30.7643 155.935 30.9982C155.599 31.4654 155.112 31.6734 154.349 31.6734C151.774 31.6734 149.2 31.6734 146.627 31.6734H144.656C143.182 31.6734 142.634 32.2208 142.634 33.7226L142.64 36.7954Z" fill="#1D1D1B"/>
</svg>
