<svg width="167" height="167" viewBox="0 0 167 167" fill="none" xmlns="http://www.w3.org/2000/svg">
<path d="M50.4975 9.64174C50.0912 6.04958 48.3235 3.0385 45.5969 1.38871C42.8703 -0.261086 39.5707 -0.443944 36.2508 0.856386C28.7129 3.81057 21.0857 6.89886 13.7063 9.88962L8.50497 11.9986C6.33044 12.855 4.38341 14.2026 2.81602 15.9361C1.53601 17.3665 0.971179 19.0935 0.426666 20.7596C0.296633 21.1659 0.162536 21.5723 0.0203127 21.9786L0 22.0436V144.51L0.0203127 144.575C0.207235 145.087 0.349469 145.632 0.487629 146.16C0.687343 147.053 0.984401 147.921 1.37348 148.749C2.7632 151.471 5.08754 153.499 8.28148 154.779C11.0081 155.872 13.7266 156.985 16.4451 158.095C23.5644 161.004 30.9235 164.007 38.2907 166.661L38.3232 166.697C38.3536 166.733 38.3862 166.767 38.4207 166.799L38.5385 166.909H42.6955L42.789 166.856C43.2447 166.607 43.7126 166.382 44.1909 166.181C45.1831 165.793 46.1044 165.244 46.9175 164.556C50.3106 161.463 50.7169 157.441 50.7169 154.275C50.7169 111.372 50.7169 68.4695 50.7169 25.5667V14.5342C50.732 12.9006 50.6587 11.2674 50.4975 9.64174ZM44.2153 73.6708V93.2367C44.2153 113.441 44.2153 133.651 44.2153 153.869C44.2322 154.818 44.1983 155.767 44.1137 156.713C43.943 158.265 43.3335 159.403 42.3582 160.001C41.383 160.598 40.1192 160.61 38.7011 160.057C34.2881 158.363 29.8629 156.579 25.3361 154.75C21.4148 153.166 17.4407 151.532 13.5925 149.951L10.3783 148.631C7.98078 147.647 6.72107 146.014 6.57072 143.637C6.54634 143.324 6.52197 143.007 6.49353 142.69C6.43258 142.003 6.37161 141.288 6.37161 140.597C6.37161 102.542 6.37161 64.0728 6.37161 26.2575C6.37161 25.583 6.43258 24.8841 6.49353 24.2258C6.52197 23.8966 6.55041 23.5634 6.57479 23.2343C6.73327 20.9059 7.96858 19.252 10.232 18.3174C16.1363 15.8996 22.1503 13.4696 27.9652 11.1209L34.024 8.68275C35.5518 8.06103 37.1325 7.41493 38.7011 6.83791C39.3107 6.60179 39.9573 6.47523 40.6109 6.46406C41.2339 6.45264 41.8477 6.61593 42.3826 6.93543C43.3498 7.54089 43.9471 8.67462 44.1096 10.2269C44.1942 11.1821 44.2281 12.141 44.2112 13.0998C44.2139 33.2766 44.2153 53.4669 44.2153 73.6708Z" fill="black"/>
<path d="M165.146 80.27C156.512 71.6283 147.873 62.9878 139.229 54.3488C138.764 53.8592 138.252 53.4168 137.701 53.0281C137.207 52.6904 136.621 52.5135 136.023 52.5215C135.426 52.5295 134.845 52.722 134.36 53.0728C133.834 53.3991 133.42 53.8781 133.173 54.4458C132.926 55.0136 132.859 55.6432 132.979 56.2505C133.117 57.3192 133.792 58.0019 134.413 58.6033L134.556 58.7455C141.841 66.0314 148.412 72.6062 155.097 79.2623C155.41 79.5571 155.751 79.8198 156.117 80.0465L156.263 80.1441H65.3454C64.5412 80.0822 63.733 80.1887 62.9723 80.4569C62.325 80.6801 61.7732 81.1175 61.4082 81.6967C61.0432 82.276 60.8868 82.9625 60.9649 83.6428C61.0625 85.0691 61.8386 86.0077 63.2649 86.4344C64.0124 86.6206 64.7834 86.6945 65.5527 86.6538H155.926C155.592 87.0074 155.34 87.2755 155.08 87.5356L147.652 94.9841L134.771 107.865L134.608 108.032C134.165 108.439 133.771 108.895 133.434 109.393C133.014 109.98 132.821 110.699 132.891 111.418C132.961 112.136 133.29 112.804 133.816 113.298C134.288 113.852 134.951 114.208 135.673 114.296C136.395 114.385 137.124 114.2 137.717 113.778C138.231 113.424 138.705 113.015 139.131 112.559C147.8 103.89 156.478 95.2143 165.166 86.5319C167.616 84.0897 167.612 82.7407 165.146 80.27Z" fill="black"/>
<path d="M57.938 17.3299C58.4379 17.3731 58.9399 17.388 59.4415 17.3746H71.5792C79.858 17.3746 88.1354 17.3746 96.4115 17.3746C101.962 17.3746 105.144 20.5848 105.148 26.1519C105.148 39.2852 105.148 52.4239 105.148 65.5681V65.7997C105.082 66.5974 105.21 67.3991 105.522 68.1363C105.759 68.6811 106.153 69.1436 106.652 69.4654C107.152 69.7872 107.736 69.9539 108.33 69.9445C108.44 69.9445 108.557 69.9445 108.675 69.9445C109.336 69.9304 109.971 69.6866 110.472 69.255C110.972 68.8234 111.307 68.231 111.418 67.5796C111.561 66.8612 111.626 66.1297 111.613 65.3975C111.613 60.3668 111.613 55.3348 111.613 50.3015V40.7806C111.613 36.136 111.613 31.3369 111.613 26.6192C111.654 25.1305 111.517 23.6423 111.207 22.1859C109.496 15.3144 104.031 11.0355 96.9438 11.0193C87.9146 10.999 78.7351 11.0193 69.8563 11.0193H58.775C58.5039 11.011 58.2325 11.0192 57.9623 11.0437C57.1497 11.105 56.3919 11.4769 55.8464 12.0823C55.3008 12.6876 55.0093 13.4799 55.0325 14.2945C55.0492 15.0722 55.3568 15.8155 55.8947 16.3774C56.4326 16.9394 57.1617 17.2793 57.938 17.3299Z" fill="black"/>
<path d="M111.613 101.4C111.633 100.668 111.565 99.9349 111.41 99.2183C111.283 98.603 110.959 98.0459 110.487 97.6321C110.014 97.2183 109.419 96.9705 108.793 96.9265C108.148 96.8168 107.486 96.9197 106.906 97.2195C106.325 97.5193 105.858 97.9998 105.574 98.5885C105.222 99.3675 105.074 100.223 105.144 101.075V101.157C105.144 106.474 105.144 111.796 105.144 117.122V125.81C105.144 130.833 105.144 135.855 105.144 140.878C105.169 141.654 105.108 142.431 104.961 143.194C104.006 147.257 100.978 149.419 96.2079 149.423C89.2023 149.423 82.1941 149.423 75.1832 149.423H60.2131C59.4906 149.409 58.768 149.448 58.0513 149.541C57.2768 149.637 56.5695 150.029 56.0778 150.635C55.5862 151.241 55.3483 152.014 55.4141 152.792C55.5116 154.718 56.9013 155.827 59.2297 155.827H77.8448H97.0084C99.2393 155.864 101.447 155.37 103.449 154.385C108.886 151.601 111.637 146.863 111.625 140.293C111.625 132.799 111.625 125.308 111.625 117.817C111.62 112.35 111.615 106.878 111.613 101.4Z" fill="black"/>
<path d="M36.6445 71.9846C36.2158 71.9419 35.7829 71.9885 35.3731 72.1214C34.9633 72.2542 34.5854 72.4705 34.2633 72.7566C33.899 73.1222 33.6134 73.5585 33.424 74.0386C33.2347 74.5187 33.1455 75.0324 33.1621 75.5483C33.1214 77.3728 33.1296 79.2298 33.1418 81.0219C33.1418 81.7899 33.1418 82.5538 33.1418 83.3218C33.1418 84.1345 33.1418 84.9472 33.1418 85.7599C33.1418 87.6048 33.1214 89.5187 33.1702 91.396C33.223 93.4278 34.4299 94.7728 36.2463 94.8541H36.4129C37.2214 94.8738 38.0066 94.583 38.6072 94.0414C38.9382 93.7107 39.1982 93.316 39.3715 92.8815C39.5447 92.4469 39.6276 91.9816 39.615 91.5139C39.6962 86.4264 39.7003 81.1316 39.615 75.3329C39.5946 73.419 38.4284 72.1065 36.6445 71.9846Z" fill="black"/>
</svg>
