<svg width="181" height="176" viewBox="0 0 181 176" fill="none" xmlns="http://www.w3.org/2000/svg">
<g filter="url(#filter0_d_1831_885)">
<path d="M176.868 98.4322C171.646 98.4322 166.424 98.3826 161.206 98.4322C160.029 98.4322 159.533 98.2428 159.542 96.8989C159.542 92.529 159.502 92.4884 163.926 92.5425C168.237 92.5876 172.557 92.3215 176.868 92.6913V98.4322Z" fill="black"/>
<path d="M51.4628 120.457C53.1134 127.051 54.6467 133.184 56.18 139.322C56.5047 140.625 56.8745 141.924 57.1361 143.241C57.8035 146.578 58.9986 149.45 61.6007 151.976C65.3302 155.584 63.3144 162.019 58.2184 163.151C50.8856 164.783 43.4851 166.091 36.0982 167.48C34.4838 167.782 33.2075 166.709 32.7656 164.838C30.7242 156.167 28.6873 147.492 26.6549 138.812C25.1126 132.264 23.5297 125.734 22.0234 119.172C21.9826 118.792 21.8221 118.435 21.5652 118.152C21.3082 117.869 20.9681 117.675 20.5938 117.598C9.74798 114.175 3.24497 104.552 4.07025 93.2774C4.8865 82.0798 14.9251 72.5823 26.1678 72.4425C32.4814 72.3659 38.7951 72.4065 45.0726 72.42C46.0794 72.425 47.0773 72.2303 48.0084 71.8473C69.3003 63.3209 90.6192 54.8201 111.965 46.3448C113.566 45.7089 113.44 44.7213 113.462 43.4947C113.571 37.5148 117.832 32.9239 124.015 32.0851C129.197 31.3816 134.586 35.1156 136.137 40.4912C136.504 41.8475 136.677 43.2489 136.651 44.6537C136.651 55.5131 136.651 66.3725 136.611 77.2273C136.611 78.6118 137.039 79.162 138.324 79.5634C142.658 80.9163 146.952 82.4 151.249 83.8566C153.333 84.5601 153.901 85.3719 153.906 87.5816C153.906 92.8129 153.906 98.0442 153.906 103.275C153.906 105.575 153.324 106.405 151.164 107.131C146.861 108.574 142.568 110.045 138.234 111.393C136.999 111.776 136.606 112.326 136.615 113.621C136.669 124.645 136.669 135.673 136.615 146.704C136.615 152.621 133.084 157.243 127.731 158.519C126.048 158.935 124.293 158.965 122.597 158.606C120.901 158.247 119.308 157.509 117.938 156.447C116.568 155.385 115.456 154.026 114.686 152.473C113.915 150.92 113.506 149.213 113.489 147.48C113.489 145.721 112.926 144.972 111.343 144.323C92.0503 136.674 72.7728 128.985 53.5103 121.256L51.4628 120.457ZM113.363 138.902C113.395 138.32 113.426 137.933 113.426 137.549C113.426 109.589 113.438 81.6288 113.462 53.6686C113.462 52.0586 113.011 52.1172 111.762 52.6133C91.7301 60.6647 71.6874 68.6875 51.6342 76.6817C50.5789 77.1011 50.2272 77.5836 50.2317 78.7336C50.2828 89.8155 50.2828 100.897 50.2317 111.979C50.2317 113.332 50.6827 113.891 51.9183 114.383C69.0101 121.174 86.0884 128.001 103.153 134.861C106.517 136.201 109.895 137.527 113.363 138.902ZM130.694 95.3835C130.694 78.5081 130.694 61.6327 130.694 44.7574C130.694 43.8104 130.775 42.8498 130.478 41.9163C129.621 39.2104 127.136 37.6636 124.164 37.9793C122.899 38.1405 121.731 38.7376 120.859 39.6678C119.987 40.5979 119.467 41.8029 119.388 43.0753C119.244 45.3707 119.307 47.6797 119.307 49.9796C119.307 80.3 119.307 110.619 119.307 140.936C119.307 143.349 119.226 145.775 119.442 148.174C119.731 151.363 122.879 153.536 125.995 152.909C129.111 152.283 130.676 150.163 130.68 146.681C130.693 129.581 130.697 112.481 130.694 95.3835ZM44.2248 95.3835C44.2248 90.1522 44.1932 84.9209 44.2248 79.6896C44.2248 78.5532 43.9902 78.1473 42.7636 78.1654C37.7037 78.233 32.6393 78.1654 27.5794 78.2014C16.3547 78.2781 8.59349 87.2209 10.0727 98.3554C11.0648 105.819 18.3931 112.525 25.789 112.62C31.4668 112.692 37.149 112.62 42.8267 112.665C43.9542 112.665 44.2338 112.326 44.2248 111.244C44.1932 105.936 44.2248 100.651 44.2248 95.3654V95.3835ZM36.5582 118.676C34.0869 118.676 31.5975 118.708 29.1397 118.676C28.1431 118.676 27.9447 118.884 28.1927 119.921C31.3736 133.27 34.5153 146.624 37.618 159.985C37.8345 160.887 38.0194 161.252 39.1288 161.018C44.4998 159.899 49.907 158.93 55.2916 157.861C56.0718 157.708 57.0955 157.861 57.4337 156.842C57.7719 155.823 56.852 155.358 56.3018 154.772C54.7324 153.121 53.145 151.669 52.5542 149.18C50.2993 139.416 47.7108 129.725 45.3387 119.993C45.0816 118.947 44.6847 118.64 43.6565 118.663C41.2844 118.703 38.9078 118.658 36.5627 118.658L36.5582 118.676ZM136.674 95.4105C136.674 98.4455 136.705 101.476 136.674 104.511C136.674 105.557 136.94 105.751 137.928 105.413C140.886 104.38 143.867 103.411 146.861 102.468C147.763 102.189 148.061 101.72 148.047 100.773C147.993 97.2369 147.993 93.6968 148.047 90.1522C148.047 89.1781 147.673 88.7993 146.789 88.5106C143.795 87.5771 140.809 86.612 137.86 85.5478C136.737 85.1419 136.669 85.5748 136.683 86.4858C136.696 89.4351 136.678 92.4115 136.678 95.3925L136.674 95.4105Z" fill="black"/>
<path d="M175.362 63.1345C175.286 63.6441 174.875 63.7794 174.55 63.9688C170.374 66.4852 166.18 68.9701 162.013 71.509C161.283 71.96 160.891 71.96 160.471 71.1392C159.777 69.7863 158.257 68.4334 158.41 67.2338C158.573 65.9621 160.697 65.5246 161.964 64.7354C165.121 62.7827 168.318 60.9382 171.461 58.99C172.282 58.4805 172.697 58.5391 173.152 59.4049C173.838 60.6902 174.65 61.9169 175.362 63.1345Z" fill="black"/>
<path d="M161.355 119.055C161.594 119.181 161.847 119.299 162.086 119.438C166.217 121.923 170.334 124.435 174.492 126.866C175.394 127.407 175.48 127.826 174.898 128.67C174.063 129.856 173.581 131.777 172.503 132.178C171.425 132.58 170.027 131.015 168.787 130.289C165.594 128.417 162.474 126.455 159.245 124.606C158.288 124.056 158.104 123.587 158.771 122.672C159.438 121.756 159.93 120.755 160.525 119.804C160.719 119.479 160.832 119.037 161.355 119.055Z" fill="black"/>
<path d="M32.7611 89.5299C32.7611 88.0147 32.7927 86.4994 32.7611 84.9887C32.7386 84.204 32.9956 83.8206 33.8119 83.9199C33.8673 83.9266 33.9233 83.9266 33.9787 83.9199C38.6869 83.7214 38.6869 83.7214 38.6869 88.407C38.6869 90.3688 38.6553 92.3305 38.6869 94.2922C38.6869 95.1445 38.4163 95.4377 37.5324 95.4918C32.7611 95.7669 32.7611 95.7894 32.7611 91.0452V89.5299Z" fill="black"/>
<path d="M27.1016 89.8185C27.1016 90.3236 27.1376 90.8332 27.1016 91.3337C26.9888 92.6596 27.7374 94.5266 26.7859 95.185C25.5367 96.0464 23.6291 95.3925 22.0236 95.4601C21.4283 95.4827 21.2705 95.1444 21.2705 94.6078C21.2705 91.3518 21.2705 88.0912 21.2705 84.8352C21.2705 84.0505 21.6313 83.8972 22.2987 83.9333C23.5344 83.9603 24.7746 83.9919 26.0057 83.9333C26.9392 83.8837 27.1467 84.3031 27.1241 85.1284C27.07 86.6707 27.1016 88.2446 27.1016 89.8185Z" fill="black"/>
<path d="M59.5533 9.53596C56.7402 6.68098 53.3879 4.41345 49.691 2.86511C45.9941 1.31677 42.0263 0.518472 38.0183 0.516605C34.0103 0.514737 30.0418 1.30933 26.3435 2.85423C22.6451 4.39913 19.2906 6.66353 16.4749 9.51589C10.9076 15.1562 7.8986 22.5664 8.00261 30.38C8.11757 39.0949 11.1631 46.6202 16.8088 52.1546C22.2484 57.481 29.7499 60.4261 37.9338 60.4499H38.0287C46.1342 60.4499 53.5974 57.5576 59.0424 52.3042C64.763 46.7862 67.8596 39.2263 67.9964 30.4438C68.1187 22.6175 65.1188 15.1927 59.5533 9.53596ZM64.6882 30.7668C64.7354 34.1941 64.0997 37.5965 62.818 40.7755C61.5363 43.9544 59.6344 46.8463 57.2231 49.2824C52.1485 54.4392 45.3094 57.2985 37.9721 57.335C30.6057 57.2657 23.7647 54.3735 18.7084 49.193C16.3087 46.7549 14.4187 43.8632 13.1489 40.6867C11.8791 37.5101 11.2549 34.1124 11.3127 30.692C11.5517 14.9627 22.5184 3.97962 37.9794 3.97962H38.0707C53.5737 4.02342 64.5221 15.0394 64.6882 30.7668Z" fill="#1D1D1B"/>
<path d="M51.6266 25.6483H50.4059C48.1122 25.6483 45.5101 25.6374 43.012 25.6647H42.9098C42.9098 25.6319 42.9098 25.5881 42.9098 25.5315C42.9317 23.0298 42.9263 20.4861 42.9226 18.0172V16.9917C42.9226 14.1451 40.8114 11.9956 38.0159 11.9919C35.2204 11.9883 33.0891 14.1269 33.0891 16.9571C33.0891 17.8986 33.0891 18.8396 33.0891 19.7799V21.0573C33.0891 21.4356 33.0891 21.8145 33.0891 22.1941V22.3327C33.0891 23.3947 33.0891 24.4914 33.1037 25.5753C33.1055 25.6045 33.1055 25.6337 33.1037 25.6629H33.0271C30.6184 25.6392 28.1714 25.6447 25.8047 25.6483H24.4179C21.5768 25.6483 19.4346 27.7668 19.4346 30.5642C19.4346 33.3615 21.575 35.4764 24.4161 35.491H25.7044C28.1039 35.491 30.5856 35.491 33.0234 35.4764H33.1037C33.1037 35.5019 33.1037 35.5329 33.1037 35.5712C33.0836 38.1569 33.0891 40.7809 33.1037 43.3191V44.1804C33.0962 44.5387 33.1286 44.8967 33.2004 45.2478C33.7332 47.589 35.6748 49.1637 38.0323 49.1637C38.236 49.1639 38.4395 49.1523 38.6418 49.1291C41.0851 48.8572 42.9299 46.7131 42.9336 44.1457V42.9158C42.9336 40.5199 42.9336 38.0419 42.9208 35.6041C42.9208 35.5493 42.9208 35.5074 42.9208 35.4745H43.0303C45.5849 35.5001 48.2417 35.4946 50.5811 35.4891H51.6394C54.4075 35.4891 56.5808 33.3378 56.5881 30.6061C56.5985 29.9532 56.4775 29.3048 56.2324 28.6995C55.9872 28.0942 55.623 27.5443 55.1612 27.0825C54.6994 26.6207 54.1495 26.2565 53.5442 26.0114C52.9389 25.7662 52.2906 25.6453 51.6376 25.6556L51.6266 25.6483ZM39.6399 37.312C39.6399 39.5492 39.6399 41.7857 39.6399 44.0216C39.6399 44.8464 39.3334 45.3719 38.6783 45.6803C38.4104 45.818 38.1076 45.8727 37.8085 45.8372C37.5094 45.8018 37.2277 45.6779 36.9995 45.4814C36.5579 45.1493 36.3627 44.6712 36.3627 43.934C36.3627 41.0473 36.3627 38.1612 36.3627 35.2756V34.1698C36.3627 32.7976 35.7715 32.2119 34.3865 32.2119H30.9341C28.8076 32.2119 26.6818 32.2119 24.5566 32.2119C23.7099 32.2119 23.0603 31.805 22.8195 31.1298C22.7278 30.8911 22.695 30.6337 22.7239 30.3796C22.7528 30.1255 22.8426 29.8821 22.9855 29.67C23.1582 29.4374 23.3843 29.2497 23.6447 29.1227C23.9051 28.9956 24.1922 28.933 24.4818 28.9401C25.6734 28.9255 26.874 28.9292 28.0364 28.9401H29.5947H34.4431C35.7696 28.9401 36.3609 28.338 36.3609 26.9913C36.3609 26.0181 36.3609 25.0449 36.3609 24.0717V23.4878C36.3609 21.3565 36.3609 19.224 36.3609 17.0903C36.3609 16.2746 36.6729 15.7527 37.3371 15.448C37.9666 15.1597 38.5396 15.2528 39.087 15.7345C39.4666 16.0666 39.6344 16.541 39.6344 17.229C39.6271 19.6851 39.6271 22.1418 39.6344 24.5991V26.911C39.6344 28.3599 40.1928 28.9182 41.6234 28.9182H45.0265C47.1664 28.9182 49.3086 28.9182 51.4533 28.9182C52.2525 28.9182 52.7707 29.2102 53.0846 29.8306C53.2302 30.0943 53.2937 30.3955 53.2671 30.6956C53.2404 30.9957 53.1248 31.2809 52.935 31.5148C52.5992 31.982 52.112 32.19 51.3493 32.19C48.774 32.19 46.1999 32.19 43.627 32.19H41.6563C40.1819 32.19 39.6344 32.7374 39.6344 34.2392L39.6399 37.312Z" fill="#1D1D1B"/>
</g>
<defs>
<filter id="filter0_d_1831_885" x="0" y="0.516602" width="180.868" height="175.014" filterUnits="userSpaceOnUse" color-interpolation-filters="sRGB">
<feFlood flood-opacity="0" result="BackgroundImageFix"/>
<feColorMatrix in="SourceAlpha" type="matrix" values="0 0 0 0 0 0 0 0 0 0 0 0 0 0 0 0 0 0 127 0" result="hardAlpha"/>
<feOffset dy="4"/>
<feGaussianBlur stdDeviation="2"/>
<feComposite in2="hardAlpha" operator="out"/>
<feColorMatrix type="matrix" values="0 0 0 0 0 0 0 0 0 0 0 0 0 0 0 0 0 0 0.25 0"/>
<feBlend mode="normal" in2="BackgroundImageFix" result="effect1_dropShadow_1831_885"/>
<feBlend mode="normal" in="SourceGraphic" in2="effect1_dropShadow_1831_885" result="shape"/>
</filter>
</defs>
</svg>
