<svg width="300" height="295" viewBox="0 0 300 295" fill="none" xmlns="http://www.w3.org/2000/svg">
<path d="M181.088 236.533C181.089 235.77 180.898 235.019 180.533 234.349C180.167 233.679 179.639 233.112 178.997 232.7C178.355 232.288 177.619 232.044 176.858 231.991C176.097 231.938 175.334 232.077 174.641 232.395C157.301 240.277 138.385 244.391 118.122 244.896C76.2153 244.06 41.8199 228.935 14.0293 198.914C12.1298 196.865 11.9643 195.029 12.8155 192.53C24.2596 158.902 46.4989 135.601 79.5334 122.628C80.6009 122.139 81.7672 121.905 82.9406 121.943C84.114 121.982 85.2625 122.292 86.2959 122.849C107.056 133.615 127.824 133.442 148.561 122.691C149.48 122.2 150.501 121.928 151.543 121.898C152.585 121.868 153.62 122.08 154.566 122.518C161.607 125.214 168.387 128.545 174.822 132.472C175.452 132.856 176.173 133.066 176.91 133.079C177.648 133.091 178.375 132.907 179.018 132.545C179.66 132.183 180.195 131.655 180.565 131.018C180.936 130.38 181.13 129.655 181.128 128.918V125.765C181.129 125.056 180.949 124.358 180.604 123.739C180.259 123.119 179.761 122.598 179.157 122.226C173.681 118.925 167.985 116.002 162.109 113.478C165.104 109.773 168.162 106.51 170.629 102.845C184.446 82.3057 187.078 60.4185 176.462 37.9165C165.774 15.2647 147.497 2.44919 122.346 0.265978C75.104 -3.83246 45.8947 40.2494 52.4679 76.1896C54.9034 89.4307 61.0747 100.883 70.3513 110.609C72.2902 112.634 72.7158 113.541 69.6893 114.873C62.6081 117.983 55.8165 121.716 49.3941 126.025V126.025C31.6027 138.021 17.9622 154.005 8.47274 173.977C4.75832 182.192 1.91845 190.775 0 199.584C13.3917 216.379 30.2562 230.08 49.4377 239.749C68.6193 249.417 89.6644 254.824 111.131 255.599C135.745 256.482 158.421 251.792 178.361 242.87C179.17 242.511 179.858 241.926 180.342 241.185C180.826 240.443 181.085 239.578 181.088 238.693V236.533ZM62.8007 65.3918C62.7756 50.9742 68.4691 37.135 78.6329 26.9092C88.7966 16.6834 102.601 10.9057 117.018 10.8431C147.418 10.7406 171.512 34.819 171.536 65.3209C171.536 95.5705 147.631 119.428 117.231 119.483C86.8318 119.539 62.8323 95.6414 62.8007 65.3918Z" fill="black"/>
<path d="M291.291 285.154C288.565 285.402 286.4 284.773 284.798 283.269L234.174 231.231L186.075 291.943C184.587 293.727 182.571 294.735 180.026 294.965C177.845 295.163 175.862 294.518 174.078 293.03C172.278 291.361 171.278 289.436 171.081 287.255C170.85 284.71 171.478 282.545 172.966 280.761L221.933 220.52L174.184 172.895C172.367 171.044 171.368 169.118 171.186 167.119C170.989 164.938 171.634 162.955 173.121 161.171C174.592 159.205 176.509 158.115 178.872 157.901C181.417 157.67 183.491 158.307 185.093 159.811L232.941 208.527L278.115 151.929C279.603 150.144 281.619 149.137 284.164 148.906C286.345 148.709 288.336 149.445 290.136 151.114C292.102 152.585 293.184 154.411 293.382 156.592C293.596 158.955 292.959 161.029 291.472 162.813L245.182 219.238L296.847 270.632C298.086 272.169 298.796 273.937 298.977 275.936C299.191 278.299 298.554 280.373 297.067 282.157C295.579 283.941 293.654 284.94 291.291 285.154Z" fill="black"/>
</svg>
