<svg width="153" height="160" viewBox="0 0 153 160" fill="none" xmlns="http://www.w3.org/2000/svg">
<path d="M77.3297 159.965H38.6963C38.1979 159.965 37.6951 159.996 37.1967 159.965C36.5268 159.915 35.8992 159.618 35.4355 159.132C34.9718 158.646 34.705 158.005 34.687 157.333C34.6775 156.985 34.7378 156.638 34.8644 156.314C34.991 155.99 35.1813 155.695 35.4241 155.446C35.6668 155.197 35.957 154.999 36.2776 154.864C36.5981 154.729 36.9424 154.66 37.2902 154.661C40.405 154.607 43.5199 154.661 46.6348 154.661C52.7978 154.661 58.9563 154.634 65.1193 154.661C66.2363 154.661 66.659 154.411 66.6501 153.204C66.5967 145.758 66.5967 138.314 66.6501 130.871C66.6501 129.535 66.1205 129.334 64.9858 129.29C61.9377 129.169 58.8851 129.005 55.8504 128.715C52.6598 128.412 50.7108 126.439 50.6752 123.287C50.5892 115.674 50.5892 108.063 50.6752 100.454C50.7197 97.1497 53.0514 95.1412 56.3932 94.9853C59.4414 94.8428 62.4806 94.54 65.5243 94.4019C66.4142 94.3574 66.6367 94.0011 66.6234 93.1861C66.5819 90.9624 66.5819 88.7357 66.6234 86.5061C66.6234 85.6154 66.3386 85.4106 65.4486 85.4685C52.8289 86.3012 40.2048 87.0761 27.5895 87.9089C25.6438 88.0781 23.7081 87.4877 22.1875 86.2612C15.8242 81.3313 9.42092 76.4637 3.05322 71.565C-0.996118 68.4477 -1.01837 64.8003 2.99092 61.7142C9.41201 56.7709 15.8554 51.8633 22.2631 46.9022C23.6366 45.7556 25.4004 45.1858 27.1846 45.3124C35.2595 45.8586 43.3404 46.3797 51.4272 46.8755C56.0773 47.165 60.7274 47.4055 65.3774 47.7127C66.3163 47.7751 66.6634 47.5168 66.6367 46.5504C66.5833 44.5508 66.5433 42.5424 66.6367 40.5517C66.7124 39.2157 66.2896 38.6724 64.9102 38.6457C62.3604 38.5922 59.8152 38.3785 57.2654 38.2671C52.5708 38.0623 50.6352 36.085 50.6307 31.4267C50.6307 24.5982 50.6307 17.7697 50.6307 10.9412C50.6307 6.51456 52.691 4.55507 57.1275 4.30569C66.9838 3.75792 76.8357 3.07655 86.6921 2.46199C94.7018 1.95876 102.747 1.48225 110.775 0.983471C115.033 0.716269 119.309 0.560401 123.554 0.0927964C126.696 -0.241207 129.339 0.28429 131.88 2.35956C137.918 7.25828 144.17 11.8631 150.32 16.6104C153.88 19.3581 153.907 23.1568 150.32 25.9313C143.877 30.928 137.362 35.84 130.941 40.8634C128.997 42.3865 126.936 42.676 124.56 42.5112C112.991 41.7096 101.421 41.0505 89.8514 40.2578C88.2896 40.1509 87.9692 40.6541 88.0715 42.0703C88.1872 44.0075 88.1427 45.9581 88.0715 47.8998C88.0404 48.8884 88.3519 49.2848 89.3709 49.3159C91.7515 49.3827 94.1322 49.5564 96.5173 49.6722C100.131 49.8459 102.302 51.9791 102.342 55.5863C102.393 62.9195 102.393 70.2527 102.342 77.586C102.342 81.1487 100.349 83.2195 96.7309 83.5357C94.3013 83.745 91.8361 83.8786 89.4198 83.9409C88.4498 83.9677 88.027 84.1681 88.0849 85.2413C88.162 87.4057 88.162 89.5715 88.0849 91.7388C88.0448 92.8254 88.4587 93.0436 89.4421 92.9724C95.3069 92.5478 101.173 92.1515 107.041 91.7833C113.351 91.387 119.665 91.0485 125.975 90.6299C127.755 90.5216 129.508 91.1038 130.87 92.2554C137.362 97.2832 143.89 102.262 150.4 107.272C153.795 109.882 153.893 113.765 150.525 116.393C143.85 121.608 137.064 126.742 130.331 131.908C128.988 132.913 127.313 133.37 125.646 133.186C117.565 132.634 109.484 132.135 101.399 131.628C97.5274 131.383 93.6471 131.209 89.7758 130.906C88.5076 130.804 88.0537 131.058 88.0671 132.443C88.1383 139.331 88.1383 146.218 88.0671 153.106C88.0671 154.398 88.4676 154.661 89.669 154.652C98.7733 154.607 107.878 154.62 116.982 154.652C118.7 154.652 119.79 155.453 119.99 156.901C120.102 157.511 119.988 158.142 119.669 158.674C119.351 159.207 118.85 159.605 118.259 159.795C117.682 159.966 117.079 160.03 116.479 159.987C109.54 159.987 102.603 159.987 95.6674 159.987L77.3297 159.965ZM147.512 111.868C140.695 106.631 134.052 101.532 127.417 96.4237C126.982 96.0788 126.429 95.9188 125.877 95.9784C122.171 96.2278 118.464 96.4549 114.753 96.6954C105.074 97.3233 95.3915 97.9735 85.7087 98.5792C76.2483 99.173 66.7851 99.74 57.3188 100.28C56.3843 100.334 56.0773 100.668 56.0995 101.585C56.1485 103.75 56.1574 105.918 56.0995 108.083C56.0728 109.049 56.4333 109.316 57.3544 109.29C59.4592 109.236 61.5684 109.258 63.6776 109.29C65.5065 109.29 66.6946 110.318 66.7524 111.859C66.8103 113.4 65.5198 114.602 63.6731 114.625C61.6218 114.647 59.566 114.683 57.519 114.625C56.4689 114.585 56.0461 114.852 56.0951 115.987C56.1841 117.983 56.1796 119.995 56.0951 121.982C56.0506 123.077 56.4377 123.358 57.4879 123.42C67.2775 124.021 77.0671 124.685 86.8567 125.313C98.9736 126.088 111.09 126.818 123.207 127.633C125.552 127.789 127.657 127.633 129.437 125.852C130.679 124.605 132.223 123.661 133.629 122.578L147.512 111.868ZM60.6161 23.954C59.5081 23.954 58.3912 23.9941 57.2876 23.954C56.4733 23.9184 56.0773 24.1098 56.104 25.0406C56.1618 27.2673 56.1352 29.494 56.104 31.7207C56.104 32.3887 56.2687 32.7628 56.994 32.785C57.657 32.785 58.3289 32.932 58.9786 32.9721C67.7803 33.5302 76.5806 34.0824 85.3794 34.6287C98.7733 35.4541 112.167 36.278 125.561 37.1003C126.384 37.1755 127.204 36.9245 127.844 36.4012C133.994 31.6509 140.158 26.9259 146.337 22.2261C147.308 21.4913 147.308 21.1038 146.337 20.3646C140.108 15.638 133.902 10.8789 127.719 6.08704C127.4 5.83195 127.031 5.64538 126.636 5.5389C126.241 5.43241 125.828 5.40829 125.423 5.46802C122.753 5.69514 120.11 5.81538 117.454 5.98016C111.521 6.34534 105.598 6.712 99.6856 7.08014C91.4979 7.59673 83.3087 8.11778 75.1181 8.64328C69.2473 9.00845 63.3795 9.36027 57.5146 9.69872C56.5312 9.75662 56.0195 10.0194 56.0728 11.1728C56.1707 13.2213 56.1485 15.2833 56.0728 17.3363C56.0417 18.3427 56.3487 18.6723 57.3811 18.6723C59.606 18.601 61.8309 18.6188 64.0558 18.6723C64.754 18.6721 65.4245 18.9457 65.9236 19.4343C66.4226 19.923 66.7106 20.5878 66.7257 21.2864C66.7116 21.9874 66.4306 22.6565 65.9402 23.1572C65.4498 23.658 64.787 23.9525 64.087 23.9807C62.9523 24.0208 61.782 23.954 60.6161 23.954ZM91.8806 63.9497C93.1577 63.9497 94.4348 63.9097 95.7074 63.9497C96.5529 63.9854 96.9044 63.7404 96.8822 62.8364C96.8332 60.6721 96.8243 58.5033 96.8822 56.3389C96.9089 55.3948 96.544 55.0519 95.6496 55.0029C94.0432 54.9406 92.4368 54.8248 90.8304 54.7268C82.8593 54.2369 74.8882 53.7456 66.9171 53.2527C60.7185 52.8653 54.5199 52.4511 48.3213 52.0548C41.2015 51.6094 34.0418 51.1641 26.9043 50.6876C26.3481 50.6795 25.811 50.8906 25.4091 51.2754C19.1571 56.0717 12.9229 60.8858 6.64422 65.6465C5.68306 66.3768 5.61186 66.7465 6.61752 67.508C12.8473 72.2286 19.0577 76.9863 25.2489 81.7811C25.5506 82.0269 25.899 82.209 26.273 82.3161C26.647 82.4233 27.0389 82.4534 27.4249 82.4045C29.8589 82.2175 32.2974 82.124 34.7359 81.9592C42.4312 81.4901 50.1264 81.0166 57.8216 80.5386C66.2318 80.016 74.6435 79.4861 83.0566 78.9487C87.2661 78.6815 91.4667 78.3742 95.6763 78.1159C96.544 78.0625 96.9445 77.8042 96.9133 76.8378C96.8421 74.7269 96.8288 72.6116 96.9133 70.5051C96.9578 69.3873 96.4683 69.2403 95.5383 69.2582C93.042 69.3071 90.5456 69.3116 88.0493 69.2582C87.6869 69.2644 87.3271 69.1968 86.9917 69.0594C86.6563 68.922 86.3524 68.7177 86.0984 68.459C85.8445 68.2002 85.6458 67.8925 85.5145 67.5544C85.3833 67.2163 85.3222 66.8551 85.3349 66.4926C85.3883 65.0497 86.4919 63.9898 88.0671 63.9408C89.3264 63.9186 90.6124 63.9497 91.8806 63.9497ZM72.1056 142.253C72.1056 145.919 72.1456 149.584 72.0788 153.249C72.0788 154.358 72.4171 154.669 73.4939 154.638C76.1015 154.571 78.7135 154.589 81.3167 154.638C82.2066 154.638 82.6161 154.46 82.6116 153.458C82.576 146.184 82.576 138.91 82.6116 131.637C82.6116 130.572 82.1666 130.332 81.2277 130.301C78.7313 130.216 76.235 130.127 73.752 129.895C72.4615 129.775 72.0344 130.06 72.07 131.436C72.1723 135.035 72.1056 138.646 72.1056 142.253ZM82.5938 44.2792C82.5938 43.2282 82.5315 42.1727 82.5938 41.1262C82.6561 40.0797 82.2289 39.7545 81.2588 39.7145C78.5889 39.5942 75.9591 39.4562 73.3159 39.2691C72.3993 39.2068 72.0255 39.4428 72.0566 40.427C72.1189 42.5824 72.1323 44.7468 72.0566 46.9022C72.0166 48.0512 72.5016 48.3006 73.5206 48.3228C75.2338 48.3674 76.9425 48.501 78.6512 48.6212C82.5715 48.9062 82.5715 48.9151 82.5715 44.9427L82.5938 44.2792ZM82.5938 88.9109C82.5938 87.7486 82.5715 86.5818 82.5938 85.415C82.6205 84.6045 82.309 84.3996 81.4991 84.4664C78.7403 84.6847 75.9725 84.8539 73.2047 84.9563C72.3147 84.9875 72.0744 85.3215 72.0878 86.1498C72.1234 88.4255 72.1278 90.7012 72.0878 92.9768C72.0878 93.7829 72.3637 94.0546 73.1557 93.9877C74.7532 93.8497 76.3596 93.7206 77.966 93.6671C82.6027 93.4934 82.6027 93.4934 82.6027 88.8931L82.5938 88.9109Z" fill="black"/>
</svg>
