<svg width="160" height="170" viewBox="0 0 160 170" fill="none" xmlns="http://www.w3.org/2000/svg">
<path d="M119.012 146.091C117.762 150.443 113.2 152.969 108.848 151.719C104.496 150.469 101.97 145.907 103.22 141.555C104.471 137.203 109.032 134.677 113.384 135.927C117.736 137.178 120.262 141.739 119.012 146.091ZM106.379 142.462C105.628 145.074 107.143 147.81 109.755 148.56C112.367 149.311 115.103 147.796 115.854 145.184C116.604 142.572 115.089 139.836 112.477 139.086C109.865 138.335 107.129 139.85 106.379 142.462Z" fill="black"/>
<path d="M132.368 147.204L130.921 152.241C130.453 153.871 128.842 154.871 127.173 154.566L123.043 153.814C122.342 154.649 121.549 155.409 120.67 156.09L121.275 160.257C121.525 161.932 120.46 163.51 118.815 163.916L113.73 165.18C112.084 165.59 110.414 164.692 109.842 163.099L108.439 159.178C107.931 159.1 107.375 158.989 106.807 158.825C106.238 158.662 105.705 158.461 105.236 158.258L101.966 160.836C100.636 161.884 98.7437 161.757 97.566 160.537L93.9275 156.767C92.7499 155.546 92.688 153.655 93.7849 152.36L96.5091 149.149C96.1251 148.105 95.8567 147.04 95.7053 145.961L91.8063 144.406C90.2324 143.78 89.3984 142.077 89.8666 140.447L91.3137 135.41C91.7819 133.78 93.3924 132.78 95.0621 133.085L99.1915 133.837C99.8937 132.999 100.69 132.24 101.565 131.561L100.96 127.394C100.721 125.715 101.778 124.142 103.42 123.735L108.505 122.471C110.151 122.061 111.821 122.958 112.393 124.552L113.796 128.473C114.304 128.55 114.86 128.662 115.428 128.826C115.997 128.989 116.53 129.19 116.999 129.393L120.269 126.815C121.599 125.767 123.491 125.894 124.669 127.114L128.305 130.88C129.48 132.1 129.549 133.99 128.448 135.287L125.724 138.498C126.108 139.542 126.376 140.607 126.527 141.686L130.429 143.245C132.003 143.871 132.837 145.574 132.368 147.204ZM117.323 154.889C117.427 154.526 117.657 154.202 117.983 153.981C119.188 153.168 120.213 152.181 121.037 151.053C121.408 150.544 122.038 150.291 122.659 150.404L127.764 151.331L129.211 146.293L124.392 144.372C123.806 144.139 123.406 143.59 123.361 142.961C123.262 141.569 122.914 140.187 122.327 138.859C122.073 138.28 122.17 137.61 122.577 137.133L125.947 133.164L122.308 129.393L118.249 132.597C117.754 132.988 117.078 133.057 116.51 132.784C115.877 132.476 115.225 132.186 114.524 131.985C113.823 131.783 113.117 131.683 112.417 131.609C111.79 131.541 111.257 131.122 111.042 130.526L109.302 125.657L104.218 126.921L104.963 132.073C105.054 132.697 104.781 133.316 104.258 133.672C103.054 134.482 102.03 135.466 101.205 136.6C100.833 137.108 100.203 137.362 99.5824 137.248L94.4688 136.316L93.0217 141.354L97.8409 143.275C98.4269 143.508 98.8265 144.057 98.8717 144.686C98.9708 146.078 99.319 147.46 99.9053 148.788C100.16 149.364 100.067 150.034 99.6554 150.514L96.2861 154.483L99.9246 158.253L103.983 155.05C104.479 154.659 105.155 154.59 105.723 154.863C106.356 155.171 107.007 155.461 107.709 155.662C108.41 155.863 109.116 155.964 109.816 156.038C110.443 156.106 110.975 156.525 111.191 157.121L112.93 161.99L118.015 160.726L117.269 155.574C117.241 155.34 117.259 155.11 117.323 154.889Z" fill="black"/>
<path d="M147.675 113.415C146.841 116.316 143.8 118 140.899 117.167C137.997 116.333 136.313 113.292 137.147 110.391C137.98 107.489 141.021 105.806 143.923 106.639C146.824 107.473 148.508 110.514 147.675 113.415ZM139.252 110.996C138.752 112.737 139.762 114.561 141.503 115.061C143.245 115.561 145.069 114.551 145.569 112.81C146.069 111.069 145.059 109.245 143.318 108.745C141.577 108.244 139.753 109.254 139.252 110.996Z" fill="black"/>
<path d="M156.579 114.156L155.614 117.515C155.302 118.601 154.228 119.268 153.115 119.065L150.362 118.563C149.895 119.12 149.366 119.626 148.78 120.08L149.183 122.858C149.35 123.975 148.64 125.027 147.543 125.298L144.153 126.141C143.056 126.414 141.942 125.816 141.562 124.753L140.626 122.139C140.287 122.088 139.917 122.013 139.538 121.904C139.159 121.795 138.803 121.661 138.491 121.526L136.31 123.245C135.424 123.943 134.162 123.859 133.377 123.045L130.952 120.532C130.167 119.718 130.125 118.457 130.857 117.594L132.673 115.453C132.417 114.757 132.238 114.047 132.137 113.328L129.538 112.291C128.488 111.874 127.932 110.738 128.244 109.652L129.209 106.294C129.521 105.207 130.595 104.54 131.708 104.744L134.461 105.245C134.929 104.687 135.46 104.18 136.043 103.728L135.64 100.95C135.481 99.8307 136.186 98.7818 137.28 98.5105L140.67 97.6677C141.767 97.3948 142.881 97.9928 143.262 99.055L144.197 101.669C144.536 101.721 144.906 101.795 145.285 101.904C145.664 102.013 146.02 102.147 146.332 102.283L148.513 100.564C149.4 99.8655 150.661 99.9497 151.446 100.763L153.87 103.274C154.653 104.087 154.699 105.347 153.965 106.212L152.149 108.353C152.405 109.048 152.584 109.758 152.685 110.478L155.286 111.517C156.335 111.935 156.891 113.07 156.579 114.156ZM146.548 119.28C146.618 119.038 146.771 118.822 146.989 118.675C147.792 118.133 148.476 117.474 149.024 116.722C149.272 116.383 149.692 116.215 150.106 116.29L153.509 116.908L154.474 113.549L151.261 112.269C150.87 112.113 150.604 111.747 150.574 111.328C150.508 110.4 150.276 109.478 149.885 108.593C149.715 108.207 149.78 107.761 150.052 107.442L152.298 104.796L149.872 102.283L147.166 104.418C146.836 104.679 146.385 104.725 146.007 104.543C145.585 104.338 145.15 104.145 144.683 104.01C144.215 103.876 143.744 103.809 143.278 103.76C142.86 103.715 142.505 103.435 142.361 103.038L141.202 99.792L137.812 100.635L138.309 104.069C138.369 104.485 138.187 104.898 137.839 105.135C137.036 105.675 136.353 106.331 135.803 107.087C135.555 107.426 135.135 107.595 134.722 107.519L131.313 106.898L130.348 110.256L133.561 111.537C133.951 111.693 134.218 112.059 134.248 112.478C134.314 113.406 134.546 114.327 134.937 115.212C135.107 115.596 135.045 116.043 134.77 116.363L132.524 119.009L134.95 121.523L137.656 119.387C137.986 119.127 138.437 119.081 138.815 119.262C139.237 119.468 139.672 119.661 140.139 119.795C140.606 119.93 141.077 119.996 141.544 120.046C141.962 120.091 142.317 120.371 142.46 120.768L143.62 124.014L147.01 123.171L146.513 119.737C146.494 119.581 146.506 119.427 146.548 119.28Z" fill="black"/>
<path d="M136.974 55.0482C136.79 47.3658 134.915 40.9639 131.238 35.4796C124.455 25.3304 114.973 19.8546 103.047 19.193C100.109 19.0266 97.1104 19.0394 94.2145 19.0479C92.8947 19.0479 91.5748 19.0479 90.255 19.0479C90.0628 19.0479 89.8664 19.0479 89.6699 19.0479C88.521 19.0863 87.5343 19.1162 87.214 17.6224C87.1477 17.4298 87.0351 17.2562 86.8862 17.1171C86.7373 16.978 86.5565 16.8774 86.3597 16.8243C84.9545 16.5255 84.9929 15.5909 85.0399 14.4044V14.2379C85.0399 13.7087 85.0399 13.1667 85.0399 12.646C85.0399 11.9631 85.01 11.2589 85.0655 10.576C85.4926 5.21118 83.2673 1.6517 78.4451 0H9.251L9.19119 0.0554856L9.07586 0.174988C9.03571 0.227367 8.98655 0.27217 8.93065 0.307294C4.72775 1.85656 2.76299 4.635 2.74591 9.06088V10.3157C2.74591 11.8948 2.74591 13.5294 2.74591 15.1342C2.74591 15.9878 2.63485 16.4146 1.7806 16.6749C0.640181 17.042 0.0293955 18.0407 0.020853 19.5686C-0.00477443 24.4085 -0.00904567 29.5812 0.020853 35.3814C0.020853 36.8795 0.605986 37.8824 1.64817 38.1983C2.69035 38.5141 2.75018 39.1329 2.75018 40.1274C2.75018 49.9437 2.75018 59.9051 2.75018 69.5464V75.2698C2.75018 75.4234 2.75018 75.5813 2.75018 75.7392C2.72826 76.1778 2.74254 76.6175 2.79288 77.0538C3.36238 80.9604 3.92331 84.867 4.47573 88.7736C5.1335 93.3261 5.78846 97.8786 6.44054 102.431L6.6797 104.138C7.50832 109.926 8.38823 115.905 8.25582 121.906C8.10632 130.134 8.14474 138.5 8.17891 146.592C8.17891 149.389 8.18886 152.183 8.20879 154.974C8.20879 160.45 11.7411 163.992 17.1784 163.992H70.8295C71.6113 164.025 72.3939 163.955 73.1573 163.783C77.3089 162.673 79.5983 159.515 79.6026 154.927C79.6026 146.072 79.6026 137.216 79.6026 128.359V116.584C79.6026 116.434 79.6026 116.281 79.6026 116.127C79.5836 115.758 79.5951 115.388 79.6368 115.022C80.2433 110.734 80.8555 106.446 81.4734 102.158C82.0572 98.0863 82.6408 94.0132 83.2246 89.9388L83.515 87.9115C84.3692 81.9619 85.2577 75.8075 85.1295 69.6147C84.9758 62.4744 85.0142 55.2061 85.0527 48.1768C85.0527 45.4751 85.0826 42.7735 85.0869 40.0676C85.0827 39.909 85.0684 39.7507 85.0441 39.5939C84.9843 39.0775 84.9672 38.7403 85.2449 38.6507C86.6757 38.1129 87.4745 37.3105 87.8375 36.0472C87.9016 35.8295 88.0297 35.8125 88.4526 35.8594C88.5534 35.87 88.655 35.87 88.7558 35.8594C89.9005 35.8594 91.0452 35.8594 92.1728 35.8594C95.2865 35.8594 98.5071 35.8125 101.676 35.8936C106.111 35.9995 110.364 37.673 113.679 40.6167C116.995 43.5603 119.159 47.5835 119.786 51.971C120.41 56.2389 119.966 60.5538 119.415 64.9456C118.48 72.0422 116.182 78.8914 112.645 85.116C110.055 89.6286 106.907 93.7971 103.274 97.5229C101.245 99.6569 100.378 102.055 100.711 104.655C101.16 108.282 103.188 110.83 106.576 112.03C109.963 113.229 113.093 112.457 115.853 109.712C119.376 106.203 122.514 102.329 125.215 98.1546C133.407 85.547 137.363 71.0445 136.974 55.0482ZM106.763 103.08C106.934 102.226 107.549 101.612 108.147 101.006L108.412 100.732C113.148 95.7971 117.054 90.1286 119.979 83.9465C124.216 74.9838 126.189 65.3041 126.01 54.3098C125.875 48.7505 123.888 43.3949 120.364 39.0908C116.84 34.7866 111.981 31.7796 106.554 30.5458C104.471 30.1389 102.35 29.9601 100.228 30.0123H99.1991C98.3448 30.0123 97.4906 30.0123 96.7217 30.0123H94.1847C92.2284 30.0123 90.5413 30.0123 88.8114 30.0123C88.0426 30.0123 87.8717 29.8459 87.8504 29.0349V28.9624C87.7948 26.9821 87.7606 25.8937 88.2134 25.4371C88.6661 24.9804 89.6314 25.0103 91.6304 25.0316C93.1082 25.0572 94.6203 25.0316 96.0597 25.0316C99.7244 24.9847 103.513 24.9334 107.212 25.6334C119.389 27.9423 129.448 38.6933 130.61 50.6479C132.66 71.7829 126.39 90.1394 111.979 105.205C110.637 106.609 109.416 106.942 108.134 106.255C106.926 105.585 106.469 104.527 106.763 103.08ZM8.72992 11.2845C8.72992 10.6144 8.72992 9.91875 8.72992 9.24014C8.76836 6.75619 9.65251 5.87272 12.0999 5.87272H43.3953H75.8567C78.2144 5.87272 79.137 6.7946 79.1498 9.15905C79.1498 9.82485 79.1498 10.4906 79.1498 11.1565C79.1498 12.4368 79.1157 13.7727 79.1926 15.0787C79.2534 15.43 79.1753 15.7911 78.9747 16.0859C78.8039 16.2652 78.4707 16.3292 77.8556 16.3335C69.0141 16.2993 60.0232 16.3036 51.327 16.3079H36.0573C27.6002 16.3079 18.8527 16.3079 10.2505 16.3378C9.59268 16.3378 9.12286 16.2908 8.8794 16.0305C8.63594 15.7701 8.61458 15.4458 8.66156 14.8482C8.76834 13.6575 8.75127 12.4496 8.72992 11.2845ZM73.6955 122.294C73.7211 123.792 73.751 125.346 73.7339 126.865C73.6613 132.589 73.6656 138.628 73.7339 145.875C73.7907 146.258 73.6991 146.649 73.4776 146.967C73.294 147.151 72.9693 147.228 72.3286 147.228C49.6911 147.185 32.2431 147.189 15.7433 147.228C15.2916 147.288 14.8339 147.175 14.4619 146.912C14.2013 146.651 14.1544 146.169 14.1544 145.52C14.18 140.826 14.18 136.088 14.1544 131.492C14.1287 126.895 14.1544 122.209 14.1544 117.57C14.1544 114.048 13.6205 110.553 13.0908 107.169C12.8901 105.888 12.6637 104.608 12.51 103.306C11.7753 97.8046 10.9723 92.2093 10.1992 86.8146C9.70089 83.3206 9.20543 79.8237 8.71282 76.324C8.64008 75.6737 8.61864 75.0186 8.64874 74.365C8.64874 74.126 8.64874 73.8827 8.64874 73.6394C8.64874 70.74 8.64874 67.8421 8.64874 64.9456C8.64874 56.8023 8.64876 48.3816 8.61459 40.1018C8.61459 39.4658 8.69576 39.1116 8.8965 38.911C9.09725 38.7104 9.44321 38.6293 10.0625 38.6293H10.0967C18.7929 38.6677 27.6387 38.6635 36.1897 38.6592H51.5406C60.1172 38.6592 68.9843 38.6592 77.7062 38.6336C78.3255 38.6336 78.6757 38.7061 78.8594 38.8897C79.0792 39.2039 79.1709 39.5901 79.1157 39.9695C79.1157 44.2374 79.1157 48.6035 79.1157 52.8118C79.1157 60.2764 79.1499 67.9929 79.0004 75.5813C78.9406 78.6116 78.428 81.6931 77.9283 84.6721C77.719 85.9269 77.5012 87.2329 77.326 88.5133C76.6939 92.9946 76.0561 97.4746 75.4125 101.953C74.9313 105.308 74.4515 108.662 73.9731 112.017C73.5631 115.436 73.6271 118.944 73.6955 122.294ZM14.1885 153.659C14.2654 153.181 14.4448 153.075 14.7224 153.075C14.8368 153.077 14.951 153.087 15.0641 153.105C15.1859 153.122 15.3085 153.132 15.4315 153.134C20.2622 153.113 25.1742 153.134 29.9238 153.134H50.7845C57.8278 153.134 65.106 153.134 72.2646 153.1C72.9395 153.1 73.3025 153.177 73.4947 153.373C73.6869 153.57 73.7553 153.92 73.7296 154.517C73.6186 157.313 72.7985 158.124 70.0649 158.124H17.8618C16.3541 158.124 15.3289 157.778 14.7224 157.065C14.1159 156.353 13.928 155.221 14.1885 153.659ZM7.56388 32.667C6.88048 32.667 6.45758 32.5688 6.23975 32.3469C6.02192 32.125 5.94931 31.728 5.97921 31.0238C6.08599 28.5911 6.08599 26.0644 5.97921 23.5037C5.91649 23.1496 5.99466 22.7851 6.19705 22.4879C6.3679 22.3129 6.67546 22.2361 7.24354 22.2361H7.31184C11.3567 22.2745 15.4656 22.266 19.4422 22.2617H80.0254C80.9523 22.2617 81.4649 22.2617 81.6613 22.4623C81.8578 22.6629 81.8578 23.1878 81.8578 24.1481C81.8578 24.8523 81.8578 25.5608 81.8578 26.2821C81.8578 27.8954 81.8279 29.5599 81.8963 31.1988C81.9262 31.8177 81.8493 32.1804 81.6571 32.3853C81.4649 32.5902 81.0847 32.6712 80.4483 32.6755C71.0259 32.6328 61.4413 32.6371 52.1812 32.6414H35.3568C26.2377 32.62 16.8239 32.6115 7.56388 32.667Z" fill="black"/>
</svg>
