<svg width="159" height="149" viewBox="0 0 159 149" fill="none" xmlns="http://www.w3.org/2000/svg">
<path d="M54.4851 117.202C54.4851 111.68 54.4471 106.158 54.5137 100.636C54.5424 100.056 54.4415 99.4769 54.2183 98.9408C53.9952 98.4047 53.6554 97.9251 53.2237 97.5369C39.9899 84.3761 26.7752 71.1963 13.5795 57.9975C11.485 55.9077 11.7278 54.8033 14.4983 53.875L139.481 12.0459C140.433 11.727 141.385 11.1938 142.337 12.0459C143.289 12.898 142.785 14.0167 142.447 15.0259C128.483 56.5995 114.519 98.1843 100.556 139.78C99.6751 142.398 98.4707 142.66 96.4951 140.689C89.3832 133.596 82.2475 126.527 75.1926 119.377C74.0882 118.254 73.5979 118.425 72.6363 119.496C67.8998 124.828 63.0776 130.079 58.2839 135.358C57.6032 136.1 56.9653 136.981 55.7514 136.581C54.4042 136.143 54.528 134.996 54.528 133.925L54.4851 117.202ZM97.709 136.991C110.824 98.0129 123.843 59.259 136.863 20.5288C136.692 20.534 136.524 20.5742 136.369 20.6471C136.214 20.72 136.076 20.8239 135.963 20.9525C110.575 46.3061 85.1655 71.6517 59.7358 96.9894C58.8456 97.8796 58.8694 98.3318 59.7358 99.203C72.0873 111.475 84.4182 123.768 96.7284 136.081C96.9855 136.329 97.252 136.572 97.709 136.991V136.991ZM17.464 56.5979C17.6401 57.3929 18.1971 57.6928 18.5969 58.0927C30.6565 70.1522 42.716 82.2117 54.7755 94.2713C55.9037 95.409 56.4654 95.4233 57.6317 94.2713C82.614 69.2668 107.623 44.2845 132.659 19.3245C133.069 18.9151 133.612 18.6009 133.845 17.6441L17.464 56.5979ZM58.0792 102.473V130.321C62.473 125.471 66.605 120.891 70.7607 116.34C71.2368 115.807 71.1463 115.498 70.6846 115.041C66.5574 110.923 62.4492 106.815 58.0792 102.45V102.473Z" fill="black"/>
<path d="M19.1501 34.9812C16.7212 34.9707 14.3501 34.2395 12.3373 32.8801C10.3244 31.5208 8.76042 29.5945 7.84343 27.3454C6.92643 25.0963 6.69772 22.6256 7.1863 20.2463C7.67487 17.8671 8.85872 15.6865 10.5878 13.9807C12.317 12.275 14.5135 11.1209 16.8992 10.6648C19.2848 10.2087 21.7522 10.471 23.9886 11.4185C26.2251 12.3661 28.1299 13.9562 29.4617 15.9873C30.7935 18.0185 31.4924 20.3993 31.4698 22.8281C31.4605 24.4354 31.1342 26.0252 30.5097 27.5063C29.8853 28.9875 28.9748 30.3309 27.8305 31.4598C26.6862 32.5886 25.3305 33.4807 23.841 34.0849C22.3515 34.6892 20.7574 34.9938 19.1501 34.9812V34.9812ZM19.1501 31.4681C20.309 31.4814 21.4589 31.2638 22.5328 30.828C23.6068 30.3922 24.5832 29.747 25.4051 28.9299C26.2271 28.1128 26.8781 27.1403 27.3203 26.0689C27.7625 24.9976 27.9869 23.849 27.9805 22.69C27.9833 20.9521 27.471 19.2523 26.5083 17.8054C25.5455 16.3584 24.1756 15.2293 22.5715 14.5605C20.9673 13.8917 19.201 13.7134 17.4956 14.0479C15.7901 14.3825 14.2221 15.215 12.9895 16.4402C11.757 17.6655 10.9152 19.2285 10.5705 20.932C10.2258 22.6354 10.3936 24.4027 11.0528 26.0108C11.7121 27.6189 12.833 28.9955 14.2742 29.9668C15.7154 30.9381 17.4121 31.4606 19.1501 31.4681Z" fill="black"/>
<path d="M152.753 96.5038C152.738 98.5887 152.106 100.622 150.935 102.348C149.764 104.073 148.108 105.412 146.176 106.195C144.243 106.978 142.122 107.17 140.081 106.747C138.039 106.324 136.169 105.305 134.707 103.818C133.245 102.332 132.257 100.445 131.868 98.3965C131.48 96.3481 131.707 94.2304 132.523 92.3116C133.338 90.3927 134.705 88.759 136.449 87.6172C138.194 86.4755 140.238 85.8771 142.323 85.8977C145.111 85.9241 147.776 87.0556 149.731 89.044C151.686 91.0323 152.773 93.7151 152.753 96.5038V96.5038ZM149.22 96.4181C149.225 95.0327 148.819 93.677 148.052 92.5229C147.286 91.3688 146.194 90.4682 144.915 89.9352C143.636 89.4022 142.228 89.2608 140.869 89.5289C139.509 89.7969 138.26 90.4625 137.28 91.4411C136.299 92.4198 135.631 93.6675 135.36 95.0262C135.089 96.3849 135.228 97.7934 135.758 99.0733C136.289 100.353 137.187 101.447 138.34 102.216C139.492 102.984 140.847 103.394 142.232 103.392C143.151 103.399 144.061 103.223 144.911 102.876C145.761 102.528 146.534 102.015 147.184 101.366C147.834 100.717 148.349 99.9455 148.699 99.0962C149.048 98.2468 149.226 97.3365 149.22 96.4181Z" fill="black"/>
<path d="M20.4065 125.747C20.1173 125.746 19.8326 125.675 19.578 125.537C19.3234 125.4 19.1069 125.202 18.9479 124.96C18.7889 124.718 18.6923 124.441 18.6669 124.153C18.6415 123.865 18.688 123.575 18.8023 123.309C19.0685 122.848 19.4077 122.434 19.8067 122.081C27.1948 114.687 34.5908 107.299 41.9947 99.917C42.313 99.5639 42.6672 99.2449 43.0515 98.9649C43.3647 98.7301 43.7529 98.6179 44.1431 98.6495C44.5333 98.6811 44.8984 98.8542 45.1698 99.1363C45.4657 99.3931 45.6603 99.747 45.7187 100.134C45.7772 100.522 45.6956 100.917 45.4888 101.25C45.2728 101.605 45.0048 101.926 44.6938 102.202L22.1155 124.737C21.6061 125.242 21.0968 125.737 20.4065 125.747Z" fill="black"/>
<path d="M32.0498 91.2531C32.0833 91.6518 32.0198 92.0527 31.8648 92.4216C31.7098 92.7904 31.4679 93.1163 31.1596 93.3714C25.2346 99.2838 19.308 105.198 13.3797 111.113C12.4753 112.018 11.4756 112.503 10.4521 111.461C9.42866 110.418 10.0523 109.442 10.9282 108.566C16.8215 102.702 22.7053 96.8306 28.5795 90.9532C29.2222 90.3058 29.8696 89.6774 30.9026 90.0868C31.1786 90.1648 31.4295 90.3134 31.6307 90.5179C31.8319 90.7224 31.9763 90.9758 32.0498 91.2531V91.2531Z" fill="black"/>
<path d="M1.91213 112.004C0.455466 112.037 -0.396636 110.733 0.184126 109.547C0.322229 109.283 0.502299 109.044 0.717285 108.838L17.6213 91.9577C18.5067 91.0723 19.4921 90.7962 20.4108 91.7911C21.2582 92.7146 20.9154 93.6524 20.1062 94.4617L14.2985 100.255L3.56873 110.961C3.06413 111.466 2.59762 112.027 1.91213 112.004Z" fill="black"/>
<path d="M15.4414 118.282C15.1097 118.272 14.787 118.172 14.5078 117.992C14.2286 117.813 14.0034 117.561 13.8562 117.264C13.6789 116.916 13.6248 116.519 13.7026 116.137C13.7804 115.754 13.9856 115.41 14.2846 115.16C15.9603 113.479 17.6168 111.827 19.3211 110.128C21.2252 108.224 23.1293 106.362 24.9811 104.468C25.838 103.597 26.7948 103.197 27.7754 104.12C28.756 105.044 28.3943 106.053 27.5374 106.905C24.0147 110.428 20.4873 113.947 16.9552 117.464C16.565 117.909 16.0278 118.2 15.4414 118.282V118.282Z" fill="black"/>
<path d="M39.5614 116.426C39.59 117.154 39.152 117.64 38.6855 118.106C35.1946 121.581 31.7037 125.058 28.2128 128.536C27.3654 129.383 26.4229 129.855 25.428 128.907C24.4331 127.96 24.7711 127.003 25.6422 126.123C29.2156 122.568 32.7906 119.015 36.3672 115.464C36.9528 114.883 37.6287 114.546 38.4523 114.917C38.7594 115.04 39.026 115.247 39.222 115.513C39.418 115.78 39.5355 116.096 39.5614 116.426V116.426Z" fill="black"/>
<path d="M135.202 132.454C135.171 133.153 134.863 133.81 134.346 134.282C133.83 134.754 133.147 135.001 132.448 134.97C131.749 134.938 131.092 134.63 130.62 134.114C130.148 133.597 129.901 132.915 129.932 132.216C129.948 131.87 130.032 131.53 130.178 131.217C130.325 130.903 130.533 130.621 130.788 130.388C131.044 130.154 131.343 129.973 131.669 129.855C131.995 129.737 132.34 129.684 132.686 129.7C133.032 129.716 133.372 129.799 133.685 129.946C133.999 130.093 134.281 130.3 134.514 130.556C134.748 130.812 134.929 131.111 135.047 131.437C135.165 131.762 135.218 132.108 135.202 132.454V132.454Z" fill="black"/>
<path d="M158.047 46.3775C158.047 47.0756 157.77 47.7452 157.276 48.2389C156.782 48.7326 156.113 49.0099 155.415 49.0099C154.717 49.0099 154.047 48.7326 153.553 48.2389C153.06 47.7452 152.782 47.0756 152.782 46.3775C152.782 45.6793 153.06 45.0097 153.553 44.516C154.047 44.0223 154.717 43.745 155.415 43.745C156.113 43.745 156.782 44.0223 157.276 44.516C157.77 45.0097 158.047 45.6793 158.047 46.3775V46.3775Z" fill="black"/>
<path d="M13.8844 75.3726C13.8786 75.8887 13.7196 76.3915 13.4274 76.8171C13.1353 77.2427 12.7233 77.5718 12.2437 77.7627C11.7641 77.9536 11.2386 77.9976 10.7339 77.8893C10.2292 77.7809 9.76813 77.5249 9.40922 77.1539C9.05031 76.7829 8.80976 76.3137 8.71812 75.8057C8.62648 75.2977 8.6879 74.7739 8.89456 74.3009C9.10122 73.8279 9.4438 73.427 9.87879 73.1491C10.3138 72.8712 10.8216 72.7288 11.3376 72.7401C12.0193 72.7671 12.6643 73.0557 13.1386 73.5459C13.6129 74.0362 13.88 74.6904 13.8844 75.3726V75.3726Z" fill="black"/>
<path d="M23.562 138.576C23.9195 138.538 24.2811 138.575 24.6234 138.685C24.9658 138.795 25.2814 138.975 25.5499 139.214C25.8185 139.453 26.0341 139.746 26.183 140.073C26.3318 140.401 26.4106 140.756 26.4142 141.115C26.4179 141.475 26.3464 141.831 26.2042 142.161C26.0621 142.492 25.8525 142.789 25.5889 143.033C25.3252 143.278 25.0134 143.464 24.6734 143.581C24.3333 143.698 23.9726 143.743 23.6143 143.712C23.2669 143.73 22.9194 143.678 22.5928 143.558C22.2661 143.438 21.9671 143.254 21.7136 143.016C21.4601 142.777 21.2573 142.49 21.1176 142.172C20.9779 141.853 20.9041 141.51 20.9005 141.162C20.897 140.814 20.9638 140.469 21.0971 140.147C21.2303 139.826 21.4271 139.535 21.6757 139.292C21.9244 139.048 22.2196 138.858 22.5438 138.731C22.8679 138.605 23.2143 138.546 23.562 138.557V138.576Z" fill="black"/>
<path d="M107.049 2.64894C107.042 2.99296 106.966 3.33209 106.827 3.64658C106.687 3.96106 106.486 4.24462 106.236 4.48075C105.986 4.71688 105.691 4.90085 105.369 5.02196C105.047 5.14308 104.704 5.1989 104.36 5.1862C103.669 5.16014 103.016 4.86445 102.541 4.36253C102.066 3.86062 101.806 3.19246 101.818 2.50136C101.831 2.15954 101.911 1.82362 102.054 1.51286C102.197 1.20211 102.4 0.922626 102.651 0.690445C102.902 0.458264 103.197 0.277951 103.518 0.159844C103.839 0.0417379 104.18 -0.0118393 104.522 0.00218569C104.862 0.00834392 105.198 0.0818825 105.509 0.21855C105.821 0.355218 106.102 0.552304 106.337 0.798418C106.573 1.04453 106.756 1.33479 106.879 1.65242C107.001 1.97005 107.059 2.30875 107.049 2.64894V2.64894Z" fill="black"/>
<path d="M132.565 68.394C133.079 68.4017 133.579 68.5618 134.001 68.854C134.424 69.1462 134.75 69.5574 134.939 70.0354C135.128 70.5134 135.17 71.0367 135.061 71.5388C134.952 72.041 134.696 72.4995 134.326 72.8561C133.956 73.2127 133.489 73.4515 132.983 73.542C132.477 73.6325 131.956 73.5707 131.485 73.3645C131.014 73.1583 130.615 72.817 130.339 72.3838C130.063 71.9506 129.921 71.4451 129.932 70.9313C129.957 70.2498 130.245 69.6044 130.736 69.1311C131.227 68.6578 131.883 68.3936 132.565 68.394Z" fill="black"/>
<path d="M81.5096 143.817C81.8497 143.806 82.1886 143.862 82.507 143.982C82.8253 144.102 83.1169 144.284 83.3652 144.516C83.6134 144.749 83.8133 145.029 83.9535 145.339C84.0938 145.649 84.1716 145.983 84.1825 146.323C84.1935 146.663 84.1373 147.002 84.0173 147.321C83.8973 147.639 83.7157 147.931 83.483 148.179C83.2502 148.427 82.9709 148.627 82.6609 148.767C82.3509 148.907 82.0163 148.985 81.6762 148.996C81.3362 149.007 80.9973 148.951 80.6789 148.831C80.3605 148.711 80.0689 148.529 79.8207 148.297C79.5725 148.064 79.3725 147.784 79.2323 147.474C79.092 147.164 79.0142 146.83 79.0033 146.49C78.9924 146.15 79.0485 145.811 79.1685 145.492C79.2886 145.174 79.4701 144.882 79.7029 144.634C79.9356 144.386 80.215 144.186 80.525 144.046C80.835 143.906 81.1695 143.828 81.5096 143.817V143.817Z" fill="black"/>
<path d="M57.8132 23.5373C57.8279 23.8789 57.7745 24.22 57.6562 24.5408C57.5378 24.8616 57.3569 25.1557 57.1239 25.4059C56.891 25.6562 56.6106 25.8576 56.299 25.9986C55.9875 26.1395 55.6511 26.2171 55.3093 26.2269C54.619 26.2448 53.9497 25.9883 53.4482 25.5136C52.9467 25.0389 52.6539 24.3847 52.634 23.6944C52.6237 23.3543 52.6805 23.0155 52.8011 22.6974C52.9217 22.3793 53.1038 22.088 53.3369 21.8402C53.5701 21.5925 53.8498 21.3931 54.16 21.2534C54.4703 21.1137 54.805 21.0365 55.1451 21.0262C55.8319 21.0054 56.4988 21.2582 56.9992 21.7292C57.4996 22.2001 57.7924 22.8505 57.8132 23.5373V23.5373Z" fill="black"/>
<path d="M55.1614 58.345C54.1474 58.2022 53.5286 57.8213 53.362 56.9169C53.2577 56.5063 53.3132 56.0714 53.5174 55.7003C53.7215 55.3291 54.059 55.0493 54.4616 54.9175C56.1515 54.2035 57.8653 53.5323 59.5742 52.8468C72.5731 47.639 85.5784 42.4248 98.59 37.2043C99.7658 36.7283 100.999 36.3284 101.622 37.8184C102.246 39.3084 101.256 39.9462 100.004 40.4461C92.1746 43.5689 84.3518 46.7075 76.5353 49.862L56.8513 57.7404C56.2515 57.9832 55.6279 58.1784 55.1614 58.345Z" fill="black"/>
</svg>
