<svg width="170" height="152" viewBox="0 0 170 152" fill="none" xmlns="http://www.w3.org/2000/svg">
<path d="M168.242 69.9769L136.962 43.2651C136.999 43.0824 137.035 42.8996 137.072 42.6804V7.74678C137.035 5.66392 135.391 3.98302 133.308 3.90993H115.841C113.832 3.90993 112.187 5.70046 112.187 7.74678V22.2172L87.1564 0.876995C85.8044 -0.292331 83.7946 -0.292331 82.406 0.876995L1.32057 69.9403C-0.250709 71.2193 -0.433416 73.5214 0.845534 75.0927C2.12448 76.6639 4.42659 76.8466 5.99788 75.5677C6.03442 75.5311 6.03442 75.5311 6.07096 75.4946L84.7812 8.47761L112.955 32.4853L129.8 46.8096L163.528 75.5312C165.063 76.8466 167.365 76.6639 168.68 75.1292C169.959 73.5945 169.777 71.2923 168.242 69.9769ZM129.727 37.0896L119.496 28.4658V11.2548H129.727V37.0896Z" fill="white"/>
<path d="M152.127 77.358L141.859 68.5881L87.1564 21.8516C85.8044 20.6823 83.7946 20.6823 82.406 21.8516L27.7035 68.5881L17.4353 77.358C15.9006 78.6735 15.7179 80.9756 17.0334 82.5104C18.3123 84.0451 20.5779 84.2278 22.0761 82.9489L22.1126 82.9123L26.6803 78.9658V147.481C26.7169 149.527 28.3978 151.208 30.4441 151.245H139.082C141.128 151.208 142.809 149.564 142.846 147.481V78.9658L147.413 82.9123C148.071 83.4604 148.875 83.7893 149.752 83.7893C150.812 83.7893 151.835 83.3143 152.529 82.5104C153.881 80.9391 153.662 78.637 152.127 77.358ZM99.3978 143.9H70.1646V104.435H99.3978V143.9ZM106.706 143.9V100.891C106.706 98.8809 105.208 97.1269 103.198 97.1269H66.3643C64.3545 97.1269 62.8563 98.8809 62.8563 100.891V143.9H33.9886V72.7173L84.7812 29.4522L135.574 72.7173V143.9H106.706Z" fill="white"/>
</svg>
