<svg width="177" height="147" viewBox="0 0 177 147" fill="none" xmlns="http://www.w3.org/2000/svg">
<path d="M177 39.1594C175.961 41.0068 174.372 41.5887 172.266 41.5841C143.866 41.5379 115.471 41.5271 87.08 41.5518C83.3576 41.5518 82.2861 40.4618 82.2861 36.6978C82.2861 26.0447 82.2861 15.3901 82.2861 4.73394C82.2861 1.50106 83.4269 0.327993 86.6228 0.327993C115.309 0.327993 143.994 0.317217 172.677 0.295664C173.529 0.254716 174.376 0.43789 175.135 0.826893C175.893 1.2159 176.537 1.79711 177 2.51249V39.1594ZM129.708 7.32024C116.776 7.32024 103.794 7.32024 90.8394 7.28791C89.5693 7.28791 89.1768 7.58349 89.1907 8.90435C89.2492 16.9096 89.2492 24.9148 89.1907 32.92C89.1907 34.227 89.5555 34.5688 90.8348 34.5688C116.747 34.5318 142.662 34.5318 168.581 34.5688C169.795 34.5688 170.119 34.2085 170.114 33.0124C170.065 25.0071 170.065 17.0019 170.114 8.99671C170.114 7.6112 169.749 7.28791 168.405 7.29253C155.515 7.34795 142.607 7.32024 129.708 7.32024Z" fill="black"/>
<path d="M177 89.9897C175.947 91.8371 174.363 92.419 172.257 92.4051C161.372 92.3359 150.486 92.3728 139.601 92.3728C136.183 92.3728 134.931 91.1259 134.927 87.6805C134.927 77.0274 134.927 66.3728 134.927 55.7166C134.927 52.3544 136.146 51.0982 139.513 51.0982C150.514 51.0982 161.515 51.0982 172.516 51.0659C174.479 51.0659 175.929 51.7402 177 53.3336V89.9897ZM156.074 58.1228C151.872 58.1228 147.674 58.1505 143.475 58.0997C142.39 58.0997 141.984 58.3445 141.993 59.5176C142.039 67.6275 142.039 75.7389 141.993 83.8519C141.993 84.988 142.33 85.3251 143.452 85.3205C151.852 85.2836 160.251 85.2836 168.65 85.3205C169.745 85.3205 170.123 85.048 170.114 83.8796C170.065 75.7635 170.065 67.6506 170.114 59.5407C170.114 58.4184 169.809 58.0813 168.678 58.0951C164.475 58.1736 160.272 58.1228 156.074 58.1228Z" fill="black"/>
<path d="M177 107.955C175.998 109.738 174.506 110.38 172.446 110.38C143.935 110.333 115.424 110.321 86.9136 110.343C86.282 110.377 85.6485 110.341 85.0247 110.236C84.2007 110.053 83.4708 109.578 82.9692 108.899C82.4677 108.22 82.2283 107.383 82.2952 106.542C82.35 105.731 82.6963 104.967 83.2701 104.392C83.8439 103.816 84.6066 103.468 85.4172 103.41C85.9912 103.353 86.5678 103.329 87.1445 103.337C115.471 103.337 143.808 103.326 172.155 103.304C174.206 103.304 175.85 103.766 177 105.526V107.955Z" fill="black"/>
<path d="M177 144.251C175.85 146.006 174.229 146.477 172.16 146.473C143.834 146.43 115.495 146.42 87.1446 146.445C83.8471 146.445 82.2537 145.276 82.2907 142.898C82.323 140.63 83.9718 139.439 87.0846 139.439C115.478 139.439 143.874 139.428 172.271 139.406C174.372 139.406 175.966 139.961 177 141.831V144.251Z" fill="black"/>
<path d="M177 125.93C176.076 127.823 174.58 128.401 172.506 128.382C163.477 128.299 154.448 128.354 145.419 128.341C144.577 128.384 143.748 128.118 143.087 127.595C142.426 127.071 141.978 126.325 141.826 125.496C141.713 124.724 141.854 123.937 142.228 123.253C142.602 122.569 143.189 122.025 143.9 121.704C144.548 121.462 145.243 121.372 145.932 121.441C154.79 121.441 163.648 121.487 172.502 121.404C174.575 121.404 176.085 121.963 177 123.856V125.93Z" fill="black"/>
<path d="M0 73.3957V4.78487C0 1.44577 1.08994 0.328125 4.44289 0.328125C25.6875 0.328125 46.9444 0.328125 68.2136 0.328125C71.4465 0.328125 72.5919 1.4781 72.5919 4.67403C72.5919 50.47 72.5919 96.2675 72.5919 142.067C72.5919 145.276 71.4696 146.436 68.2368 146.44C46.9213 146.44 25.6059 146.44 4.2905 146.44C1.0992 146.44 0 145.267 0 142.011V73.3957ZM65.6828 55.2316C65.6828 39.8477 65.6827 24.4638 65.7197 9.0846C65.7197 7.6298 65.3364 7.29266 63.9139 7.29266C45.4712 7.34192 27.033 7.34192 8.59945 7.29266C7.27397 7.29266 6.87679 7.60209 6.87679 8.98761C6.92298 39.8723 6.92298 70.754 6.87679 101.633C6.87679 103.06 7.23704 103.448 8.67798 103.443C27.0592 103.391 45.4388 103.391 63.8169 103.443C65.3364 103.443 65.7244 103.078 65.7151 101.545C65.6597 86.1148 65.6828 70.6755 65.6828 55.2316ZM36.2959 110.361C27.0591 110.361 17.8593 110.384 8.641 110.338C7.38479 110.338 6.85832 110.518 6.87217 111.982C6.95068 120.623 6.93221 129.264 6.87217 137.905C6.87217 139.078 7.12156 139.471 8.37315 139.466C26.9791 139.426 45.5866 139.426 64.1957 139.466C65.4519 139.466 65.7013 139.069 65.6966 137.901C65.6505 129.26 65.632 120.619 65.6966 111.978C65.6966 110.509 65.1702 110.334 63.9232 110.338C54.7326 110.384 45.5142 110.361 36.2959 110.361Z" fill="black"/>
<path d="M103.189 92.3589C97.6469 92.3589 92.1049 92.3589 86.5998 92.3589C83.5608 92.3589 82.2861 91.0796 82.2861 88.0638C82.2861 77.1767 82.2861 66.2927 82.2861 55.4118C82.2861 52.3636 83.4823 51.1121 86.5766 51.1028C97.7501 51.0751 108.922 51.0751 120.092 51.1028C123.108 51.1028 124.378 52.4514 124.378 55.4672C124.378 66.2989 124.378 77.1259 124.378 87.9484C124.378 91.0242 123.03 92.3497 119.945 92.3543L103.189 92.3589ZM103.189 85.3159C107.392 85.3159 111.599 85.3159 115.802 85.3159C116.855 85.3159 117.326 85.1034 117.321 83.8934C117.266 75.7743 117.266 67.6536 117.321 59.5314C117.321 58.3768 116.947 58.0951 115.843 58.0997C107.438 58.1428 99.0294 58.1428 90.6177 58.0997C89.4354 58.0997 89.1999 58.5153 89.2045 59.5914C89.2415 67.6551 89.2415 75.7188 89.2045 83.7826C89.2045 84.9972 89.5648 85.3482 90.7563 85.3297C94.8944 85.2743 99.0417 85.3159 103.189 85.3159Z" fill="black"/>
<path d="M107.1 128.35C100.668 128.35 94.2364 128.35 87.8045 128.35C84.4377 128.35 82.3086 127.006 82.2902 124.923C82.2717 122.84 84.3962 121.45 87.7353 121.445C100.667 121.445 113.612 121.445 126.571 121.445C129.91 121.445 132.086 122.831 132.113 124.877C132.141 126.923 129.947 128.341 126.645 128.35C120.13 128.359 113.615 128.359 107.1 128.35Z" fill="black"/>
</svg>
