<svg width="126" height="164" viewBox="0 0 126 164" fill="none" xmlns="http://www.w3.org/2000/svg">
<path d="M0.0553233 83.9715C0.0553233 61.0145 0.0553233 38.0607 0.0553233 15.1098C0.0553233 10.0747 2.46939 6.58682 6.76055 5.3372C8.09291 4.99976 9.46696 4.85485 10.8406 4.90693C19.657 4.90693 28.4734 4.87944 37.2898 4.93895C38.6391 4.93895 39.043 4.58192 38.9971 3.22703C38.9099 0.787298 39.7911 0.0228867 42.3061 0H83.5243C86.278 0 87.0536 0.714067 87.0032 3.40555C86.9802 4.61855 87.3519 4.93897 88.5452 4.9344C97.5864 4.88862 106.631 4.88862 115.678 4.9344C120.869 4.9344 124.398 7.46566 125.656 11.9057C125.9 12.963 125.998 14.0489 125.945 15.1327C125.945 61.0374 125.963 106.945 126 152.856C126 159.594 120.952 163.141 115.724 163.128C80.5717 163.03 45.4193 163.03 10.2669 163.128C5.00738 163.128 -0.0410536 159.521 0.000251735 152.847C0.142526 129.878 0.0553233 106.922 0.0553233 83.9715ZM106.004 84.0951C106.004 65.0258 105.981 45.952 106.045 26.8782C106.045 25.2075 105.586 24.8184 103.966 24.823C76.6584 24.8779 49.3495 24.8779 22.039 24.823C20.4005 24.823 19.9599 25.2075 19.9599 26.8782C20.015 65.0228 20.015 103.167 19.9599 141.312C19.9599 142.919 20.4189 143.244 21.9517 143.244C49.3143 143.198 76.6783 143.198 104.044 143.244C105.568 143.244 106.045 142.919 106.04 141.312C105.981 122.238 106.004 103.164 106.004 84.0951ZM4.92476 83.9852V152.513C4.92476 156.632 6.48061 158.198 10.6203 158.198H115.412C119.543 158.198 121.098 156.619 121.098 152.499V15.4486C121.098 15.0503 121.098 14.6475 121.098 14.2493C121.002 11.7317 119.263 9.90538 116.752 9.89623C107.247 9.85045 97.7425 9.89623 88.2377 9.84588C87.1775 9.84588 87.0352 10.3036 87.049 11.1733C87.0949 13.5719 87.1545 15.9749 87.049 18.3689C86.9801 19.7421 87.508 19.9435 88.715 19.9343C94.9521 19.8748 101.194 19.9023 107.436 19.9069C110.189 19.9069 111.029 20.7171 111.029 23.4727C111.029 63.7899 111.029 104.106 111.029 144.42C111.029 147.285 110.318 147.995 107.523 147.995H18.505C15.7513 147.995 15.0262 147.285 15.0262 144.571C15.0262 104.199 15.0262 63.8265 15.0262 23.4543C15.0262 20.7079 15.8477 19.9115 18.6336 19.9069C24.9349 19.9069 31.2317 19.9069 37.5285 19.9298C38.6116 19.9298 39.0384 19.6826 38.9925 18.52C38.9053 16.126 38.8961 13.7229 38.9925 11.3289C39.043 10.0702 38.5703 9.83673 37.4275 9.84588C28.377 9.88708 19.3311 9.84588 10.2852 9.84588C6.4668 9.84588 4.92017 11.4159 4.92017 15.2655L4.92476 83.9852ZM62.9772 19.9023C68.8746 19.9023 74.7676 19.8703 80.665 19.9252C81.8445 19.9252 82.2346 19.6139 82.2162 18.4009C82.1428 14.35 82.1612 10.2945 82.2162 6.24351C82.2162 5.2548 81.9914 4.8291 80.8899 4.83368C68.9848 4.86725 57.0812 4.86725 45.1791 4.83368C44.1373 4.83368 43.8023 5.14494 43.8023 6.20688C43.8528 10.2578 43.8849 14.3134 43.8023 18.3643C43.7701 19.7375 44.2612 19.9481 45.4866 19.9343C51.3061 19.8748 57.1256 19.9069 62.9772 19.9069V19.9023Z" fill="white"/>
<path d="M78.6044 67.0993C73.969 67.0993 69.3336 67.0993 64.6982 67.0993C62.6788 67.0993 61.6324 66.2662 61.5911 64.7099C61.5498 63.1536 62.509 62.2016 64.5605 62.197C73.8863 62.1695 83.2183 62.1695 92.5564 62.197C94.539 62.197 95.6405 63.1582 95.6267 64.6642C95.6129 66.1701 94.4427 67.0993 92.5197 67.1039C87.8752 67.1085 83.2398 67.0993 78.6044 67.0993Z" fill="white"/>
<path d="M78.6272 89.1026C83.2626 89.1026 87.8933 89.1026 92.5287 89.1026C94.4471 89.1026 95.6083 90.0775 95.6129 91.5743C95.6175 93.0711 94.5114 93.9591 92.5196 94.0187C92.1203 94.0187 91.721 94.0187 91.3171 94.0187H73.2942C70.4303 94.0187 67.5711 94.0187 64.7119 94.0187C62.5502 93.9958 61.5359 93.1444 61.591 91.4874C61.6415 89.9311 62.6925 89.1117 64.7211 89.1026C69.3564 89.0934 73.9918 89.1026 78.6272 89.1026Z" fill="white"/>
<path d="M78.8111 35.2776C83.4006 35.2776 87.9625 35.2776 92.5382 35.2776C94.475 35.2776 95.6224 36.1931 95.6087 37.6944C95.5949 39.1958 94.4659 40.0655 92.5016 40.0655C83.1161 40.0655 73.7351 40.0655 64.3542 40.0655C63.0646 40.0655 62.0595 39.6673 61.6923 38.3993C61.5097 37.9057 61.5011 37.3647 61.668 36.8655C61.8348 36.3663 62.1672 35.9386 62.6102 35.6529C63.2114 35.2227 63.8953 35.241 64.5837 35.241L78.8111 35.2776Z" fill="white"/>
<path d="M78.6051 120.929C73.9146 120.929 69.2225 120.929 64.529 120.929C62.5739 120.929 61.6285 120.169 61.5918 118.613C61.5551 117.057 62.5418 116.146 64.5612 116.146C73.884 116.146 83.2159 116.146 92.557 116.146C94.4984 116.146 95.6457 117.061 95.632 118.558C95.6182 120.055 94.4938 120.929 92.5295 120.934C87.8788 120.937 83.2374 120.935 78.6051 120.929Z" fill="white"/>
<path d="M32.8567 40.7568C33.7746 40.6881 34.3621 41.1916 34.9404 41.7684C36.0694 42.9036 37.2351 43.9838 38.3228 45.1739C39.0067 45.9383 39.4059 45.8056 40.0622 45.1373C42.9811 42.159 45.9322 39.2081 48.9154 36.2847C50.2647 34.9573 51.8022 34.9115 52.7981 36.12C53.693 37.2094 53.6517 38.4086 52.6879 39.3699C48.7961 43.3155 44.8705 47.2322 40.9113 51.1199C39.8144 52.191 38.511 52.1681 37.3912 51.0787C35.2938 49.051 33.2606 46.9591 31.1908 44.9039C30.4564 44.1624 30.1168 43.2743 30.585 42.2536C30.7481 41.7911 31.0584 41.3945 31.4686 41.1243C31.8787 40.8541 32.3662 40.725 32.8567 40.7568V40.7568Z" fill="white"/>
<path d="M39.2264 132.725C38.8539 132.713 38.4877 132.625 38.1501 132.468C37.8124 132.311 37.5103 132.087 37.262 131.809C35.2977 129.823 33.2921 127.877 31.3416 125.859C30.13 124.609 30.1025 123.305 31.1626 122.252C32.2228 121.199 33.5859 121.3 34.8113 122.453C35.9311 123.511 37.0601 124.568 38.0652 125.726C38.8775 126.642 39.3778 126.733 40.2957 125.767C43.0861 122.838 46.0096 120.027 48.8643 117.162C49.8418 116.182 50.9066 115.674 52.2238 116.448C52.5447 116.615 52.8214 116.855 53.0313 117.149C53.2413 117.444 53.3785 117.783 53.4318 118.14C53.4851 118.497 53.4528 118.862 53.3378 119.204C53.2227 119.546 53.0282 119.857 52.7699 120.11C48.8276 124.147 44.798 128.102 40.796 132.084C40.3636 132.473 39.8084 132.7 39.2264 132.725V132.725Z" fill="white"/>
<path d="M39.0704 105.815C38.3879 105.737 37.7544 105.423 37.2805 104.927C35.2978 102.954 33.2968 100.999 31.3462 98.976C30.13 97.7264 30.075 96.4036 31.0939 95.3508C32.1127 94.298 33.4895 94.3026 34.848 95.5888C36.0046 96.6874 37.1428 97.7951 38.2351 98.9806C38.9418 99.7634 39.3916 99.745 40.1305 98.9806C42.9944 96.0374 45.9316 93.1628 48.8505 90.2562C49.516 89.5925 50.2274 89.0112 51.2325 89.1302C53.1784 89.3499 54.1836 91.6889 52.7884 93.1354C48.8735 97.2046 44.8256 101.146 40.8144 105.123C40.5853 105.35 40.3127 105.528 40.013 105.646C39.7134 105.765 39.3928 105.822 39.0704 105.815V105.815Z" fill="white"/>
<path d="M39.2274 78.7808C38.3416 78.8678 37.722 78.4009 37.1392 77.815C35.2483 75.9154 33.33 74.0387 31.4483 72.1299C30.154 70.8162 30.0714 69.4522 31.1178 68.3811C32.1642 67.31 33.5778 67.4656 34.895 68.7061C35.8129 69.5758 36.6757 70.4775 37.5614 71.361C39.1632 72.963 39.1632 72.9584 40.7098 71.4205L49.0672 63.0851C49.4448 62.647 49.965 62.3555 50.5365 62.2617C51.1081 62.168 51.6944 62.278 52.1927 62.5724C53.1473 63.0759 53.4824 63.9456 53.3585 65.0305C53.2476 65.6492 52.9228 66.2097 52.4406 66.6142L41.1734 77.8562C40.6043 78.3872 40.0489 78.8541 39.2274 78.7808Z" fill="white"/>
<path d="M71.3813 46.9773C73.6117 46.9773 75.8421 46.9773 78.068 46.9773C79.9038 46.9773 80.9549 47.934 80.9686 49.4216C80.9824 50.9093 79.959 51.8888 78.1048 51.9071C73.5337 51.959 68.9611 51.959 64.3869 51.9071C62.5052 51.8843 61.5551 50.923 61.5918 49.3759C61.6286 47.8287 62.6521 47.0048 64.52 46.9819C66.8056 46.9544 69.0957 46.9773 71.3813 46.9773Z" fill="white"/>
<path d="M71.1881 132.789C68.9622 132.789 66.7318 132.83 64.5013 132.789C62.5187 132.738 61.5273 131.805 61.5961 130.193C61.6604 128.692 62.6792 127.859 64.5747 127.85C69.0357 127.831 73.4951 127.831 77.953 127.85C79.876 127.85 80.9913 128.82 80.9729 130.354C80.9546 131.887 79.9128 132.748 78.0495 132.789C75.7639 132.83 73.4783 132.789 71.1881 132.789Z" fill="white"/>
<path d="M71.3529 73.9975C73.6477 73.9975 75.9424 73.9975 78.2096 73.9975C79.9444 73.9975 80.9358 74.8855 80.9633 76.3503C80.9908 77.815 80.0454 78.7763 78.3014 78.79C73.614 78.8174 68.9282 78.8174 64.2438 78.79C62.4906 78.79 61.5727 77.8745 61.5911 76.3548C61.6094 74.8352 62.5594 74.0158 64.3218 73.9975C66.6625 73.9792 69.0077 73.9975 71.3529 73.9975Z" fill="white"/>
<path d="M71.2015 105.828C69.0306 105.828 66.8599 105.828 64.689 105.828C62.6651 105.828 61.6324 105 61.5911 103.43C61.5498 101.86 62.509 100.967 64.5605 100.958C69.0215 100.931 73.4795 100.931 77.9343 100.958C79.9445 100.958 80.9863 101.842 80.9679 103.393C80.9496 104.945 79.8573 105.819 77.8884 105.833C75.6625 105.842 73.432 105.828 71.2015 105.828Z" fill="white"/>
<path d="M63.0002 9.95577C66.5387 9.95577 70.0817 9.95577 73.6202 9.95577C75.5202 9.95577 76.7043 10.9262 76.7089 12.4092C76.7135 13.8923 75.5845 14.8535 73.6248 14.8627C66.5447 14.8902 59.4631 14.8902 52.38 14.8627C50.4111 14.8627 49.2913 13.9014 49.2959 12.4092C49.3005 10.917 50.503 9.96035 52.5499 9.95577C56.0333 9.95119 59.5167 9.95577 63.0002 9.95577Z" fill="white"/>
</svg>
