<svg width="161" height="162" viewBox="0 0 161 162" fill="none" xmlns="http://www.w3.org/2000/svg">
<path d="M161 11.1621V151.412C160.24 153.224 159.716 155.122 158.507 156.749C156.498 159.443 153.686 160.79 150.63 161.79H10.38C10.1607 161.668 9.93299 161.561 9.69863 161.471C3.28282 159.502 0.00594442 155.083 0.00594442 148.328C0.00594442 103.629 0.00594442 58.9322 0.00594442 14.2381C-0.0200473 13.2436 0.039228 12.2488 0.183158 11.2645C1.29381 4.96289 6.44936 0.788086 13.1369 0.788086H147.857C148.223 0.788086 148.59 0.788086 148.956 0.788086C151.587 0.908582 154.116 1.84457 156.191 3.46628C158.783 5.43947 160.047 8.20033 161 11.1621ZM80.6546 5.81361H14.0073C7.97355 5.81361 5.03542 8.75174 5.03542 14.7816V147.793C5.03542 153.822 7.97354 156.761 14.0034 156.761H147.014C153.044 156.761 155.982 153.826 155.982 147.793V14.7855C155.982 8.75175 153.048 5.81361 147.014 5.81361H80.6546Z" fill="black"/>
<path d="M80.4339 61.1613H28.7136C25.8936 61.1613 25.1689 60.4445 25.1689 57.6639V29.3658C25.1689 26.6916 25.9251 25.9432 28.6347 25.9432H132.387C135.096 25.9432 135.856 26.6916 135.856 29.3619C135.856 38.8458 135.856 48.3297 135.856 57.8136C135.856 60.3894 135.069 61.1574 132.469 61.1574L80.4339 61.1613ZM80.4339 56.1318C96.7262 56.1318 113.021 56.1397 129.319 56.1555C130.417 56.1555 130.855 55.994 130.843 54.7337C130.777 47.2925 130.777 39.8527 130.843 32.4142C130.843 31.2327 130.539 30.9452 129.37 30.9452C96.7747 30.9767 64.1823 30.9767 31.5926 30.9452C30.3598 30.9452 30.1472 31.339 30.1551 32.4536C30.2063 39.7871 30.222 47.1245 30.1551 54.458C30.1551 55.8483 30.4937 56.1752 31.8761 56.1712C48.0673 56.1121 64.2585 56.1318 80.4497 56.1318H80.4339Z" fill="black"/>
<path d="M70.446 91.4326C70.446 97.8786 70.446 104.323 70.446 110.767C70.446 113.153 69.6228 113.988 67.2558 113.988H28.2646C26.0118 113.988 25.1611 113.118 25.1611 110.838C25.1611 97.8458 25.1611 84.8488 25.1611 71.8465C25.1611 69.57 26.0157 68.6957 28.2725 68.6957C41.2669 68.6957 54.264 68.6957 67.2637 68.6957C69.6268 68.6957 70.446 69.5306 70.446 71.9252C70.4512 78.4343 70.4512 84.9367 70.446 91.4326ZM34.3024 73.7369L65.3495 104.784C65.3911 104.711 65.4116 104.628 65.4086 104.544C65.4086 94.6386 65.4087 84.7372 65.4362 74.8318C65.4362 73.8905 65.0975 73.7094 64.2547 73.7212C61.3717 73.7645 58.4887 73.7212 55.59 73.7212L34.3024 73.7369ZM61.2535 108.963L30.2418 77.9551C30.2418 77.896 30.1945 78.0378 30.1945 78.1796C30.1945 88.081 30.1945 97.9824 30.1591 107.888C30.1591 109.069 30.7577 108.971 31.5257 108.967C37.3442 108.967 43.1601 108.967 48.9733 108.967L61.2535 108.963Z" fill="black"/>
<path d="M105.593 88.8332H78.8744C76.2632 88.8332 75.4834 88.0455 75.4834 85.4973C75.4834 80.9417 75.4834 76.3836 75.4834 71.8228C75.4834 69.57 76.3499 68.7153 78.6342 68.7153C96.6568 68.7153 114.679 68.7153 132.702 68.7153C134.99 68.7153 135.853 69.5621 135.853 71.811C135.853 76.4742 135.853 81.1374 135.853 85.8005C135.853 87.9549 134.967 88.8293 132.789 88.8293C123.725 88.8372 114.66 88.8385 105.593 88.8332ZM105.593 83.8037C113.502 83.8037 121.414 83.8037 129.323 83.8037C130.382 83.8037 130.93 83.7092 130.867 82.4056C130.748 79.8967 130.8 77.38 130.867 74.8673C130.886 73.9969 130.654 73.6857 129.736 73.6857C113.72 73.7093 97.6899 73.7093 81.6471 73.6857C80.7413 73.6857 80.4931 73.9693 80.5128 74.8437C80.564 77.3052 80.5955 79.7707 80.5128 82.2283C80.4694 83.4335 80.7728 83.8037 82.0449 83.8037C89.8707 83.7722 97.728 83.7959 105.585 83.7959L105.593 83.8037Z" fill="black"/>
<path d="M90.3983 126.568C75.9414 126.568 61.4832 126.577 47.0236 126.596C45.7515 126.596 45.1883 126.446 45.2474 124.941C45.3773 121.546 45.2788 121.542 48.7053 121.542C77.1544 121.542 105.601 121.529 134.045 121.503C135.62 121.503 135.943 121.928 135.892 123.405C135.774 126.556 135.856 126.556 132.674 126.556L90.3983 126.568Z" fill="black"/>
<path d="M70.2723 139.148C55.8141 139.148 41.3559 139.148 26.8977 139.175C25.6255 139.175 25.0623 139.022 25.1214 137.521C25.2514 134.122 25.1529 134.118 28.5794 134.118C57.0259 134.118 85.4723 134.105 113.919 134.079C115.494 134.079 115.817 134.508 115.766 135.985C115.648 139.136 115.73 139.136 112.548 139.136L70.2723 139.148Z" fill="black"/>
<path d="M105.684 101.413C96.0973 101.413 86.515 101.389 76.9326 101.44C75.7511 101.44 75.436 101.161 75.4517 99.9752C75.5069 96.3833 75.4518 96.3833 79.02 96.3833C97.3997 96.3833 115.779 96.3728 134.159 96.3518C135.53 96.3518 135.923 96.6551 135.88 98.0572C135.77 101.409 135.849 101.413 132.54 101.413H105.684Z" fill="black"/>
<path d="M105.861 108.963C115.341 108.963 124.821 108.994 134.301 108.927C135.648 108.927 135.935 109.321 135.904 110.59C135.821 113.988 135.884 113.992 132.461 113.992C114.082 113.992 95.7021 114 77.3225 114.016C75.9952 114.016 75.4044 113.835 75.4674 112.283C75.6013 108.967 75.5028 108.963 78.8466 108.963H105.861Z" fill="black"/>
<path d="M27.8193 121.542C30.1824 121.542 30.1824 121.542 30.1824 123.906C30.1824 126.552 30.1824 126.552 27.6067 126.552C27.2421 126.527 26.8763 126.527 26.5117 126.552C25.405 126.722 24.9757 126.277 25.1451 125.182C25.1687 124.87 25.1687 124.556 25.1451 124.244C25.1648 121.542 25.1648 121.542 27.8193 121.542Z" fill="black"/>
<path d="M40.258 124.095C40.258 126.568 40.258 126.568 37.3514 126.568C35.2286 126.568 35.2285 126.568 35.2285 123.468C35.2285 121.539 35.2285 121.539 38.3793 121.542C40.258 121.542 40.258 121.542 40.258 124.095Z" fill="black"/>
</svg>
