<svg width="127" height="165" viewBox="0 0 127 165" fill="none" xmlns="http://www.w3.org/2000/svg">
<path d="M0.0555916 84.5747C0.0555916 61.4483 0.0555916 38.322 0.0555916 15.1957C0.0555916 10.1228 2.48136 6.60864 6.79333 5.34963C8.13255 5.01189 9.51299 4.86593 10.8932 4.91613C19.7524 4.91613 28.6115 4.89307 37.4706 4.94841C38.8265 4.94841 39.2369 4.59329 39.1862 3.22822C39.0986 0.77016 39.984 0 42.5112 0H83.9293C86.6963 0 87.4757 0.714821 87.425 3.43113C87.4019 4.64863 87.7754 4.97146 88.9745 4.96685C98.0658 4.92073 107.156 4.92073 116.244 4.96685C121.46 4.96685 125.006 7.52175 126.27 11.9951C126.512 13.053 126.608 14.1393 126.556 15.2234C126.556 61.4791 126.574 107.732 126.611 153.981C126.611 160.774 121.538 164.344 116.285 164.33C80.9623 164.232 45.641 164.232 10.3213 164.33C5.03161 164.33 -0.0412527 160.696 0.000252958 153.977C0.138605 130.83 0.0555916 107.726 0.0555916 84.5747ZM106.513 84.6992C106.513 65.4867 106.49 46.2742 106.554 27.0525C106.554 25.3692 106.093 24.9818 104.465 24.9864C77.0255 25.0387 49.5857 25.0387 22.1458 24.9864C20.4948 24.9864 20.0521 25.3692 20.0567 27.0525C20.1059 65.4836 20.1059 103.915 20.0567 142.346C20.0567 143.969 20.5179 144.297 22.0582 144.292C49.5534 144.246 77.0516 144.246 104.553 144.292C106.079 144.292 106.559 143.969 106.554 142.346C106.495 123.129 106.513 103.916 106.513 84.6992ZM4.94402 84.5931V153.631C4.94402 157.781 6.50736 159.359 10.6671 159.363H115.953C120.104 159.363 121.663 157.772 121.663 153.617V15.5369C121.663 15.1357 121.663 14.7345 121.663 14.3333C121.561 11.7922 119.818 9.95674 117.291 9.94291C107.74 9.9014 98.1888 9.94292 88.6424 9.8968C87.5725 9.8968 87.4296 10.358 87.4481 11.2342C87.4896 13.6508 87.5495 16.0719 87.425 18.4792C87.3558 19.8628 87.8861 20.0657 89.099 20.0565C95.371 20.0011 101.643 20.0288 107.91 20.0565C110.677 20.0565 111.521 20.8727 111.521 23.649C111.521 64.2661 111.521 104.885 111.521 145.505C111.521 148.392 110.811 149.107 107.998 149.107H18.5902C15.8232 149.107 15.0945 148.387 15.0945 145.653C15.0945 104.977 15.0945 64.3015 15.0945 23.626C15.0945 20.8589 15.92 20.0565 18.724 20.0565C25.0513 20.0565 31.3785 20.0288 37.7058 20.0565C38.7988 20.0565 39.2231 19.812 39.1769 18.636C39.0893 16.2241 39.0801 13.8029 39.1769 11.391C39.2277 10.1228 38.7573 9.89219 37.6044 9.8968C28.5146 9.93831 19.4248 9.8968 10.3305 9.92447C6.49354 9.92447 4.94402 11.5063 4.94402 15.3848C4.94402 38.4558 4.94402 61.5252 4.94402 84.5931ZM63.2825 20.0288C69.204 20.0288 75.1255 20.0011 81.0516 20.0565C82.2414 20.0565 82.6287 19.7429 82.6103 18.5208C82.5365 14.4348 82.5595 10.3534 82.6103 6.27198C82.6103 5.27123 82.3889 4.84694 81.2775 4.84694C69.3208 4.88076 57.3595 4.88076 45.3936 4.84694C44.3467 4.84694 44.01 5.16054 44.01 6.23046C44.0608 10.3119 44.093 14.3932 44.01 18.4746C43.9778 19.8581 44.4713 20.0703 45.7026 20.0611C51.5503 20.0011 57.4164 20.0288 63.2825 20.0288Z" fill="black"/>
<path d="M78.9808 81.8998C74.323 81.8998 69.6651 81.8998 65.0072 81.8998C62.9827 81.8998 61.9266 81.0605 61.8851 79.4879C61.8436 77.9153 62.8074 76.9653 64.8689 76.9561C74.243 76.9284 83.6202 76.9284 93.0005 76.9561C94.9927 76.9561 96.0996 77.9199 96.0858 79.4418C96.072 80.9636 94.896 81.8952 92.9683 81.8998C88.315 81.9275 83.6387 81.8998 78.9808 81.8998Z" fill="black"/>
<path d="M79.0034 115.934C83.6613 115.934 88.3192 115.934 92.977 115.934C94.9001 115.934 96.0715 116.917 96.0715 118.425C96.0715 119.933 94.9647 120.827 92.9632 120.887C92.562 120.887 92.1607 120.887 91.7595 120.887H73.6446C70.7714 120.887 67.8937 120.887 65.0206 120.887C62.8485 120.887 61.8339 120.011 61.8846 118.337C61.94 116.774 62.9915 115.944 65.0299 115.939C69.6877 115.925 74.3456 115.934 79.0034 115.934Z" fill="black"/>
<path d="M79.1877 35.5149C83.7994 35.5149 88.3974 35.5149 92.9815 35.5149C94.9322 35.5149 96.0805 36.4373 96.0713 37.9499C96.0621 39.4626 94.9184 40.3388 92.9445 40.3388C83.5181 40.3388 74.0871 40.3388 64.6607 40.3388C63.3648 40.3388 62.3548 39.9376 61.9859 38.6601C61.8033 38.1626 61.7952 37.6179 61.9628 37.1151C62.1304 36.6124 62.4637 36.1815 62.9082 35.8931C63.5124 35.4319 64.1995 35.4734 64.8913 35.478L79.1877 35.5149Z" fill="black"/>
<path d="M71.7129 47.3117C73.9542 47.3117 76.1955 47.2887 78.4322 47.3117C80.2769 47.3117 81.3329 48.2756 81.3514 49.7744C81.3698 51.2732 80.3322 52.2555 78.4691 52.2786C73.8758 52.3247 69.281 52.3247 64.6846 52.2786C62.7938 52.2786 61.8391 51.2871 61.876 49.7283C61.9129 48.1695 62.9414 47.3348 64.8184 47.3117C67.1242 47.2841 69.407 47.3117 71.7129 47.3117Z" fill="black"/>
<path d="M71.7128 88.8636C74.0186 88.8636 76.3245 88.8636 78.6027 88.8636C80.3505 88.8636 81.342 89.7536 81.3697 91.2294C81.3974 92.7052 80.4474 93.6782 78.6995 93.6875C73.9863 93.7151 69.2762 93.7151 64.5692 93.6875C62.8075 93.6875 61.8851 92.7651 61.9036 91.2386C61.922 89.7121 62.8766 88.8774 64.6476 88.8636C66.9857 88.8497 69.3377 88.8636 71.7128 88.8636Z" fill="black"/>
<path d="M71.5466 132.786C69.3607 132.786 67.1794 132.786 64.998 132.786C62.9642 132.786 61.9266 131.946 61.8897 130.369C61.8528 128.792 62.812 127.888 64.8735 127.874C69.353 127.853 73.8326 127.853 78.3121 127.874C80.3275 127.874 81.3743 128.76 81.3558 130.328C81.3374 131.896 80.2398 132.767 78.266 132.786C76.0247 132.8 73.7833 132.786 71.5466 132.786Z" fill="black"/>
<path d="M63.301 10.0074C66.8612 10.0074 70.4168 10.0074 73.9725 10.0074C75.8864 10.0074 77.0716 10.9851 77.0762 12.4793C77.0808 13.9735 75.9509 14.942 73.9771 14.9512C66.8627 14.9727 59.7469 14.9727 52.6295 14.9512C50.651 14.9512 49.5257 13.9873 49.5303 12.4839C49.5349 10.9805 50.7432 10.012 52.8001 10.0074C56.3004 9.99817 59.8007 10.0074 63.301 10.0074Z" fill="black"/>
<path d="M55.4149 44.0835C55.3734 43.7745 55.332 43.4701 55.2767 43.1611C54.8561 40.8616 53.8001 38.7257 52.2283 36.9953C50.4752 34.9703 48.0926 33.593 45.4629 33.0845C44.9076 32.9689 44.3452 32.8904 43.7795 32.8493L43.7104 32.7986H41.7781L41.28 32.8631C40.9802 32.9046 40.6805 32.9462 40.3854 32.9969C38.2051 33.3951 36.1795 34.395 34.5376 35.8838C33.2822 36.9297 32.2493 38.2166 31.5 39.6686C30.7506 41.1205 30.3001 42.708 30.1749 44.3371C29.9408 46.738 30.4222 49.1545 31.5584 51.2824C32.4083 52.9726 33.6305 54.448 35.1331 55.5975C36.6357 56.747 38.3795 57.5407 40.2331 57.9187C41.063 58.1026 41.9104 58.1953 42.7604 58.1954C43.0647 58.1954 43.3737 58.1954 43.6827 58.1585C46.5103 57.9544 49.1891 56.8124 51.2942 54.9136C53.3994 53.0148 54.8105 50.4677 55.3043 47.676C55.3596 47.3855 55.3919 47.0903 55.4288 46.7952C55.4288 46.6707 55.4565 46.5415 55.475 46.4124V44.6184L55.4149 44.0835ZM40.1962 44.8675C39.7711 44.442 39.4576 43.9183 39.2833 43.3426C39.109 42.767 39.0793 42.1573 39.197 41.5675C39.3146 40.9777 39.5758 40.426 39.9576 39.9612C40.3394 39.4965 40.83 39.1331 41.3857 38.9033C41.9415 38.6734 42.5453 38.5842 43.1438 38.6434C43.7424 38.7027 44.3171 38.9087 44.817 39.2431C45.3168 39.5775 45.7265 40.0301 46.0097 40.5607C46.293 41.0912 46.4409 41.6835 46.4405 42.2849C46.4461 42.7637 46.3559 43.2387 46.1753 43.6822C45.9946 44.1256 45.7271 44.5284 45.3886 44.867C45.05 45.2056 44.6472 45.473 44.2038 45.6537C43.7604 45.8343 43.2853 45.9245 42.8065 45.919C42.3244 45.9226 41.8463 45.8307 41.3999 45.6487C40.9535 45.4666 40.5475 45.198 40.2054 44.8583L40.1962 44.8675ZM40.0349 47.51C40.8839 47.9722 41.8352 48.2143 42.8019 48.2143C43.7686 48.2143 44.7199 47.9722 45.5689 47.51C46.715 47.928 47.7503 48.6023 48.596 49.4815C49.4416 50.3607 50.075 51.4215 50.4481 52.5829C48.994 54.1526 47.0928 55.2377 45.0017 55.6912C44.2765 55.8527 43.5356 55.9331 42.7927 55.931C40.2054 55.9466 37.709 54.9771 35.8104 53.2193C35.5891 53.0164 35.3724 52.8043 35.1648 52.5829C35.5348 51.4188 36.1672 50.3552 37.0131 49.4741C37.8591 48.593 38.896 47.9179 40.0441 47.5008L40.0349 47.51ZM47.4643 45.8867C48.3039 44.8051 48.739 43.464 48.6944 42.0956C48.6497 40.7271 48.1281 39.4172 47.2199 38.3926C46.2313 37.2452 44.8359 36.5266 43.3277 36.3881C41.8196 36.2496 40.3166 36.702 39.1356 37.6501C38.4829 38.1676 37.9444 38.8146 37.5539 39.5503C37.1634 40.2861 36.9294 41.0946 36.8665 41.9252C36.7753 43.3575 37.2264 44.7717 38.1302 45.8867C36.1739 46.8705 34.5885 48.4608 33.6106 50.42C32.7979 48.9014 32.3727 47.2057 32.3726 45.4833C32.3725 43.7608 32.7974 42.065 33.61 40.5463C34.4225 39.0276 35.5973 37.7329 37.0303 36.7772C38.4632 35.8214 40.1098 35.2342 41.8242 35.0676C42.1516 35.0353 42.4791 35.0214 42.8019 35.0214C44.6024 35.0328 46.3694 35.5087 47.932 36.4032C49.4946 37.2976 50.7998 38.5803 51.7214 40.1271C52.643 41.6738 53.1496 43.4323 53.1924 45.2323C53.2351 47.0323 52.8125 48.8128 51.9654 50.4016L51.7671 50.0326C50.7773 48.2542 49.2834 46.8085 47.4735 45.8775L47.4643 45.8867Z" fill="black"/>
<path d="M55.4151 82.2964C55.3736 81.9874 55.3322 81.683 55.2768 81.374C54.8562 79.0745 53.8002 76.9386 52.2284 75.2081C50.4753 73.1832 48.0928 71.8059 45.463 71.2974C44.9078 71.1818 44.3454 71.1032 43.7797 71.0622L43.7106 71.0115H41.7783L41.2802 71.076C40.9804 71.1129 40.6807 71.1544 40.3855 71.2098C38.2063 71.6083 36.1812 72.6065 34.5377 74.0921C33.2834 75.1388 32.2512 76.426 31.502 77.8778C30.7527 79.3296 30.3015 80.9166 30.1751 82.5454C29.9406 84.9478 30.4219 87.3659 31.5586 89.4953C32.4132 91.1841 33.6401 92.6568 35.1468 93.8024C36.6534 94.9479 38.4006 95.7365 40.2564 96.1085C41.0857 96.2962 41.9333 96.3905 42.7836 96.3899C43.088 96.3899 43.397 96.3899 43.7059 96.353C46.5336 96.1488 49.2122 95.0069 51.3173 93.108C53.4225 91.2092 54.8338 88.6622 55.3275 85.8705C55.3828 85.5799 55.4151 85.2848 55.452 84.9897C55.452 84.8605 55.4797 84.736 55.4982 84.6069V82.8221L55.4151 82.2964ZM40.1964 83.0804C39.7713 82.6549 39.4578 82.1312 39.2835 81.5555C39.1092 80.9799 39.0795 80.3702 39.1971 79.7804C39.3147 79.1905 39.576 78.6389 39.9578 78.1741C40.3396 77.7094 40.8301 77.346 41.3859 77.1162C41.9417 76.8863 42.5455 76.7971 43.144 76.8563C43.7425 76.9156 44.3172 77.1216 44.8171 77.456C45.317 77.7904 45.7267 78.243 46.0099 78.7736C46.2931 79.3042 46.441 79.8964 46.4407 80.4978C46.4462 80.9766 46.3561 81.4516 46.1754 81.8951C45.9947 82.3385 45.7273 82.7413 45.3887 83.0799C45.0502 83.4184 44.6474 83.6859 44.2039 83.8666C43.7605 84.0472 43.2854 84.1374 42.8067 84.1319C42.3252 84.1367 41.8476 84.0463 41.4012 83.8658C40.9548 83.6854 40.5484 83.4184 40.2056 83.0804H40.1964ZM40.035 85.7183C40.8837 86.1817 41.8351 86.4245 42.8021 86.4245C43.769 86.4245 44.7204 86.1817 45.5691 85.7183C46.7151 86.1363 47.7505 86.8106 48.5961 87.6898C49.4417 88.569 50.0752 89.6298 50.4482 90.7912C48.9941 92.3609 47.093 93.446 45.0019 93.8995C44.2767 94.061 43.5358 94.1414 42.7928 94.1393C40.2055 94.1549 37.7092 93.1854 35.8106 91.4276C35.5892 91.2247 35.3725 91.0126 35.165 90.7912C35.5374 89.6295 36.1707 88.5684 37.0164 87.6891C37.8622 86.8098 38.8979 86.1357 40.0442 85.7183H40.035ZM47.4645 84.0996C48.304 83.018 48.7392 81.6769 48.6945 80.3084C48.6499 78.94 48.1283 77.6301 47.22 76.6055C46.2314 75.4582 44.836 74.7395 43.3279 74.601C41.8197 74.4625 40.3168 74.9149 39.1358 75.863C38.4831 76.3805 37.9446 77.0275 37.5541 77.7632C37.1636 78.4989 36.9295 79.3075 36.8667 80.1381C36.7754 81.5704 37.2265 82.9847 38.1303 84.0996C36.1741 85.0834 34.5886 86.6737 33.6108 88.6329C32.7981 87.1143 32.3729 85.4186 32.3727 83.6961C32.3726 81.9737 32.7976 80.2779 33.6101 78.7592C34.4226 77.2405 35.5975 75.9458 37.0304 74.9901C38.4633 74.0343 40.11 73.4471 41.8243 73.2804C42.1518 73.2482 42.4792 73.2343 42.8021 73.2343C44.603 73.2444 46.3708 73.7195 47.9342 74.6136C49.4976 75.5077 50.8034 76.7906 51.7253 78.3378C52.6471 79.885 53.1536 81.644 53.1957 83.4445C53.2378 85.245 52.814 87.0259 51.9655 88.6145L51.7673 88.2455C50.7761 86.4705 49.2823 85.0281 47.4737 84.0996H47.4645Z" fill="black"/>
<path d="M55.4148 120.514C55.3733 120.21 55.3318 119.905 55.2765 119.592C54.8568 117.292 53.8007 115.156 52.2281 113.426C50.4764 111.399 48.0932 110.021 45.4627 109.515C44.9074 109.399 44.345 109.321 43.7793 109.28L43.7102 109.229H41.7779L41.2798 109.289C40.9801 109.33 40.6803 109.372 40.3852 109.427C38.2059 109.826 36.1808 110.824 34.5374 112.31C33.283 113.356 32.2509 114.644 31.5016 116.095C30.7524 117.547 30.3012 119.134 30.1747 120.763C29.9411 123.165 30.4224 125.583 31.5582 127.713C32.4129 129.402 33.6398 130.874 35.1464 132.02C36.6531 133.165 38.4002 133.954 40.256 134.326C41.0853 134.514 41.933 134.608 42.7833 134.607C43.0876 134.607 43.3966 134.607 43.7056 134.571C46.5332 134.366 49.2118 133.224 51.317 131.326C53.4222 129.427 54.8334 126.88 55.3272 124.088C55.3825 123.797 55.4148 123.502 55.4517 123.207C55.4517 123.078 55.4794 122.954 55.4978 122.824V121.03L55.4148 120.514ZM40.196 121.303C39.6914 120.789 39.3493 120.137 39.2124 119.43C39.0756 118.723 39.15 117.991 39.4265 117.326C39.7029 116.661 40.1692 116.092 40.767 115.691C41.3648 115.289 42.0676 115.072 42.7879 115.067C43.7541 115.067 44.6808 115.451 45.3641 116.135C46.0473 116.818 46.4311 117.744 46.4311 118.711C46.4311 119.677 46.0473 120.604 45.3641 121.287C44.6808 121.97 43.7541 122.354 42.7879 122.354C41.8218 122.359 40.8932 121.981 40.2053 121.303H40.196ZM40.0347 123.94C40.8833 124.404 41.8348 124.647 42.8017 124.647C43.7687 124.647 44.7201 124.404 45.5688 123.94C46.7151 124.358 47.7507 125.032 48.5965 125.911C49.4422 126.791 50.0755 127.852 50.4479 129.013C48.9938 130.583 47.0926 131.668 45.0015 132.122C44.2763 132.283 43.5354 132.364 42.7925 132.361C40.2052 132.377 37.7088 131.408 35.8103 129.65C35.5889 129.447 35.3722 129.23 35.1647 129.013C35.5371 127.852 36.1704 126.791 37.0161 125.911C37.8618 125.032 38.8975 124.358 40.0439 123.94H40.0347ZM47.4641 122.322C48.0416 121.582 48.4309 120.713 48.5986 119.79C48.7734 118.912 48.7393 118.006 48.499 117.144C48.2586 116.282 47.8187 115.488 47.2151 114.828C46.2271 113.679 44.8316 112.96 43.3231 112.821C41.8146 112.683 40.3114 113.136 39.1308 114.085C38.4781 114.603 37.9396 115.25 37.5491 115.985C37.1586 116.721 36.9245 117.53 36.8617 118.36C36.7705 119.793 37.2216 121.207 38.1254 122.322C36.1691 123.306 34.5838 124.896 33.6059 126.855C32.7932 125.336 32.3679 123.641 32.3678 121.918C32.3676 120.196 32.7926 118.5 33.6052 116.981C34.4177 115.463 35.5925 114.168 37.0255 113.212C38.4584 112.256 40.105 111.669 41.8194 111.503C42.1468 111.47 42.4743 111.456 42.7971 111.456C44.5974 111.467 46.3645 111.942 47.9272 112.836C49.49 113.73 50.7955 115.012 51.7171 116.559C52.6388 118.105 53.1455 119.864 53.1882 121.663C53.2308 123.463 52.808 125.244 51.9606 126.832C51.896 126.712 51.8315 126.588 51.7623 126.468C50.7723 124.693 49.2802 123.251 47.4734 122.322H47.4641Z" fill="black"/>
</svg>
