<svg width="174" height="184" viewBox="0 0 174 184" fill="none" xmlns="http://www.w3.org/2000/svg">
<path d="M131.003 29.5444C126.478 29.5444 122.795 25.8608 122.795 21.3368C122.795 16.8127 126.478 13.1292 131.003 13.1292C135.527 13.1292 139.21 16.8127 139.21 21.3368C139.21 25.8608 135.527 29.5444 131.003 29.5444ZM131.003 16.4122C128.287 16.4122 126.078 18.6217 126.078 21.3368C126.078 24.0518 128.287 26.2613 131.003 26.2613C133.718 26.2613 135.927 24.0518 135.927 21.3368C135.927 18.6217 133.718 16.4122 131.003 16.4122Z" fill="black"/>
<path d="M133.619 42.6763H128.382C126.688 42.6763 125.283 41.4058 125.116 39.7183L124.699 35.5455C123.704 35.1023 122.755 34.5508 121.859 33.8942L118.024 35.6243C116.485 36.3269 114.676 35.7392 113.832 34.2717L111.215 29.7378C110.368 28.2703 110.769 26.4187 112.141 25.4305L115.519 23.001C115.454 22.4921 115.408 21.9275 115.408 21.3365C115.408 20.7456 115.454 20.1776 115.519 19.672L112.141 17.2426C110.769 16.2544 110.368 14.4027 111.215 12.9352L113.832 8.40132C114.679 6.93379 116.478 6.35269 118.024 7.0487L121.859 8.77886C122.755 8.12226 123.704 7.5707 124.699 7.12749L125.116 2.95474C125.283 1.27054 126.688 0 128.382 0H133.619C135.313 0 136.718 1.27054 136.885 2.95802L137.302 7.13078C138.3 7.57399 139.249 8.12882 140.142 8.78215L143.977 7.05198C145.523 6.35926 147.325 6.94036 148.169 8.4046L150.786 12.9385C151.633 14.406 151.232 16.2576 149.86 17.2458L146.482 19.6753C146.547 20.1842 146.593 20.7488 146.593 21.3398C146.593 21.9307 146.547 22.4987 146.482 23.0043L149.86 25.4338C151.232 26.422 151.633 28.2736 150.786 29.7411L148.172 34.2717C147.325 35.736 145.53 36.3236 143.98 35.6243L140.145 33.8942C139.249 34.5508 138.3 35.1023 137.306 35.5455L136.885 39.7216C136.718 41.4058 135.313 42.6763 133.619 42.6763ZM122.089 30.3485C122.466 30.3485 122.84 30.4798 123.143 30.7326C124.255 31.665 125.487 32.3774 126.797 32.8567C127.388 33.0734 127.804 33.6085 127.867 34.2356L128.386 39.3933H133.622L134.137 34.2356C134.2 33.6085 134.617 33.0734 135.208 32.8567C136.518 32.3774 137.749 31.6617 138.862 30.7326C139.348 30.3288 140.017 30.2369 140.589 30.4962L145.329 32.6368L147.946 28.1029L143.75 25.089C143.238 24.7213 142.985 24.091 143.09 23.4705C143.212 22.7778 143.31 22.0719 143.31 21.3431C143.31 20.6142 143.212 19.9084 143.09 19.2157C142.982 18.5952 143.238 17.9681 143.75 17.5971L147.946 14.5833L145.329 10.0494L140.589 12.1867C140.014 12.446 139.344 12.3541 138.858 11.9503C137.749 11.0179 136.521 10.3055 135.204 9.82616C134.613 9.60948 134.197 9.07434 134.134 8.44728L133.619 3.27976H128.382L127.867 8.43743C127.804 9.06449 127.388 9.59963 126.797 9.81631C125.487 10.2956 124.255 11.0113 123.143 11.9404C122.66 12.3443 121.99 12.4395 121.416 12.1768L116.675 10.0363L114.058 14.5702L118.254 17.584C118.766 17.9517 119.019 18.582 118.914 19.2025C118.792 19.8953 118.694 20.6011 118.694 21.3299C118.694 22.0588 118.792 22.7646 118.914 23.4574C119.022 24.0779 118.766 24.7049 118.254 25.0759L114.058 28.0897L116.675 32.6236L121.416 30.4864C121.632 30.3944 121.859 30.3485 122.089 30.3485Z" fill="black"/>
<path d="M159.899 62.6566C156.882 62.6566 154.427 60.2009 154.427 57.1849C154.427 54.1689 156.882 51.7131 159.899 51.7131C162.915 51.7131 165.37 54.1689 165.37 57.1849C165.37 60.2009 162.915 62.6566 159.899 62.6566ZM159.899 53.9018C158.088 53.9018 156.615 55.3748 156.615 57.1849C156.615 58.9949 158.088 60.4679 159.899 60.4679C161.709 60.4679 163.182 58.9949 163.182 57.1849C163.182 55.3748 161.709 53.9018 159.899 53.9018Z" fill="black"/>
<path d="M161.643 71.4116H158.152C157.023 71.4116 156.086 70.5645 155.974 69.4396L155.696 66.6577C155.033 66.3622 154.401 65.9945 153.803 65.5568L151.247 66.7102C150.22 67.1786 149.014 66.7869 148.452 65.8085L146.707 62.7859C146.143 61.8076 146.41 60.5731 147.324 59.9143L149.577 58.2947C149.533 57.9555 149.502 57.579 149.502 57.185C149.502 56.7911 149.533 56.4124 149.577 56.0754L147.324 54.4557C146.41 53.7969 146.143 52.5625 146.707 51.5842L148.452 48.5616C149.016 47.5832 150.216 47.1958 151.247 47.6598L153.803 48.8133C154.401 48.3755 155.033 48.0078 155.696 47.7124L155.974 44.9305C156.086 43.8077 157.023 42.9607 158.152 42.9607H161.643C162.772 42.9607 163.709 43.8077 163.821 44.9327L164.099 47.7145C164.764 48.01 165.397 48.3799 165.992 48.8155L168.548 47.662C169.579 47.2002 170.781 47.5876 171.343 48.5638L173.088 51.5863C173.652 52.5647 173.385 53.7991 172.47 54.4579L170.218 56.0776C170.262 56.4168 170.293 56.7933 170.293 57.1872C170.293 57.5812 170.262 57.9598 170.218 58.2969L172.47 59.9165C173.385 60.5753 173.652 61.8098 173.088 62.7881L171.345 65.8085C170.781 66.7847 169.584 67.1764 168.55 66.7102L165.994 65.5568C165.397 65.9945 164.764 66.3622 164.101 66.6577L163.821 69.4417C163.709 70.5645 162.772 71.4116 161.643 71.4116ZM153.956 63.193C154.208 63.193 154.457 63.2806 154.659 63.4491C155.401 64.0707 156.222 64.5456 157.095 64.8652C157.489 65.0096 157.767 65.3664 157.808 65.7844L158.154 69.2229H161.645L161.989 65.7844C162.03 65.3664 162.308 65.0096 162.702 64.8652C163.576 64.5456 164.396 64.0685 165.138 63.4491C165.462 63.1799 165.909 63.1186 166.29 63.2915L169.45 64.7185L171.194 61.6959L168.397 59.6867C168.056 59.4416 167.887 59.0214 167.957 58.6077C168.038 58.1459 168.104 57.6753 168.104 57.1894C168.104 56.7035 168.038 56.233 167.957 55.7711C167.885 55.3575 168.056 54.9394 168.397 54.6921L171.194 52.6829L169.45 49.6603L166.29 51.0851C165.907 51.258 165.46 51.1968 165.136 50.9276C164.396 50.306 163.578 49.831 162.7 49.5115C162.306 49.367 162.028 49.0103 161.987 48.5922L161.643 45.1472H158.152L157.808 48.5856C157.767 49.0037 157.489 49.3604 157.095 49.5049C156.222 49.8244 155.401 50.3016 154.659 50.921C154.337 51.1902 153.891 51.2537 153.508 51.0786L150.347 49.6515L148.603 52.6741L151.4 54.6834C151.741 54.9285 151.91 55.3487 151.84 55.7624C151.759 56.2242 151.693 56.6948 151.693 57.1807C151.693 57.6665 151.759 58.1371 151.84 58.5989C151.912 59.0126 151.741 59.4306 151.4 59.678L148.603 61.6872L150.347 64.7098L153.508 63.2849C153.652 63.2237 153.803 63.193 153.956 63.193Z" fill="black"/>
<path d="M122.565 94.2666C134.124 100.42 145.449 106.432 156.765 112.473C159.31 113.835 159.733 114.986 158.643 117.64C154.378 127.858 150.095 138.063 145.792 148.256C144.932 150.308 144.035 152.347 143.265 154.432C142.701 155.95 141.649 156.725 140.165 157.251C130.822 160.539 121.508 163.878 112.179 167.204L68.3124 182.841C65.0244 184.006 64.1273 183.569 62.9436 180.243L43.0418 124.441C41.9051 121.247 42.3466 120.326 45.5641 119.18C69.1251 110.776 92.6813 102.363 116.233 93.9425C118.605 93.0782 120.723 92.6743 122.565 94.2666ZM138.483 150.905C142.913 140.341 147.366 129.702 151.842 119.072C152.781 116.785 152.828 116.836 150.625 115.667C140.539 110.315 130.464 104.943 120.399 99.5509C120.057 99.3414 119.671 99.2144 119.272 99.1802C118.872 99.1459 118.47 99.2053 118.098 99.3537C95.4792 107.436 72.8546 115.499 50.2237 123.544C49.2843 123.882 48.9696 124.159 49.3594 125.24C55.4 142.055 61.3998 158.884 67.3589 175.725C67.7441 176.814 68.1622 176.838 69.111 176.495C74.447 174.546 79.8064 172.657 85.1564 170.75L136.637 152.389C137.393 152.121 138.281 152.009 138.483 150.905Z" fill="black"/>
<path d="M126.772 131.985C125.065 131.148 123.644 129.824 122.688 128.18C121.732 126.536 121.285 124.646 121.402 122.748C121.52 120.85 122.197 119.029 123.348 117.516C124.499 116.002 126.073 114.864 127.87 114.244C129.668 113.624 131.609 113.55 133.449 114.033C135.288 114.515 136.943 115.531 138.206 116.953C139.468 118.375 140.281 120.139 140.542 122.023C140.803 123.906 140.499 125.825 139.671 127.537C139.125 128.684 138.356 129.711 137.409 130.557C136.462 131.404 135.356 132.053 134.155 132.467C132.954 132.882 131.683 133.052 130.415 132.969C129.148 132.886 127.909 132.552 126.772 131.985ZM125.49 120.636C124.957 121.72 124.757 122.938 124.915 124.136C125.074 125.333 125.585 126.457 126.382 127.364C127.18 128.271 128.228 128.922 129.396 129.233C130.563 129.544 131.796 129.502 132.94 129.113C134.083 128.723 135.085 128.002 135.819 127.043C136.553 126.083 136.986 124.928 137.063 123.722C137.14 122.516 136.857 121.315 136.251 120.27C135.645 119.225 134.743 118.383 133.658 117.851C132.94 117.494 132.158 117.282 131.357 117.229C130.556 117.176 129.753 117.281 128.994 117.54C128.234 117.799 127.533 118.206 126.932 118.738C126.331 119.269 125.841 119.915 125.49 120.636Z" fill="black"/>
<path d="M102.396 84.6844C100.688 83.8475 99.2667 82.5236 98.3109 80.8797C97.3551 79.2358 96.9078 77.3456 97.0252 75.4477C97.1427 73.5497 97.8197 71.7291 98.9709 70.2156C100.122 68.7021 101.696 67.5635 103.493 66.9436C105.291 66.3236 107.232 66.2501 109.072 66.7322C110.911 67.2144 112.566 68.2306 113.829 69.6527C115.091 71.0747 115.904 72.8389 116.165 74.7225C116.426 76.6061 116.123 78.5247 115.294 80.2362C114.748 81.383 113.979 82.4094 113.032 83.2557C112.084 84.1019 110.978 84.7511 109.777 85.1652C108.577 85.5793 107.306 85.75 106.038 85.6675C104.771 85.585 103.532 85.2508 102.396 84.6844ZM101.113 73.3361C100.581 74.4203 100.381 75.6381 100.541 76.8354C100.7 78.0328 101.211 79.1559 102.009 80.0628C102.807 80.9696 103.856 81.6194 105.024 81.93C106.191 82.2405 107.424 82.1979 108.567 81.8074C109.711 81.417 110.712 80.6962 111.446 79.7364C112.179 78.7766 112.611 77.6209 112.688 76.4153C112.764 75.2098 112.481 74.0087 111.875 72.9639C111.269 71.9192 110.366 71.0777 109.282 70.546C108.563 70.1888 107.78 69.9776 106.979 69.9246C106.178 69.8717 105.375 69.978 104.615 70.2374C103.856 70.4969 103.155 70.9043 102.554 71.4362C101.953 71.9681 101.463 72.6138 101.113 73.3361Z" fill="black"/>
<path d="M70.1307 57.2203C68.4231 56.3838 67.0016 55.0602 66.0455 53.4166C65.0894 51.773 64.6415 49.883 64.7585 47.9852C64.8754 46.0873 65.5519 44.2666 66.7026 42.7528C67.8533 41.239 69.4266 40.1 71.2239 39.4795C73.0213 38.859 74.9622 38.7848 76.8017 39.2663C78.6412 39.7478 80.2969 40.7633 81.5598 42.1848C82.8227 43.6063 83.6362 45.3701 83.8977 47.2535C84.1592 49.1369 83.857 51.0555 83.0291 52.7673C82.483 53.914 81.7139 54.9405 80.7669 55.7869C79.8198 56.6333 78.7138 57.2827 77.5132 57.6972C76.3126 58.1117 75.0415 58.2829 73.774 58.2011C72.5065 58.1192 71.268 57.7858 70.1307 57.2203ZM68.8484 45.8719C68.3162 46.956 68.1174 48.1736 68.2771 49.3706C68.4369 50.5677 68.948 51.6905 69.7459 52.5971C70.5438 53.5037 71.5926 54.1533 72.7597 54.4638C73.9267 54.7744 75.1596 54.7319 76.3026 54.3417C77.4455 53.9515 78.447 53.2312 79.1806 52.2719C79.9141 51.3125 80.3467 50.1572 80.4237 48.9519C80.5006 47.7467 80.2185 46.5457 79.6129 45.5009C79.0073 44.456 78.1055 43.6142 77.0215 43.0818C76.3023 42.7245 75.5195 42.5132 74.7182 42.4602C73.917 42.4072 73.1132 42.5135 72.3532 42.7729C71.5933 43.0323 70.8923 43.4398 70.2907 43.9717C69.6891 44.5036 69.1989 45.1494 68.8484 45.8719Z" fill="black"/>
<path d="M25.8873 113.76C23.9567 111.829 23.5857 110.791 24.774 109.199C19.1594 105.404 13.5431 101.612 7.92534 97.8226C6.98591 97.1791 7.05636 96.7751 7.62002 95.9437C21.1102 76.0748 34.5754 56.1901 48.0155 36.2898C48.2279 35.9496 48.5169 35.6636 48.8595 35.4548C49.202 35.2461 49.5885 35.1202 49.9883 35.0874C61.2959 33.4903 72.5973 31.8604 83.8924 30.1976C86.3631 29.8359 86.3115 29.8078 86.8892 32.2221C88.5238 39.0706 90.1647 45.9127 91.8118 52.7487L97.7443 53.0211C95.6682 44.3596 93.5889 35.698 91.5065 27.0364C90.8301 24.2604 89.8108 23.5793 86.9503 23.9927C74.268 25.8152 61.5856 27.6659 48.6074 29.5447C46.179 29.3474 44.7134 30.9539 43.3043 33.0206C29.3349 53.7695 15.3202 74.4887 1.26005 95.1781C-0.651693 97.9964 -0.463779 99.0063 2.34512 100.909L35.4224 123.314L25.8873 113.76Z" fill="black"/>
<path d="M45.5641 119.171C69.125 110.766 92.6812 102.354 116.233 93.9333C118.581 93.0784 120.723 92.6745 122.565 94.2668L123.363 94.6942C122.868 83.9346 122.377 73.1312 121.888 62.2839C121.775 59.8038 121.822 59.8413 119.328 59.7286C107.923 59.2182 96.5188 58.6843 85.1141 58.1269C84.715 58.0812 84.3108 58.1305 83.9344 58.271C83.5581 58.4114 83.2203 58.6388 82.9487 58.9348C65.9795 75.9291 48.9946 92.9109 31.994 109.88C31.28 110.594 31.125 110.975 31.9376 111.787L42.4968 122.318C42.3418 120.735 43.2061 120.012 45.5641 119.171Z" fill="black"/>
<path d="M42.4966 122.314L31.9375 111.783C31.1248 110.97 31.2799 110.589 31.9938 109.875C48.9975 92.9156 65.9824 75.9354 82.9485 58.9348C83.2202 58.6389 83.5579 58.4114 83.9343 58.271C84.3106 58.1306 84.7149 58.0812 85.1139 58.1269C96.5124 58.6906 107.917 59.2245 119.328 59.7287C121.822 59.8414 121.775 59.8038 121.888 62.2839C122.367 73.1124 122.859 83.9159 123.363 94.6943L129.267 97.832C129.075 95.6384 129.009 93.4355 128.91 91.2325C128.408 80.1754 127.924 69.1183 127.398 58.0659C127.266 55.21 126.388 54.3504 123.504 54.2142C110.695 53.6036 97.8855 53.0258 84.8039 52.4199C82.4553 51.7717 80.7127 53.0493 78.9372 54.8342C61.3009 72.5707 43.6239 90.2633 25.9063 107.912C23.4919 110.326 23.4872 111.346 25.9063 113.746L46.6536 134.493L43.0415 124.441C42.7777 123.756 42.5948 123.042 42.4966 122.314Z" fill="black"/>
<path d="M156.745 112.473C147.628 107.607 138.497 102.754 129.248 97.8318C129.248 97.8318 129.248 97.8741 129.248 97.8976C129.389 99.5087 128.778 100.659 127.651 101.768L126.556 102.858C134.567 107.142 142.582 111.411 150.601 115.667C152.804 116.836 152.781 116.785 151.818 119.072C147.341 129.702 142.893 140.341 138.459 150.905C138.262 152.009 137.369 152.122 136.613 152.389L85.1323 170.75C79.7822 172.657 74.4227 174.546 69.0868 176.495C68.1473 176.838 67.7199 176.814 67.3347 175.725C63.577 165.119 59.8052 154.516 56.0193 143.916L46.625 134.521L62.9194 180.234C64.1031 183.56 65.0097 183.992 68.2883 182.832L112.164 167.185C121.493 163.86 130.807 160.515 140.15 157.232C141.634 156.711 142.687 155.936 143.25 154.414C144.021 152.328 144.918 150.29 145.777 148.237C150.061 138.028 154.345 127.823 158.629 117.621C159.732 114.986 159.31 113.835 156.745 112.473Z" fill="black"/>
<path d="M50.2236 123.544C72.8608 115.503 95.4854 107.439 118.098 99.3537C118.47 99.2054 118.872 99.146 119.272 99.1802C119.671 99.2145 120.057 99.3414 120.399 99.551L121.301 100.021L122.428 98.8887C122.997 98.3203 123.758 97.8412 123.462 96.7562L123.363 94.6801L122.565 94.2526C120.723 92.6603 118.605 93.0642 116.233 93.9191C92.6969 102.374 69.1407 110.787 45.5641 119.157C43.2155 119.998 42.3418 120.721 42.4968 122.299C45.5124 125.312 48.528 128.321 51.5435 131.327C50.8108 129.293 50.0874 127.26 49.3594 125.221C48.9695 124.159 49.2748 123.882 50.2236 123.544Z" fill="black"/>
<path d="M51.5291 131.342C48.5136 128.326 45.498 125.317 42.4824 122.314C42.5813 123.039 42.7641 123.75 43.0273 124.432L46.6206 134.508L56.015 143.902C54.5369 139.718 53.0416 135.532 51.5291 131.342Z" fill="black"/>
<path d="M123.461 96.7708C123.757 97.8558 122.992 98.3349 122.428 98.9033L121.301 100.035C123.058 100.975 124.817 101.914 126.58 102.854L127.675 101.764C128.793 100.655 129.413 99.5045 129.272 97.8934C129.272 97.8934 129.272 97.8512 129.272 97.8277L123.367 94.6899L123.461 96.7708Z" fill="black"/>
</svg>
