<svg width="130" height="130" viewBox="0 0 130 130" fill="none" xmlns="http://www.w3.org/2000/svg">
<path d="M115.561 24.1879C105.842 12.1023 93.5854 4.49765 79.1356 1.58033C53.6234 -3.56729 32.0028 3.87493 14.8728 23.6971C6.90343 32.9162 2.05411 44.1421 0.456846 57.0602C0.406086 57.4562 0.385775 57.8623 0.365471 58.2549C0.368903 59.0589 0.245568 59.8584 0 60.6239V69.5519L0.233499 71.2238C0.402701 72.4151 0.571899 73.5928 0.747868 74.7943C1.93961 82.8293 4.66102 90.5611 8.76464 97.571C14.548 107.47 22.3617 115.349 31.9825 120.998C39.6714 125.539 48.2129 128.449 57.0751 129.547C57.4744 129.594 57.8805 129.611 58.273 129.628C59.0784 129.612 59.8802 129.738 60.6419 130H60.7062H69.3388L71.0309 129.77C72.2931 129.597 73.5587 129.431 74.821 129.245C84.2943 127.841 93.3311 124.326 101.264 118.96C111 112.466 118.58 103.632 123.795 92.7348C127.152 85.756 129.181 78.2138 129.781 70.4927C131.118 53.158 126.329 37.5764 115.561 24.1879ZM48.3951 30.9566C50.564 28.788 53.1394 27.0685 55.9737 25.8966C58.8079 24.7246 61.8455 24.1233 64.9125 24.127H65.1325C78.276 24.2488 88.5669 34.6185 88.5601 47.7092C88.5727 50.7889 87.974 53.8404 86.7989 56.687C85.6238 59.5336 83.8955 62.1188 81.7142 64.2926C79.5174 66.4852 76.9084 68.2211 74.0374 69.4003C71.1665 70.5794 68.0905 71.1785 64.987 71.1628H64.9362C51.7622 71.1358 41.4409 60.7695 41.4409 47.5637C41.4371 44.4726 42.0503 41.4119 43.2445 38.5608C44.4386 35.7097 46.1896 33.1256 48.3951 30.96V30.9566ZM19.58 103.484C24.4361 88.3757 34.4258 77.8673 49.2715 72.2458C49.5911 72.1088 49.939 72.0505 50.2858 72.0758C50.6327 72.1011 50.9684 72.2093 51.2647 72.3914C60.3745 77.2039 69.6197 77.2039 78.7431 72.3914C79.0173 72.2143 79.3295 72.1049 79.6543 72.0719C79.979 72.039 80.3069 72.0835 80.611 72.2019C95.5008 77.7725 105.538 88.2911 110.431 103.47C110.537 103.724 110.563 104.004 110.505 104.273C110.448 104.542 110.31 104.787 110.11 104.976C100.563 115.593 88.5804 122.186 74.4927 124.568C71.175 125.073 67.825 125.336 64.4692 125.357C46.7741 124.954 31.7794 118.084 19.9015 104.986C19.696 104.802 19.5542 104.557 19.4965 104.287C19.4387 104.017 19.468 103.736 19.58 103.484ZM84.9358 67.721C85.5517 67.0441 86.1304 66.4146 86.6888 65.7411C91.2572 60.2551 93.4568 53.7706 93.2707 46.4502C92.9763 35.803 85.5483 25.3013 75.606 21.4838C68.5639 18.7763 61.0344 18.7526 54.3983 21.4093C47.7622 24.066 42.3579 29.3118 39.2751 36.1414C34.7337 46.2167 35.952 56.0009 42.8994 65.2233C43.5897 66.1422 44.3634 66.9953 45.2107 67.7717C45.3359 67.8868 45.7183 68.2388 45.6844 68.4283C45.6506 68.6178 45.1667 68.8175 45.0076 68.8818C39.8285 71.003 35.0414 73.9773 30.8455 77.6811C24.261 83.3921 19.2235 90.6719 16.1994 98.8469L16.1621 98.9485C16.0742 99.1854 15.9862 99.4257 15.888 99.6524C15.8667 99.6744 15.8429 99.6937 15.817 99.7099C-2.08118 74.8653 1.79693 40.6223 24.876 20.015C36.4833 9.64865 50.7943 4.5315 65.0513 4.5315C81.166 4.5315 97.1996 11.0735 109.169 23.9713C131.317 47.8547 128.275 80.7034 114.164 99.6423C108.685 85.0895 98.6175 74.598 84.2353 68.4892L84.9358 67.721Z" fill="#1D1D1B"/>
</svg>
