<svg width="149" height="183" viewBox="0 0 149 183" fill="none" xmlns="http://www.w3.org/2000/svg">
<path d="M41.568 23.7057L50.2642 23.6035C50.3163 23.604 50.3674 23.6172 50.4132 23.6419C50.459 23.6665 50.4981 23.7019 50.5271 23.745L55.5403 30.8173C55.7153 31.0668 55.9482 31.2704 56.2191 31.4109C56.4901 31.5514 56.7911 31.6245 57.0966 31.6241C57.197 31.624 57.2972 31.6162 57.3963 31.6005C57.7487 31.5474 58.079 31.3963 58.3491 31.1647C58.6193 30.933 58.8184 30.6301 58.9237 30.2908L61.5157 22.0188C61.531 21.9673 61.559 21.9204 61.5971 21.8824C61.6352 21.8445 61.6822 21.8166 61.7339 21.8014L70.0437 19.237C70.3831 19.1305 70.6858 18.9316 70.9178 18.6627C71.1497 18.3938 71.3016 18.0657 71.3563 17.7154C71.4109 17.365 71.3663 17.0064 71.2272 16.6801C71.0882 16.3537 70.8604 16.0726 70.5695 15.8684L63.4716 10.8549C63.4293 10.8252 63.3947 10.7861 63.3704 10.7406C63.3462 10.695 63.3332 10.6445 63.3323 10.593L63.4532 1.92802C63.4576 1.57326 63.3625 1.22431 63.1785 0.920524C62.9946 0.616742 62.7291 0.370223 62.4121 0.208729C62.095 0.0472342 61.739 -0.022813 61.3841 0.00651865C61.0293 0.0358503 60.6897 0.163369 60.4037 0.374711L53.4267 5.55063C53.3827 5.58181 53.3319 5.6023 53.2785 5.61049C53.2251 5.61868 53.1705 5.61434 53.1191 5.5978L44.9145 2.81076C44.5772 2.69614 44.2145 2.67791 43.8674 2.7581C43.5202 2.83828 43.2026 3.01369 42.9503 3.26448C42.6981 3.51528 42.5213 3.8314 42.4401 4.17711C42.3589 4.52282 42.3764 4.88429 42.4907 5.22059L45.2746 13.4324C45.2915 13.4833 45.2958 13.5375 45.2871 13.5904C45.2784 13.6433 45.257 13.6933 45.2247 13.7362L40.0143 20.675C39.7997 20.9587 39.6696 21.2969 39.6389 21.6508C39.6082 22.0047 39.6782 22.3601 39.8408 22.6762C40.005 22.9901 40.2534 23.2525 40.5583 23.4343C40.8632 23.616 41.2127 23.7099 41.568 23.7057ZM59.4967 5.92784C59.5059 5.93082 59.5141 5.93624 59.5204 5.94354L59.5441 11.9681C59.5465 12.2196 59.6082 12.4671 59.7242 12.6905C59.8401 12.9139 60.0072 13.107 60.2118 13.2543L65.2066 16.8219L59.5152 18.4878C59.267 18.558 59.0405 18.6893 58.8567 18.8697C58.6729 19.05 58.5378 19.2737 58.4636 19.5199L56.7785 25.1961L53.2085 20.2192C53.0619 20.0146 52.8687 19.8475 52.6448 19.7314C52.421 19.6153 52.1727 19.5536 51.9204 19.5513L45.874 19.5146L49.4072 14.7578C49.5588 14.5536 49.6575 14.3153 49.6946 14.064C49.7318 13.8128 49.7062 13.5562 49.6201 13.3171L47.6012 7.62783L53.3084 9.64999C53.5484 9.73646 53.806 9.76281 54.0586 9.72673C54.3112 9.69064 54.551 9.59322 54.7569 9.44305L59.4967 5.92784Z" fill="black"/>
<path d="M10.0409 67.062L18.4796 69.1575C18.5323 69.1703 18.581 69.1959 18.6214 69.232C18.6617 69.2681 18.6925 69.3136 18.7109 69.3644L21.7578 77.4846C21.8818 77.8181 22.0974 78.1101 22.38 78.3274C22.6626 78.5446 23.0009 78.6782 23.3561 78.7131C23.4218 78.7131 23.4875 78.7131 23.5533 78.7131C23.8766 78.7131 24.1946 78.6308 24.4771 78.4741C24.7596 78.3173 24.9972 78.0912 25.1674 77.8172L29.7784 70.4699C29.8067 70.4251 29.8453 70.3878 29.8911 70.3609C29.9368 70.334 29.9883 70.3184 30.0413 70.3153L38.7165 69.9355C39.073 69.9206 39.4181 69.8065 39.7128 69.606C40.0075 69.4056 40.2399 69.1268 40.3836 68.8014C40.5273 68.476 40.5766 68.117 40.5259 67.7651C40.4752 67.4132 40.3265 67.0825 40.0966 66.8105L34.5287 60.1756C34.494 60.1345 34.4699 60.0856 34.4584 60.0331C34.4469 59.9806 34.4485 59.9261 34.463 59.8744L36.7843 51.5211C36.8795 51.179 36.8767 50.8171 36.7762 50.4765C36.6757 50.1358 36.4815 49.8301 36.2156 49.5937C35.9497 49.3574 35.6226 49.1999 35.2715 49.1392C34.9205 49.0785 34.5593 49.1169 34.229 49.2501L26.1637 52.493C26.1137 52.5126 26.0596 52.52 26.0061 52.5145C25.9526 52.509 25.9011 52.4909 25.8561 52.4615L18.6031 47.6785C18.3057 47.4827 17.9592 47.3737 17.6028 47.3638C17.2464 47.3539 16.8944 47.4435 16.5864 47.6225C16.2785 47.8016 16.027 48.0629 15.8603 48.3769C15.6935 48.6909 15.6183 49.0451 15.643 49.3994L16.2451 58.0434C16.2494 58.0971 16.2404 58.151 16.2188 58.2003C16.1973 58.2496 16.1638 58.2929 16.1215 58.3263L9.31537 63.7223C9.03629 63.9431 8.82486 64.2374 8.70498 64.5718C8.5851 64.9062 8.56156 65.2674 8.63708 65.6144C8.71259 65.9615 8.88412 66.2805 9.13223 66.5354C9.38034 66.7903 9.69513 66.9709 10.0409 67.0568V67.062ZM20.4538 59.0388L19.9517 53.0142L24.9466 56.4194C25.1568 56.5633 25.3993 56.6536 25.6528 56.6824C25.9062 56.7112 26.1629 56.6776 26.4003 56.5844L31.9025 54.3946C31.9025 54.3946 31.9209 54.3946 31.9209 54.413L30.4093 60.249C30.3466 60.493 30.3428 60.7484 30.3981 60.9942C30.4534 61.24 30.5662 61.4694 30.7274 61.6635L34.6418 66.3784L28.7111 66.5486C28.4545 66.5555 28.2038 66.6266 27.9819 66.7552C27.7601 66.8838 27.5742 67.0658 27.4413 67.2847L24.3682 72.3479L22.1836 66.6298C22.0938 66.3942 21.9493 66.1831 21.762 66.0137C21.5747 65.8444 21.3499 65.7216 21.1058 65.6554L15.2592 64.0838L19.8886 60.3747C20.0836 60.2136 20.2367 60.0081 20.3351 59.7755C20.4334 59.543 20.4742 59.2903 20.4538 59.0388Z" fill="black"/>
<path d="M117.295 58.3972C116.986 58.5755 116.734 58.8369 116.568 59.1515C116.401 59.4661 116.327 59.8211 116.354 60.1757L116.977 68.8197C116.98 68.8733 116.971 68.9269 116.949 68.976C116.928 69.0252 116.895 69.0686 116.853 69.1026L110.058 74.5117C109.78 74.7337 109.569 75.0289 109.451 75.3638C109.332 75.6986 109.31 76.0599 109.386 76.4067C109.463 76.7535 109.635 77.0721 109.884 77.3265C110.133 77.5808 110.448 77.7608 110.794 77.8461L119.235 79.9416C119.288 79.954 119.336 79.9791 119.377 80.0147C119.417 80.0504 119.448 80.0955 119.466 80.146L122.532 88.2661C122.656 88.5991 122.873 88.8905 123.156 89.1068C123.439 89.3231 123.777 89.4557 124.133 89.4893C124.197 89.4932 124.261 89.4932 124.325 89.4893C124.649 89.49 124.968 89.4078 125.251 89.2505C125.534 89.0932 125.772 88.866 125.941 88.5909L130.537 81.233C130.565 81.1883 130.603 81.1509 130.649 81.124C130.695 81.0972 130.746 81.0816 130.799 81.0785L139.488 80.6777C139.844 80.6615 140.188 80.5463 140.481 80.3453C140.775 80.1443 141.006 79.8655 141.149 79.5403C141.292 79.2152 141.34 78.8567 141.289 78.5055C141.238 78.1542 141.09 77.8242 140.86 77.5528L135.263 70.9152C135.228 70.8741 135.204 70.8252 135.193 70.7727C135.181 70.7202 135.183 70.6657 135.197 70.614L137.5 62.2581C137.595 61.9159 137.592 61.554 137.491 61.2134C137.39 60.8728 137.196 60.5672 136.93 60.3311C136.663 60.095 136.336 59.9379 135.985 59.8776C135.634 59.8173 135.273 59.8561 134.942 59.9898L126.882 63.2509C126.832 63.2705 126.778 63.2779 126.725 63.2725C126.671 63.267 126.62 63.2488 126.575 63.2195L119.311 58.4548C119.015 58.2573 118.668 58.1472 118.311 58.137C117.955 58.1268 117.603 58.217 117.295 58.3972ZM121.186 69.7994L120.66 63.7748L125.673 67.1643C125.883 67.3071 126.126 67.3966 126.378 67.4249C126.631 67.4532 126.887 67.4195 127.124 67.3267L132.624 65.1238C132.631 65.1295 132.638 65.1366 132.642 65.1447L131.144 70.9833C131.082 71.2274 131.079 71.4826 131.135 71.7279C131.192 71.9733 131.305 72.202 131.467 72.3952L135.392 77.1101L129.459 77.2961C129.203 77.3046 128.953 77.3766 128.732 77.5056C128.512 77.6346 128.327 77.8165 128.194 78.0347L125.129 83.1085L122.931 77.393C122.841 77.158 122.697 76.9477 122.509 76.7792C122.322 76.6107 122.097 76.4889 121.853 76.4238L116.004 74.8705L120.623 71.151C120.822 70.9897 120.977 70.7818 121.075 70.5459C121.174 70.31 121.212 70.0535 121.186 69.7994Z" fill="black"/>
<path d="M147.579 119.706C146.423 118.022 145.213 116.333 144.051 114.701C141.649 111.332 139.164 107.851 136.99 104.281C134.361 99.9431 130.923 97.3788 125.881 95.9617C120.268 94.39 114.642 92.4543 109.203 90.584C107.451 89.9816 105.698 89.3835 103.946 88.7898C102.957 88.4571 101.921 88.2109 101.054 88.6614C100.753 88.8295 100.49 89.0577 100.281 89.3317C100.073 89.6058 99.9231 89.9197 99.8419 90.254C99.1742 92.436 101.099 93.1589 102.134 93.5466L102.303 93.6095C102.802 93.8007 103.312 93.9657 103.806 94.1333L104.395 94.3245L108.83 95.7993C113.299 97.2766 117.905 98.8037 122.434 100.328C122.688 100.407 122.946 100.469 123.207 100.514C123.47 100.564 123.975 100.663 124.056 100.776C124.058 100.795 124.058 100.815 124.056 100.834C124.061 100.857 124.061 100.881 124.056 100.904C123.991 101.017 123.483 101.166 123.241 101.224C122.972 101.291 122.709 101.379 122.453 101.486C117.631 103.599 112.807 105.705 107.981 107.804C98.7404 111.833 89.1872 115.997 79.8179 120.157C77.9778 120.977 76.432 120.985 74.5103 120.186C66.1742 116.72 57.6856 113.231 49.4731 109.858C43.1638 107.264 36.6364 104.582 30.2246 101.931C29.8054 101.77 29.3749 101.64 28.9365 101.541C28.3082 101.384 27.3592 101.143 27.3461 100.831C27.3461 100.598 27.5169 100.483 28.6026 100.255C29.1491 100.171 29.6805 100.009 30.1799 99.7729C30.9686 99.3512 32.6169 98.4632 31.9202 96.5432C31.3945 95.0973 30.08 94.5289 28.4554 95.058C26.9543 95.5504 25.4585 96.0533 23.9601 96.5563C22.5352 97.0356 21.1104 97.515 19.6829 97.9838C18.5578 98.3532 17.8427 99.139 17.2223 99.9327L13.6339 104.564C9.7853 109.541 5.80784 114.664 1.93292 119.743C1.23364 120.66 0.555396 121.739 0.815653 122.81C1.07591 123.882 2.16424 124.534 3.29991 125.074L3.97817 125.396C7.8715 127.229 11.8989 129.152 15.9132 130.925C17.4537 131.606 17.9479 132.348 17.869 133.859C17.7534 136.044 17.7796 138.262 17.8033 140.408C17.8033 141.319 17.8243 142.241 17.8243 143.14C17.8243 144.038 17.8375 144.952 17.8506 145.835C17.8796 147.881 17.9111 149.997 17.7796 152.053C17.6272 154.432 18.521 155.846 20.8633 156.936C40.2511 165.957 59.0237 174.792 74.831 182.245C75.5842 182.62 76.4126 182.823 77.2548 182.837C78.1736 182.818 79.0748 182.582 79.8837 182.148C97.7599 173.174 114.411 164.878 130.749 156.787C132.774 155.783 133.62 154.353 133.581 152.006C133.528 148.8 133.536 145.534 133.541 142.377C133.541 139.389 133.541 136.298 133.507 133.257C133.486 131.842 133.888 131.177 135.1 130.614C138.883 128.859 142.724 126.92 146.11 125.21C147.561 124.476 148.449 123.866 148.694 122.913C148.938 121.959 148.476 121.008 147.579 119.706ZM79.6339 149.18C79.6339 143.808 79.6339 138.249 79.6523 132.785C79.6479 132.552 79.6303 132.319 79.5998 132.088C79.5522 131.829 79.5433 131.564 79.5735 131.303H79.5998C79.6314 131.288 79.6651 131.279 79.6996 131.276C79.7995 131.276 79.9126 131.394 80.2254 131.929C80.3467 132.146 80.4837 132.354 80.6355 132.552L81.1324 133.17C84.9311 137.885 88.8612 142.783 92.5863 147.689C94.2319 149.858 95.9775 150.254 98.4223 148.999C105.52 145.371 112.792 141.757 119.819 138.26L126.861 134.752C127.369 134.481 127.896 134.246 128.439 134.05C128.515 134.647 128.545 135.249 128.531 135.85C128.531 137.445 128.531 139.072 128.531 140.646C128.515 143.708 128.496 146.875 128.588 149.995C128.636 151.592 128.12 152.368 126.462 153.188C115.92 158.395 105.221 163.733 94.876 168.904L81.3768 175.636C80.8465 175.919 80.2945 176.16 79.7259 176.356C79.6497 175.786 79.6189 175.21 79.6339 174.635C79.6339 169.658 79.6339 164.619 79.6339 159.733C79.6339 157.729 79.6339 155.721 79.6339 153.709V149.18ZM95.7383 143.276C90.7066 136.814 86.2376 131.153 82.0682 125.988C81.4925 125.273 81.5425 125.055 81.5425 125.045C81.5425 125.034 81.6056 124.825 82.4705 124.45C96.2851 118.462 110.315 112.336 123.88 106.41L128.891 104.223C129.227 104.043 129.594 103.926 129.974 103.88C130.266 103.88 130.465 104.045 130.72 104.404C133.294 108.179 135.949 112 138.518 115.667C139.694 117.353 140.866 119.037 142.035 120.72C142.145 120.887 142.242 121.062 142.324 121.244V121.26C142.303 121.42 142.206 121.472 141.83 121.632C141.72 121.679 141.612 121.726 141.509 121.776L126.556 129.244C117.019 134.003 107.158 138.935 97.4654 143.789C96.6742 144.19 96.3823 144.104 95.7383 143.276ZM73.1065 125.48C72.9251 125.781 72.7384 126.093 72.5439 126.386C71.3784 128.132 70.2113 129.871 69.0423 131.601C66.2189 135.792 63.2982 140.146 60.4985 144.47C59.7099 145.704 59.2656 145.801 57.7566 145.088C42.1228 137.696 25.5532 129.946 8.51031 122.038C7.58233 121.608 7.45878 121.338 7.43775 121.268C7.41672 121.197 7.43772 120.883 8.06339 120.086C12.1276 114.942 16.0972 109.805 19.8696 104.818C20.3638 104.163 20.7502 103.87 21.2786 103.87C21.6571 103.892 22.0276 103.987 22.3696 104.15C33.8761 108.912 45.5877 113.721 56.9128 118.371L72.1312 124.623C72.2626 124.678 72.3941 124.725 72.5386 124.772C73.0933 124.964 73.2248 125.034 73.2485 125.228L73.1065 125.48ZM22.8139 150.102C22.9348 145.953 22.9401 141.502 22.8323 135.672C22.8165 134.763 22.9401 134.49 22.9795 134.427C23.0558 134.427 23.3554 134.427 24.2151 134.828C28.7236 136.968 33.3188 139.121 37.7642 141.201C44.2207 144.224 50.9084 147.349 57.4254 150.497C60.346 151.907 62.1231 151.425 63.7662 148.782C66.2346 144.806 68.9082 140.855 71.4897 137.031C72.2574 135.896 73.0232 134.761 73.7873 133.626C73.898 133.457 73.9998 133.282 74.0923 133.102C74.2185 132.85 74.3757 132.614 74.5602 132.4C74.5839 132.709 74.6023 132.992 74.6023 133.267C74.6023 137.254 74.6023 141.241 74.6023 145.227C74.6023 154.919 74.6023 164.959 74.6522 174.826C74.6522 176.107 74.4498 176.317 74.4498 176.319C74.4051 176.335 74.1265 176.393 72.9803 175.848C55.8928 167.728 40.1196 160.26 24.7645 153.059C23.2424 152.347 22.7692 151.626 22.8139 150.094V150.102Z" fill="black"/>
<path d="M76.6131 87.9957C76.5342 89.0147 76.458 90.0363 76.3765 91.0578C76.1925 93.3969 76.989 94.6647 78.7425 94.8193C78.8555 94.8193 78.9633 94.835 79.0711 94.835C79.6099 94.8596 80.1386 94.6831 80.5537 94.3399C81.2793 93.7034 81.3187 92.674 81.3424 91.8463C81.3424 91.6917 81.3424 91.5398 81.3661 91.3957C81.4476 90.1934 81.5185 88.9754 81.5895 87.7967C81.8314 83.6763 82.0811 79.4146 82.8382 75.2891C87.2547 51.243 97.7096 36.6897 115.738 29.4916C117.702 28.7058 117.87 27.472 117.668 26.5736C117.331 25.0936 116.112 24.3995 114.4 24.7191C113.546 24.8842 112.711 25.1388 111.911 25.4787C102.683 29.324 95.0177 35.7231 89.1212 44.4929C81.3608 56.0418 77.4123 69.4662 76.6972 86.7411L76.6131 87.9957Z" fill="black"/>
<path d="M114.687 52.1083C114.553 52.1685 114.424 52.2262 114.293 52.2759C109.077 54.3715 104.45 57.9312 100.544 62.84C93.1828 72.1048 89.5471 83.342 88.79 99.2757V99.3124C88.79 99.666 88.79 100.02 88.79 100.36C88.79 101.172 88.79 102.013 88.79 102.841C88.8163 104.266 89.6392 105.156 90.9956 105.222H91.1691C92.5598 105.222 93.5351 104.384 93.7086 103C93.7816 102.333 93.808 101.66 93.7875 100.989C93.7875 100.727 93.7875 100.465 93.7875 100.203C93.9163 92.3448 95.1519 85.3065 97.5599 78.6951C101.456 68.0002 107.55 60.8833 116.225 56.8992L116.664 56.708C117.734 56.2496 119.729 55.3983 118.809 53.1142C118.704 52.8004 118.535 52.5115 118.313 52.2655C118.091 52.0195 117.82 51.8215 117.518 51.684C116.556 51.3041 115.52 51.7494 114.687 52.1083Z" fill="black"/>
<path d="M58.8998 96.7479C59.4256 98.8434 59.6438 101.007 59.8436 103.108C59.9435 104.156 60.046 105.235 60.188 106.301C60.4798 108.504 61.7653 108.863 62.5539 108.863C62.6735 108.864 62.793 108.856 62.9115 108.839C64.2101 108.671 65.0145 107.59 65.0145 106.018C65.0145 105.35 65.0145 104.682 65.0145 104.184V103.697C64.3889 93.2772 60.8084 84.8375 54.0628 77.9014C51.555 75.2836 48.6508 73.074 45.4559 71.3529C43.0742 70.093 41.9779 71.2743 41.5389 72.0915C41.3673 72.3734 41.2554 72.6873 41.2102 73.014C41.165 73.3406 41.1874 73.6729 41.276 73.9906C41.4942 74.7057 42.0647 75.3003 42.9848 75.7901C43.3318 75.9709 43.6972 76.1856 44.0994 76.4423C51.8151 81.393 56.6469 88.0332 58.8998 96.7479Z" fill="black"/>
<path d="M66.4264 81.1965C66.7403 81.1907 67.0497 81.1212 67.3358 80.9924C67.6219 80.8637 67.8786 80.6782 68.0905 80.4474C68.5952 79.879 68.8055 79.0591 68.7345 77.9406V77.8777C68.1951 73.9959 67.3298 70.166 66.1477 66.4284C65.8428 65.488 65.4432 64.4481 64.5284 63.9976C64.2144 63.8583 63.875 63.7848 63.5313 63.7816C63.1876 63.7784 62.8469 63.8457 62.5304 63.9792C60.3301 64.7651 60.9531 66.7558 61.2765 67.8297L61.308 67.9345C62.5331 71.9134 63.2902 75.2217 63.6924 78.3414C63.9921 80.6726 65.2066 81.2018 66.245 81.2018C66.3028 81.2018 66.3659 81.2017 66.4264 81.1965Z" fill="black"/>
<path d="M36.2868 38.8982C39.59 40.4162 42.6948 42.3303 45.5325 44.598C45.9031 44.8816 46.3441 45.0594 46.8083 45.1124C47.2725 45.1654 47.7425 45.0916 48.1679 44.899C48.5932 44.7063 48.958 44.4019 49.2231 44.0186C49.4883 43.6352 49.6437 43.1872 49.6729 42.7225C49.6785 42.4362 49.6252 42.1519 49.5162 41.887C49.4073 41.6221 49.245 41.3823 49.0394 41.1823C46.0427 38.2159 42.4401 35.927 38.4766 34.4714L38.3715 34.4347H38.2611C37.3541 34.3692 35.6638 34.2514 35.0223 35.8832C34.536 37.1248 35.0434 38.3245 36.2868 38.8982Z" fill="black"/>
<path d="M134.99 48.0433C135.207 48.1102 135.433 48.1446 135.66 48.1454C136.031 48.1461 136.394 48.0455 136.712 47.8547C137.029 47.645 137.298 47.3709 137.502 47.0505C137.706 46.73 137.84 46.3703 137.895 45.9949C138.039 45.2091 137.532 44.3709 137.08 43.7998C136.246 42.7521 134.856 41.6415 133.625 41.5681H133.541C133.216 41.5742 132.895 41.6472 132.599 41.7824C132.304 41.9176 132.039 42.1122 131.822 42.3539C131.627 42.5922 131.485 42.8684 131.404 43.1648C131.323 43.4612 131.305 43.7712 131.351 44.0749C131.559 45.9661 132.85 47.3779 134.99 48.0433Z" fill="black"/>
<path d="M125.971 41.5415L125.789 41.5205L125.616 41.5781C123.676 42.2461 122.438 43.5427 122.035 45.3291C121.951 45.6502 121.937 45.9858 121.995 46.3127C122.053 46.6396 122.182 46.9502 122.372 47.2229C122.582 47.4965 122.851 47.7202 123.159 47.8778C123.467 48.0355 123.806 48.1231 124.152 48.1345H124.27C125.34 48.1345 126.667 46.9426 127.059 46.5628C127.758 45.8897 128.586 44.9021 128.542 44.0194C128.502 43.2152 128.113 41.806 125.971 41.5415Z" fill="black"/>
<path d="M133.759 38.8247H133.822C134.642 38.8247 135.544 38.0939 136.161 37.4705C136.469 37.1614 138.002 35.5505 137.925 34.2329V34.1543C137.884 33.8469 137.778 33.5513 137.616 33.2866C137.453 33.0219 137.237 32.7938 136.982 32.6168C136.71 32.441 136.404 32.3245 136.085 32.2748C135.765 32.2252 135.438 32.2435 135.126 32.3286C133.049 32.8106 131.687 34.2224 131.385 36.2001C131.33 36.5054 131.341 36.8189 131.418 37.1194C131.495 37.4199 131.636 37.7004 131.832 37.942C132.073 38.2155 132.369 38.4355 132.701 38.5876C133.033 38.7397 133.393 38.8205 133.759 38.8247Z" fill="black"/>
<path d="M126.123 38.7671H126.27C126.622 38.7614 126.968 38.6762 127.282 38.5178C127.597 38.3595 127.871 38.1321 128.084 37.8529C128.302 37.5796 128.449 37.2563 128.51 36.9122C128.571 36.5682 128.545 36.2144 128.434 35.8831C127.768 33.9212 126.375 32.635 124.506 32.2631L124.377 32.2395L124.248 32.2552C123.113 32.4072 122.555 32.9179 122.287 33.3213C122.117 33.5886 122.007 33.8903 121.968 34.2046C121.928 34.519 121.959 34.8382 122.059 35.1392C122.661 37.3028 124.143 38.623 126.123 38.7671Z" fill="black"/>
<path d="M54.9645 53.5643C53.282 53.6875 52.2252 54.84 52.2699 56.498C52.3067 57.8942 53.2373 58.7979 54.8251 58.976L55.088 59.0048L55.4666 58.79C56.3525 58.2897 57.688 57.5353 57.6643 55.9087C57.6643 55.5854 57.5976 55.2655 57.4682 54.969C57.3389 54.6725 57.1497 54.4057 56.9125 54.1851C56.648 53.9538 56.3385 53.7794 56.0034 53.6725C55.6682 53.5657 55.3146 53.5289 54.9645 53.5643Z" fill="black"/>
<path d="M54.9836 46.704L54.8548 46.6699H54.7207C53.1644 46.7878 52.2469 47.702 52.2679 49.1112C52.289 50.7588 53.3405 51.8459 55.0098 51.9506C55.0756 51.9506 55.1387 51.9506 55.2044 51.9506C55.8587 51.9667 56.4932 51.7259 56.971 51.2801C57.1978 51.0587 57.3754 50.7922 57.4922 50.498C57.6091 50.2038 57.6626 49.8884 57.6492 49.5722C57.6098 48.1866 56.6371 47.1362 54.9836 46.704Z" fill="black"/>
<path d="M42.417 89.125L42.325 88.863C42.091 88.2134 41.4706 86.4872 39.6068 86.2436C39.2833 86.1907 38.9522 86.2063 38.6351 86.2893C38.3181 86.3723 38.0221 86.521 37.7666 86.7256C37.5071 86.9588 37.2995 87.2436 37.1574 87.5617C37.0152 87.8798 36.9415 88.2241 36.9411 88.5723C36.8806 90.1832 37.8691 91.341 39.5226 91.5898C39.6557 91.6102 39.7902 91.6207 39.9248 91.6213C41.5679 91.6213 42.1305 89.9579 42.325 89.3843L42.417 89.125Z" fill="black"/>
<path d="M22.2377 25.9658C22.3599 25.9791 22.4828 25.9861 22.6057 25.9867C23.8807 25.9867 24.764 25.1852 24.9953 23.7864L25.0164 23.6503L24.9927 23.5167C24.7009 21.945 23.7203 20.9968 22.2271 20.8684C21.3938 20.8003 20.6998 20.9915 20.2187 21.429C19.9952 21.6424 19.8199 21.9011 19.7048 22.1875C19.5896 22.4739 19.5372 22.7815 19.551 23.0897C19.5457 24.6771 20.5762 25.7798 22.2377 25.9658Z" fill="black"/>
<path d="M49.0499 88.9886C49.0499 87.3148 48.1613 86.2592 46.705 86.2304C45.175 86.199 43.9657 87.2782 43.6949 88.8917C43.6353 89.217 43.6484 89.5514 43.7334 89.8711C43.8184 90.1907 43.9731 90.4877 44.1865 90.741C44.4194 91.009 44.7077 91.2236 45.0317 91.3701C45.3557 91.5166 45.7077 91.5915 46.0635 91.5897H46.0977C46.8119 91.6232 47.5123 91.386 48.0581 90.9258C48.6038 90.4655 48.9545 89.8165 49.0394 89.1091L49.0499 88.9886Z" fill="black"/>
<path d="M61.7107 58.8788C61.8557 58.9037 62.0026 58.916 62.1498 58.9155C62.6054 58.922 63.0502 58.7773 63.4142 58.5043C63.9558 58.093 64.287 57.4172 64.3711 56.5502V56.4847V56.4166C64.2502 54.7795 63.2933 53.737 61.7423 53.5615C61.4121 53.5128 61.0753 53.5344 60.7541 53.6247C60.4328 53.715 60.1344 53.872 59.8784 54.0853C59.628 54.3136 59.4283 54.5917 59.2925 54.9017C59.1566 55.2117 59.0876 55.5466 59.0898 55.8849C59.0372 57.3962 60.0914 58.6038 61.7107 58.8788Z" fill="black"/>
<path d="M82.8929 39.0294H83.1348C83.4576 39.0416 83.7797 38.9901 84.0825 38.8777C84.3852 38.7653 84.6626 38.5943 84.8987 38.3745C85.119 38.1516 85.2869 37.8828 85.3906 37.5875C85.4942 37.2922 85.5309 36.9778 85.4981 36.6667C85.3982 35.095 84.3493 34.0473 82.6879 33.8796H82.6274H82.5669C80.2588 33.9923 80.0774 35.5744 80.1037 36.2371C80.1747 37.848 81.2394 38.9115 82.8929 39.0294Z" fill="black"/>
<path d="M22.3222 27.5563C21.5808 27.6105 20.8866 27.9393 20.3762 28.4778C19.8659 29.0164 19.5763 29.7258 19.5645 30.4664C19.5119 31.894 20.503 32.8239 22.2118 32.9339H22.3642L22.5088 32.8867C24.6119 32.1978 24.951 30.7703 24.9589 29.9792C24.969 29.6408 24.9063 29.3042 24.7752 28.9919C24.644 28.6796 24.4474 28.3988 24.1984 28.1684C23.9495 27.938 23.654 27.7632 23.3318 27.6558C23.0096 27.5485 22.668 27.511 22.3301 27.5458L22.3222 27.5563Z" fill="black"/>
<path d="M82.4885 32.3278H82.5542C83.9869 32.2964 85.0016 31.3901 85.5747 29.6325L85.6536 29.3889L85.5721 29.1453C85.0805 27.6523 84.2156 26.9188 83.0116 26.9633C81.3686 27.0236 80.2303 28.1133 80.1199 29.7373C80.0838 30.0775 80.1205 30.4214 80.2274 30.7465C80.3343 31.0715 80.5091 31.3703 80.7403 31.6232C80.9676 31.8538 81.2402 32.0354 81.5409 32.1566C81.8416 32.2778 82.1642 32.3361 82.4885 32.3278Z" fill="black"/>
<path d="M76.098 32.3307H76.2189C76.5119 32.3423 76.8042 32.2944 77.0781 32.1899C77.3519 32.0855 77.6016 31.9266 77.812 31.723C78.3193 31.2201 78.5559 30.4526 78.5165 29.4442V29.4049C78.3982 28.0637 77.2547 27.0474 75.7325 26.9662C75.3915 26.9381 75.0483 26.9848 74.7273 27.1029C74.4062 27.221 74.1149 27.4077 73.874 27.6499C73.6371 27.8984 73.4574 28.1955 73.3476 28.5203C73.2377 28.8451 73.2002 29.1899 73.2378 29.5306C73.3824 31.1468 74.5338 32.2705 76.098 32.3307Z" fill="black"/>
<path d="M75.5301 39.0472H75.743C77.3677 38.9346 78.3719 37.9393 78.5243 36.3179V36.2497V36.1816C78.5278 35.847 78.4568 35.5157 78.3163 35.2116C78.1758 34.9076 77.9694 34.6384 77.7119 34.4235C77.4544 34.2085 77.1523 34.0531 76.8273 33.9685C76.5023 33.8839 76.1625 33.8722 75.8324 33.9342C74.1867 34.0887 73.1589 35.2622 73.2035 36.9255C73.2069 37.2175 73.2703 37.5057 73.3896 37.7724C73.509 38.0391 73.6818 38.2786 73.8976 38.4762C74.3508 38.8635 74.9333 39.0673 75.5301 39.0472Z" fill="black"/>
<path d="M61.4345 51.9664H61.4635C63.0408 51.9507 64.0765 51.0103 64.3552 49.3156L64.371 49.2186V49.1243C64.3634 48.7593 64.2817 48.3996 64.1308 48.0669C63.9799 47.7342 63.7629 47.4355 63.493 47.1886C63.2559 46.9993 62.9825 46.8601 62.6896 46.7794C62.3968 46.6988 62.0905 46.6785 61.7895 46.7197C60.1149 46.8978 59.0502 48.0582 59.0817 49.6797C59.0745 49.9868 59.1309 50.2922 59.2473 50.5767C59.3638 50.8612 59.5378 51.1188 59.7586 51.3333C59.9793 51.5479 60.242 51.7148 60.5304 51.8238C60.8188 51.9327 61.1265 51.9812 61.4345 51.9664Z" fill="black"/>
<path d="M46.2862 93.1536H46.1863C45.8023 93.1635 45.424 93.2492 45.0734 93.4057C44.7228 93.5621 44.4068 93.7862 44.1437 94.0651C43.9623 94.2817 43.8266 94.5325 43.7449 94.8026C43.6631 95.0726 43.6369 95.3563 43.6679 95.6367C43.7067 96.388 44.0389 97.0944 44.5935 97.6049C45.1481 98.1154 45.8811 98.3896 46.6359 98.3687H46.6516C48.0554 98.3687 49.0176 97.4598 49.0176 96.1056C49.0334 95.1888 48.71 93.5858 46.373 93.1614L46.2862 93.1536Z" fill="black"/>
<path d="M29.0924 32.894C29.2127 32.9093 29.3338 32.9171 29.4551 32.9176C29.9545 32.9298 30.4418 32.7645 30.83 32.4513C31.3374 32.0296 31.6187 31.3721 31.6739 30.4946V30.4056C31.5845 28.7868 30.5277 27.6971 28.9136 27.5583C28.6162 27.5267 28.3154 27.5569 28.0303 27.6471C27.7452 27.7373 27.482 27.8854 27.2574 28.0822C27.0174 28.3095 26.8276 28.5841 26.6999 28.8885C26.5723 29.1929 26.5097 29.5204 26.5161 29.8503C26.4924 31.5319 27.4809 32.6949 29.0924 32.894Z" fill="black"/>
<path d="M39.7733 93.1802H39.697H39.6208C37.9725 93.3819 36.9919 94.4061 36.9656 95.9908C36.9341 97.3267 37.8332 98.2304 39.258 98.2959H39.4236C40.1467 98.3206 40.8511 98.0641 41.3879 97.5806C41.9246 97.0972 42.2515 96.4246 42.2996 95.7053C42.3382 95.4197 42.3173 95.1292 42.2381 94.852C42.1589 94.5749 42.0233 94.3169 41.8395 94.0943C41.39 93.56 40.675 93.2404 39.7733 93.1802Z" fill="black"/>
<path d="M28.8547 25.9865H29.0913C30.6423 25.8817 31.5782 24.8523 31.657 23.1654V23.1104V23.0554C31.6423 22.7309 31.5621 22.4126 31.4212 22.1196C31.2803 21.8266 31.0815 21.5649 30.8368 21.3502C30.593 21.1594 30.3127 21.0201 30.013 20.9409C29.7134 20.8616 29.4006 20.844 29.0939 20.8892C27.5718 21.0385 26.5939 22.0758 26.5439 23.5898C26.5149 23.9179 26.558 24.2484 26.6701 24.5582C26.7823 24.8681 26.9608 25.1499 27.1933 25.3841C27.6459 25.7949 28.2429 26.0114 28.8547 25.9865Z" fill="black"/>
</svg>
